<svg xmlns="http://www.w3.org/2000/svg" viewBox="0 0 70.38 78.68"><defs><style>.cls-1{fill:#ed981d;}</style></defs><title>community_centres</title><g id="Layer_2" data-name="Layer 2"><g id="Layer_1-2" data-name="Layer 1"><path class="cls-1" d="M68.89,18.16A27,27,0,0,0,31.2,3,20.5,20.5,0,0,0,.05,19.11c0,.23,0,.49,0,.79v0c0,.49,0,1,0,1.43,0,.71.09,1.41.19,2.11A37.09,37.09,0,0,0,3.67,35.15l.05.09q.07.16.15.3l.21.42v0a36.64,36.64,0,0,0,5.43,7.81l.45.48,0,0,.46.48.4.4.33.33.18.18a.67.67,0,0,1,.15.14c.1.08.18.17.27.25l.07.06.34.32.4.34.4.34.32.27h0l.31.26.33.26.46.36c.13.1.26.2.4.29a4.56,4.56,0,0,0,.42.31l.1.08.3.21.25.18.12.08.58.38h0l.37.24h0l.18.12.42.26.5.3.4.23c.73.41,1.48.81,2.23,1.17l.11.06,0,0a.65.65,0,0,1,.17.08h0a8.38,8.38,0,0,0,3,.74A8.61,8.61,0,0,0,27,52.72l.06,0h0a.52.52,0,0,0,.16-.06l.17-.05h0c.7-.23,1.41-.51,2.09-.81h0l.07,0a8.13,8.13,0,0,1,2.43-.62c.27,0,.55,0,.82,0a8.32,8.32,0,0,1,5.57,2.12,9.19,9.19,0,0,1,1.22,1.35l0,0a8.27,8.27,0,0,1,1.56,4.85c0,.26,0,.52,0,.77a8.38,8.38,0,0,1-5.47,7.09,2.3,2.3,0,0,0-1.51,2.16A2.24,2.24,0,0,0,34.8,71,69.77,69.77,0,0,0,42,78.15a2.28,2.28,0,0,0,2.92,0A82.37,82.37,0,0,0,63.69,53.8a62.57,62.57,0,0,0,6-18.47c0-.22.06-.44.09-.64a54.6,54.6,0,0,0,.55-7.3v-.34A27,27,0,0,0,68.89,18.16ZM43.42,34a7,7,0,1,1,7-6.95A7,7,0,0,1,43.42,34Z"/></g></g></svg>