<svg xmlns="http://www.w3.org/2000/svg" viewBox="0 0 337.31 105.74"><defs><style>.cls-1{fill:#fff;}</style></defs><title>Asset 1</title><g id="Layer_2" data-name="Layer 2"><g id="design_1" data-name="design 1"><path class="cls-1" d="M106.55,87.08a2,2,0,0,1-1.3-.47,71,71,0,0,1-7.41-7.45,2,2,0,0,1,.83-3.26,9.08,9.08,0,0,0,5.92-7.67c0-.27,0-.55,0-.83a9,9,0,0,0-1.68-5.25,8.73,8.73,0,0,0-1.35-1.5,9,9,0,0,0-6-2.29,8.7,8.7,0,0,0-.89,0,8.8,8.8,0,0,0-2.73.71c-.7.31-1.43.59-2.17.84l-.4.13a8.21,8.21,0,0,1-2.47.37h-.43a7.67,7.67,0,0,1-1.36-.18,8,8,0,0,1-1.65-.54l0,0h0l-.21-.1h0l-.14-.07A38,38,0,0,1,61.94,29.91c-.09-.68-.15-1.38-.2-2.09v-.05a21.87,21.87,0,0,1,0-2.29,21,21,0,0,1,32-16.38,27.73,27.73,0,0,1,34.43,7.39h0a27.39,27.39,0,0,1,6,17.22v.36a57.11,57.11,0,0,1-.66,8.2,64.81,64.81,0,0,1-6.28,19.16,85.22,85.22,0,0,1-19.46,25.18A2.06,2.06,0,0,1,106.55,87.08Zm-3.87-8.64c1.59,1.71,2.94,3,3.87,3.87A84.14,84.14,0,0,0,123.67,59.6a60.93,60.93,0,0,0,5.89-18,51.93,51.93,0,0,0,.61-7.62v-.32A23.4,23.4,0,0,0,125.06,19h0a23.66,23.66,0,0,0-30.32-5.79,2,2,0,0,1-2.2-.1,16.92,16.92,0,0,0-19.18-.32,16.78,16.78,0,0,0-7.52,13c0,.6,0,1.21,0,1.81s.1,1.24.17,1.83a34,34,0,0,0,18.9,26.46l.07,0h0L85,56h0l0,0h0a3.68,3.68,0,0,0,.85.28h0a4,4,0,0,0,.69.1h.23a4.22,4.22,0,0,0,1.28-.19l.23-.08h0c.63-.21,1.26-.45,1.85-.71a13.15,13.15,0,0,1,4-1q.63-.06,1.29-.06a13.14,13.14,0,0,1,8.73,3.32,13.17,13.17,0,0,1,4.39,9.8c0,.41,0,.82,0,1.21A13.16,13.16,0,0,1,102.68,78.44ZM85,55.93Zm21.56-14.64a7.27,7.27,0,0,1-.82,0,7.58,7.58,0,0,1,0-15.07,6.91,6.91,0,0,1,.81-.05,7.58,7.58,0,0,1,0,15.16Zm0-11.08-.37,0a3.5,3.5,0,0,0,0,7,2.42,2.42,0,0,0,.38,0,3.5,3.5,0,0,0,0-7Z"/><path class="cls-1" d="M87,104.2H69.83a2,2,0,0,1-2-2,15.31,15.31,0,0,0-.47-3.76,15.08,15.08,0,0,0-29.2,0,15.31,15.31,0,0,0-.47,3.76,2,2,0,0,1-2,2H18.49a2,2,0,0,1-2-2V69.87a18.83,18.83,0,0,1-9.56-3.81A19.24,19.24,0,0,1,.11,56.2,1,1,0,0,1,0,55.91,2.26,2.26,0,0,1,4.29,54.5,8.16,8.16,0,0,0,10,58.89,8.28,8.28,0,0,0,17.13,57a8.05,8.05,0,0,0,2.1-3A36.43,36.43,0,0,1,31,38.92a38,38,0,0,1,3.63-2.4,36.25,36.25,0,0,1,18.13-4.85A35.34,35.34,0,0,1,57.2,32a2,2,0,0,1,1.74,1.62A41.62,41.62,0,0,0,84.32,64,7.37,7.37,0,0,1,89,70.86v31.3A2,2,0,0,1,87,104.2Zm-15.19-4.08H84.91V70.86a3.3,3.3,0,0,0-2.1-3.08A45.7,45.7,0,0,1,55.27,35.85c-.85-.07-1.7-.1-2.55-.1a32.13,32.13,0,0,0-16.09,4.31,30.91,30.91,0,0,0-3.22,2.13A32.3,32.3,0,0,0,23,55.56,12.3,12.3,0,0,1,9.53,62.94a14.89,14.89,0,0,0,9,3,2,2,0,0,1,2,2v32.18H33.67a19.69,19.69,0,0,1,.5-2.74,19.16,19.16,0,0,1,37.1,0A18.3,18.3,0,0,1,71.76,100.12Z"/><path class="cls-1" d="M223.32,104.35V63H184.77v41.35H160.88V5.45h23.89V42.88h38.55V5.45h23.89v98.9Z"/><path class="cls-1" d="M291.21,12.57a11.83,11.83,0,0,1-1,5,12.56,12.56,0,0,1-7,6.64,13.64,13.64,0,0,1-5.1,1,12.81,12.81,0,0,1-9.36-3.7A12,12,0,0,1,265,12.57a12.11,12.11,0,0,1,1-4.82,11.48,11.48,0,0,1,2.79-4,15.12,15.12,0,0,1,4.19-2.72,12.61,12.61,0,0,1,5.17-1,13.65,13.65,0,0,1,5.1,1,12.5,12.5,0,0,1,7,6.63A11.83,11.83,0,0,1,291.21,12.57Zm-24.59,91.78V34.78h22.91v69.57Z"/><path class="cls-1" d="M337.31,92.47a13.11,13.11,0,0,1-1.05,5.24,12.13,12.13,0,0,1-2.94,4.19,14.57,14.57,0,0,1-4.4,2.8,13.58,13.58,0,0,1-5.3,1,14,14,0,0,1-5.24-1,12.53,12.53,0,0,1-4.26-2.8,14.79,14.79,0,0,1-2.94-4.19,12,12,0,0,1-1.11-5.17,12.77,12.77,0,0,1,1-5.09A13.65,13.65,0,0,1,314,83.25a13.24,13.24,0,0,1,4.33-2.86,13.93,13.93,0,0,1,10.61,0,14.73,14.73,0,0,1,4.4,2.79,12.26,12.26,0,0,1,2.94,4.2A12.78,12.78,0,0,1,337.31,92.47ZM311.88,71.24V5.45h23.33V71.24Z"/></g></g></svg>