<svg id="pirate-treasure-map" xmlns="http://www.w3.org/2000/svg" width="56.678" height="63.786" viewBox="0 0 56.678 63.786">
  <g id="Group_38" data-name="Group 38" transform="translate(0 0)">
    <path id="Path_66" data-name="Path 66" d="M79.812,3.858,63.6,14.286,47.354.533A2.327,2.327,0,0,0,44.6.381L27.63,11.982a2.31,2.31,0,0,0-.982,1.889V56a2.235,2.235,0,0,0,1.209,2,2.275,2.275,0,0,0,2.343-.151l14.321-9.786L61.864,63.219a2.186,2.186,0,0,0,1.474.567,2.214,2.214,0,0,0,1.171-.34L82.23,52.828a2.251,2.251,0,0,0,1.1-1.927V5.747a2.319,2.319,0,0,0-1.171-2A2.36,2.36,0,0,0,79.812,3.858Zm-1.02,45.8L63.6,58.76,47.052,44.288V35.749a2.267,2.267,0,1,0-4.534,0v8.237L31.182,51.732V15.08L45.73,5.142l15.3,12.885V46.706a2.267,2.267,0,0,0,4.534,0V18.443L78.792,9.9Z" transform="translate(-26.648 0)" fill="#fff"/>
    <path id="Path_67" data-name="Path 67" d="M125.795,107.427a2.3,2.3,0,0,0-3.212,0l-3.854,3.854-3.854-3.854a2.271,2.271,0,0,0-3.212,3.212l3.854,3.854-3.854,3.892a2.3,2.3,0,0,0,0,3.212,2.238,2.238,0,0,0,1.587.68,2.175,2.175,0,0,0,1.587-.68l3.892-3.892,3.854,3.854a2.238,2.238,0,0,0,1.587.68,2.175,2.175,0,0,0,1.587-.68,2.3,2.3,0,0,0,0-3.212l-3.816-3.854,3.854-3.854A2.236,2.236,0,0,0,125.795,107.427Z" transform="translate(-99.761 -92.536)" fill="#fff"/>
  </g>
</svg>
