<svg xmlns="http://www.w3.org/2000/svg" viewBox="0 0 73.4 81.59"><defs><style>.cls-1{fill:#932c7b;}.cls-2{fill:#fff;}</style></defs><title>go_out</title><g id="Layer_2" data-name="Layer 2"><g id="Layer_1-2" data-name="Layer 1"><path class="cls-1" d="M71.83,27a26.78,26.78,0,0,0-1.45-7.35A26.93,26.93,0,0,0,38.15,2.45a26.6,26.6,0,0,0-3.24,1c-.52.22-1,.44-1.56.69-.87.41-1.12,0-1.94-.4a20.44,20.44,0,0,0-7-2.15A20.72,20.72,0,0,0,3,14.29c-3.42,8.47-.49,18.61,4.22,26A35.85,35.85,0,0,0,22.57,53.83a8.71,8.71,0,0,0,6,.36c1.69-.5,3.2-1.42,5-1.59a8.36,8.36,0,0,1,7.69,13.12,8.58,8.58,0,0,1-1.9,2c-.84.62-1.91.84-2.71,1.46-2.19,1.7.17,3.91,1.41,5.25s2.64,2.74,4,4,2.83,2.46,4.66,1a54.76,54.76,0,0,0,4.11-4C63,62.75,72.83,45.07,71.83,27ZM38,28.55a7,7,0,1,1,6.95,7A7,7,0,0,1,38,28.55Z"/><path class="cls-2" d="M73.33,26.93a28.42,28.42,0,0,0-1.53-7.76A28.43,28.43,0,0,0,37.78,1a26.64,26.64,0,0,0-3.45,1.12c-.54.22-1.07.45-1.59.7l-.12-.07-.52-.29A21.81,21.81,0,0,0,24.6.15a22.32,22.32,0,0,0-23,13.58C-1.58,21.6.05,31.84,6,41.12A37.59,37.59,0,0,0,22,55.21a10.22,10.22,0,0,0,7,.42c.68-.2,1.31-.46,1.93-.71a10.44,10.44,0,0,1,2.76-.83,7,7,0,0,1,7.52,6A6.92,6.92,0,0,1,40,64.85a7.07,7.07,0,0,1-1.57,1.61,5.8,5.8,0,0,1-1.06.56A7.45,7.45,0,0,0,35.7,68a3.51,3.51,0,0,0-1.47,2.52c-.14,1.91,1.35,3.49,2.44,4.65l.26.28c1.41,1.5,2.75,2.85,4.12,4.12.87.8,2.26,2.07,4,2.07a4.21,4.21,0,0,0,2.68-1.08,56.42,56.42,0,0,0,4.22-4.06C66.43,61.37,74.24,43.32,73.33,26.93ZM43.08,77.31c-1.31-1.21-2.6-2.51-3.95-4l-.28-.3c-.54-.57-1.67-1.77-1.63-2.35,0-.14.21-.31.32-.39a5.1,5.1,0,0,1,1.05-.56,8.46,8.46,0,0,0,1.63-.88,10.19,10.19,0,0,0,2.24-2.3,9.86,9.86,0,0,0-8.12-15.52c-.31,0-.63,0-.94,0a12.9,12.9,0,0,0-3.6,1c-.58.23-1.12.45-1.67.61a7.18,7.18,0,0,1-5-.29,34.53,34.53,0,0,1-14.69-13C4.32,33,1.07,23.06,4.38,14.85A19.29,19.29,0,0,1,24.24,3.13a18.84,18.84,0,0,1,6.49,2l.37.2a2.73,2.73,0,0,0,2.9.21c.5-.24,1-.45,1.46-.65a27.44,27.44,0,0,1,3.07-1A25.42,25.42,0,0,1,69,20.16a24.86,24.86,0,0,1,1.37,6.93c.86,15.57-6.64,32.8-20.58,47.28a53.58,53.58,0,0,1-4,3.83C45.1,78.76,44.78,78.87,43.08,77.31Z"/></g></g></svg>