<svg xmlns="http://www.w3.org/2000/svg" viewBox="0 0 73.4 81.58"><defs><style>.cls-1{fill:#718bb2;}.cls-2{fill:#fff;}</style></defs><title>work</title><g id="Layer_2" data-name="Layer 2"><g id="Layer_1-2" data-name="Layer 1"><path class="cls-1" d="M71.83,27a26.78,26.78,0,0,0-1.45-7.35A27,27,0,0,0,34.91,3.5c-.53.22-1,.44-1.56.69-.87.41-1.12,0-1.94-.4a20.51,20.51,0,0,0-7-2.15A20.72,20.72,0,0,0,3,14.29c-3.42,8.47-.5,18.61,4.22,26A35.8,35.8,0,0,0,22.57,53.83a8.7,8.7,0,0,0,6,.36c1.69-.5,3.2-1.42,5-1.59a8.36,8.36,0,0,1,7.68,13.12,8.18,8.18,0,0,1-1.9,2c-.83.62-1.91.84-2.71,1.46-2.18,1.7.18,3.91,1.42,5.25s2.63,2.74,4,4,2.83,2.46,4.65,1a53,53,0,0,0,4.12-4C63,62.75,72.83,45.07,71.83,27ZM38,28.55a7,7,0,1,1,7,7A7,7,0,0,1,38,28.55Z"/><path class="cls-2" d="M73.33,26.93a28.42,28.42,0,0,0-1.53-7.76A28.6,28.6,0,0,0,34.34,2.11c-.55.23-1.09.46-1.6.71l-.12-.07-.52-.29A21.74,21.74,0,0,0,24.6.15a22.3,22.3,0,0,0-23,13.58C-1.58,21.61,0,31.85,5.94,41.12A37.51,37.51,0,0,0,22,55.21a10.22,10.22,0,0,0,7,.42c.68-.2,1.31-.46,1.93-.71a10.44,10.44,0,0,1,2.76-.83,7,7,0,0,1,7.51,6.06A6.92,6.92,0,0,1,40,64.87a6.81,6.81,0,0,1-1.57,1.6,5.77,5.77,0,0,1-1.06.55,7.62,7.62,0,0,0-1.67.93,3.49,3.49,0,0,0-1.46,2.52c-.15,1.9,1.35,3.49,2.44,4.65l.26.28c1.37,1.48,2.75,2.86,4.11,4.11.82.76,2.24,2.07,4,2.07a4.08,4.08,0,0,0,2.65-1.07,54.9,54.9,0,0,0,4.24-4.06C66.43,61.37,74.24,43.32,73.33,26.93ZM43.08,77.31c-1.3-1.2-2.63-2.53-3.95-4l-.28-.3c-.54-.57-1.67-1.78-1.63-2.36,0-.13.2-.3.31-.38a4.85,4.85,0,0,1,1-.56,7.64,7.64,0,0,0,1.62-.88,9.45,9.45,0,0,0,2.25-2.3,9.86,9.86,0,0,0-8.11-15.52c-.31,0-.63,0-.94,0a12.9,12.9,0,0,0-3.6,1c-.58.23-1.12.45-1.66.61a7.26,7.26,0,0,1-5-.29,34.45,34.45,0,0,1-14.69-13C4.32,33,1.06,23.08,4.38,14.85A19.25,19.25,0,0,1,24.24,3.13a18.84,18.84,0,0,1,6.49,2l.37.2A2.75,2.75,0,0,0,34,5.54c.48-.24,1-.45,1.45-.65a27.28,27.28,0,0,1,3.06-1A25.43,25.43,0,0,1,69,20.16a24.79,24.79,0,0,1,1.37,6.93c0,.81.07,1.62.07,2.43,0,14.92-7.43,31.12-20.65,44.85a50.34,50.34,0,0,1-4,3.84C45.09,78.76,44.77,78.87,43.08,77.31Z"/></g></g></svg>