<svg xmlns="http://www.w3.org/2000/svg" viewBox="0 0 860.7 738.73"><defs><style>.cls-1{isolation:isolate;}.cls-2{fill:#6b0003;}.cls-3{fill:#8e0004;}.cls-4{fill:#9b9b9b;}.cls-5{fill:#bb6668;}.cls-6{fill:#a53336;}.cls-7{fill:#9b4329;}.cls-8{fill:#cecece;}.cls-9{fill:#676767;}.cls-10{fill:#9f9f9f;}.cls-11,.cls-25{fill:none;}.cls-12{fill:#a54832;}.cls-13{fill:#74321f;}.cls-14{fill:#7c3626;}.cls-15,.cls-24{fill:#eef1f8;}.cls-16{fill:#a0695f;}.cls-17{fill:#896603;}.cls-18{fill:#c59304;}.cls-19{fill:#dca504;}.cls-20{fill:#faff8f;}.cls-21{font-size:48.65px;fill:#ffe600;font-family:Didot;}.cls-22{letter-spacing:-0.01em;}.cls-23{letter-spacing:0em;}.cls-24,.cls-25{mix-blend-mode:soft-light;}.cls-26{fill:#bd0005;}</style></defs><title>Asset 6</title><g class="cls-1"><g id="Layer_2" data-name="Layer 2"><g id="Layer_1-2" data-name="Layer 1"><polygon class="cls-2" points="860.7 322.35 860.7 590.98 604.79 738.73 604.79 470.1 860.7 322.35"/><polygon class="cls-3" points="604.79 470.1 604.79 550.69 488.48 483.54 488.48 483.53 418.69 443.23 348.89 402.94 302.36 376.08 232.57 335.78 216.28 326.38 162.78 295.5 162.77 295.49 120.2 270.91 46.46 228.33 46.46 147.74 92.98 174.6 186.04 228.33 325.62 308.92 465.21 389.51 604.79 470.1"/><polygon class="cls-3" points="488.48 483.53 418.69 443.24 348.89 402.94 418.69 443.23 488.48 483.53"/><polygon class="cls-4" points="46.53 281.97 46.46 282.01 46.46 256.94 46.53 281.97"/><polygon class="cls-5" points="814.16 349.21 604.79 470.1 465.21 389.51 325.62 308.92 186.04 228.33 92.98 174.6 116.24 161.17 116.25 161.17 302.36 53.72 790.9 335.78 814.16 349.21"/><path class="cls-6" d="M302.36,0,46.46,147.74,93,174.6,186,228.33l139.58,80.59,139.59,80.59L604.79,470.1,860.7,322.35ZM116.25,161.17h0L93,147.74,302.36,26.86l511.8,295.49L790.9,335.78,604.79,443.23Z"/><polygon class="cls-2" points="92.98 147.74 302.36 26.86 302.36 53.72 116.25 161.17 92.98 147.74"/><polygon class="cls-2" points="302.36 53.72 302.36 26.86 814.16 322.35 790.9 335.78 302.36 53.72"/><path class="cls-7" d="M162.77,448v35.55l-2.39-1.38V449.59L50.3,386l-1.44-.83v32.55l-2.4-1.39V335.75a8.77,8.77,0,0,0,2.4.81v45.65l1.44.83,73.48,42.42,36.6,21.13Z"/><polygon class="cls-8" points="50.3 386.04 160.38 449.59 160.38 482.14 48.86 417.76 48.86 385.21 50.3 386.04"/><polygon class="cls-8" points="46.53 281.55 46.53 281.97 46.46 282.01 46.46 256.94 46.53 281.55"/><path class="cls-8" d="M162.78,400v83.54h0V448l-2.39-1.38-36.6-21.13L50.3,383l-1.44-.83V336.56a6.68,6.68,0,0,0,1.44.08c.22,0,.44,0,.65,0a5.82,5.82,0,0,1,4,1A11.15,11.15,0,0,1,58.65,341a16.27,16.27,0,0,0,5.16,4.78,8,8,0,0,0,5.37,1.33,5.82,5.82,0,0,1,4,1,11.17,11.17,0,0,1,3.69,3.46A16.49,16.49,0,0,0,82,356.33a8.07,8.07,0,0,0,5.37,1.33,5.82,5.82,0,0,1,4,1,11.15,11.15,0,0,1,3.69,3.45,16.27,16.27,0,0,0,5.16,4.78,8,8,0,0,0,5.37,1.33,5.82,5.82,0,0,1,4,1,11.17,11.17,0,0,1,3.69,3.46,16.49,16.49,0,0,0,5.16,4.78,8.07,8.07,0,0,0,5.37,1.33,5.82,5.82,0,0,1,4,1,11.15,11.15,0,0,1,3.69,3.45,16.38,16.38,0,0,0,5.16,4.78,8,8,0,0,0,5.37,1.33,5.87,5.87,0,0,1,4,1,11.31,11.31,0,0,1,3.7,3.46,16.22,16.22,0,0,0,5.15,4.78,8,8,0,0,0,5.37,1.33h0a5.55,5.55,0,0,1,2.39.23Z"/><polygon class="cls-8" points="352.73 560.65 416.27 597.33 416.27 629.88 351.29 592.37 351.29 559.82 352.73 560.65"/><path class="cls-8" d="M416.27,547.08v47.25l-36.6-21.13-26.94-15.55-1.44-.83v-46.2a15.42,15.42,0,0,0,1.43,1.55h0a14.73,14.73,0,0,0,2.78,2,8,8,0,0,0,5.36,1.33,5.84,5.84,0,0,1,4,1,11.17,11.17,0,0,1,3.69,3.46,16.38,16.38,0,0,0,5.16,4.78,8,8,0,0,0,5.37,1.33,5.82,5.82,0,0,1,4,1,11.25,11.25,0,0,1,3.69,3.45,16.5,16.5,0,0,0,5.16,4.79,8.07,8.07,0,0,0,5.37,1.33,5.85,5.85,0,0,1,4,.95A11.17,11.17,0,0,1,405,541a16.38,16.38,0,0,0,5.16,4.78,8,8,0,0,0,5.37,1.33Z"/><polygon class="cls-8" points="418.69 443.23 418.69 443.24 348.89 402.94 418.69 443.23"/><path class="cls-8" d="M418.69,547.61v83.67h0V547.6Z"/><polygon class="cls-8" points="299.96 562.73 302.35 564.12 234.97 525.21 234.97 492.66 236.41 493.49 299.96 530.18 299.96 562.73"/><path class="cls-8" d="M302.36,376.08V483.49l-.07,0v-.16a11.08,11.08,0,0,1-1.47-.73c-.3-.17-.59-.35-.85-.53v45.07l-36.6-21.13-27-15.56-1.44-.83V441.9a6.26,6.26,0,0,0-1.72,0c-.22,0-.45,0-.68,0V335.78Z"/><path class="cls-9" d="M349,456.58l-46.52,26.86-.09.05-.07,0v-.16c0-1,0-2,.07-3v-.07c1.35-29,21.61-63,46.46-77.38Z"/><polygon class="cls-10" points="46.53 281.97 46.46 282.01 46.46 256.94 46.53 281.97"/><path class="cls-11" d="M604.79,550.69v53.72l-46.53,26.87C558.18,601.65,579,565.57,604.79,550.69Z"/><polygon class="cls-4" points="498.41 654.57 498.41 665.83 496.97 666.66 496.97 653.74 498.41 654.57"/><path class="cls-12" d="M495.47,651.14v16.39l102.32,59.08V710.22ZM596.29,724,497,666.66V653.74l1.44.83,97.88,56.51Z"/><polygon class="cls-4" points="498.41 654.57 498.41 665.83 496.97 666.66 496.97 653.74 498.41 654.57"/><polygon class="cls-7" points="596.29 711.08 596.29 722.34 498.41 665.83 498.41 654.57 596.29 711.08"/><polygon class="cls-7" points="498.41 654.57 498.41 665.83 496.97 666.66 496.97 653.74 498.41 654.57"/><polygon class="cls-7" points="490.87 536.75 490.87 637.41 488.47 636.02 488.47 536.75 490.87 536.75"/><polygon class="cls-12" points="604.79 602.52 604.79 703.18 602.39 701.79 602.39 602.52 604.79 602.52"/><path class="cls-12" d="M515.83,654.82h0l0,0-23.46-13.55v30.9l-1.44.82,111.52,64.38V704.79Zm-20.36-3.68,1.44-.83,102.32,59.07v16.39l-1.44.84L495.47,667.53Z"/><polygon class="cls-13" points="492.31 636.57 490.87 637.4 490.87 583.84 492.31 584.09 492.31 636.57"/><path class="cls-13" d="M352.73,512.17V556l-1.44.84v-46.2a15.42,15.42,0,0,0,1.43,1.55Z"/><polygon class="cls-13" points="236.42 436.34 236.42 488.83 234.97 489.66 234.97 436.1 236.42 436.34"/><polygon class="cls-14" points="492.31 641.24 492.31 672.14 490.87 672.96 490.87 640.41 492.31 641.24"/><polygon class="cls-13" points="602.39 700.13 602.39 701.79 565.79 680.66 517.11 652.56 492.31 638.24 490.87 637.41 492.31 636.57 567.22 679.82 567.23 679.82 602.39 700.13"/><polygon class="cls-13" points="498.41 654.57 498.41 665.83 496.97 666.66 496.97 653.74 498.41 654.57"/><polygon class="cls-13" points="599.23 709.38 599.23 725.77 597.79 726.61 597.79 710.22 599.23 709.38"/><polygon class="cls-13" points="599.23 709.38 597.79 710.22 495.47 651.14 496.91 650.31 599.23 709.38"/><polygon class="cls-13" points="596.29 722.34 596.29 724.01 496.97 666.66 498.41 665.83 596.29 722.34"/><polygon class="cls-15" points="602.39 700.13 602.39 602.52 492.31 584.09 492.31 636.57 602.39 700.13"/><polygon class="cls-4" points="56.4 399.38 56.4 410.63 54.96 411.46 54.96 398.54 56.4 399.38"/><path class="cls-12" d="M50.3,386v30.88l110.08,63.56V449.59Zm106.92,84.53-1.44.84L53.46,412.33V395.94l1.44-.83,102.32,59.07Z"/><path class="cls-12" d="M53.46,395.94v16.39l102.32,59.08V455Zm100.82,72.87L55,411.46V398.54l1.44.83,97.88,56.51Z"/><polygon class="cls-4" points="56.4 399.38 56.4 410.63 54.96 411.46 54.96 398.54 56.4 399.38"/><polygon class="cls-7" points="154.28 455.88 154.28 467.14 56.4 410.63 56.4 399.38 154.28 455.88"/><polygon class="cls-7" points="56.4 399.38 56.4 410.63 54.96 411.46 54.96 398.54 56.4 399.38"/><polygon class="cls-7" points="46.53 281.55 46.53 281.97 46.46 282.01 46.46 281.55 46.53 281.55"/><path class="cls-12" d="M162.78,400v48h0l-2.39-1.38V399.76a5.55,5.55,0,0,1,2.39.23Z"/><polygon class="cls-14" points="160.38 480.48 160.38 482.14 48.86 417.76 50.3 416.92 160.38 480.48"/><path class="cls-13" d="M50.3,336.64v44.74l-1.44.83V336.56A6.68,6.68,0,0,0,50.3,336.64Z"/><polygon class="cls-14" points="50.3 386.04 50.3 416.92 48.86 417.76 48.86 385.21 50.3 386.04"/><polygon class="cls-13" points="160.38 444.93 160.38 446.59 123.78 425.46 50.3 383.04 48.86 382.21 50.3 381.37 125.21 424.62 125.22 424.62 160.38 444.93"/><polygon class="cls-13" points="56.4 399.38 56.4 410.63 54.96 411.46 54.96 398.54 56.4 399.38"/><polygon class="cls-13" points="157.22 454.19 157.22 470.57 155.78 471.41 155.78 455.02 157.22 454.19"/><polygon class="cls-13" points="157.22 454.19 155.78 455.02 53.46 395.94 54.9 395.12 157.22 454.19"/><polygon class="cls-13" points="154.28 467.14 154.28 468.81 54.96 411.46 56.4 410.63 154.28 467.14"/><path class="cls-15" d="M160.38,399.76v45.17l-35.17-20.31L50.3,381.37V336.64c.22,0,.44,0,.65,0a5.82,5.82,0,0,1,4,1A11.15,11.15,0,0,1,58.65,341a16.27,16.27,0,0,0,5.16,4.78,8,8,0,0,0,5.37,1.33,5.82,5.82,0,0,1,4,1,11.17,11.17,0,0,1,3.69,3.46A16.49,16.49,0,0,0,82,356.33a8.07,8.07,0,0,0,5.37,1.33,5.82,5.82,0,0,1,4,1,11.15,11.15,0,0,1,3.69,3.45,16.27,16.27,0,0,0,5.16,4.78,8,8,0,0,0,5.37,1.33,5.82,5.82,0,0,1,4,1,11.17,11.17,0,0,1,3.69,3.46,16.49,16.49,0,0,0,5.16,4.78,8.07,8.07,0,0,0,5.37,1.33,5.82,5.82,0,0,1,4,1,11.15,11.15,0,0,1,3.69,3.45,16.38,16.38,0,0,0,5.16,4.78,8,8,0,0,0,5.37,1.33,5.87,5.87,0,0,1,4,1,11.31,11.31,0,0,1,3.7,3.46,16.22,16.22,0,0,0,5.15,4.78,8,8,0,0,0,5.37,1.33Z"/><polyline class="cls-3" points="348.89 590.98 302.35 564.12 302.39 454.76 348.89 489.66 348.89 590.98"/><polygon class="cls-14" points="492.31 672.14 603.83 736.52 602.39 737.34 490.87 672.96 492.31 672.14"/><path class="cls-7" d="M604.79,703.18v35.55l-2.4-1.39V704.79l-86.56-50h0l0,0-23.46-13.55-1.44-.83V673l-2.4-1.39V636l2.4,1.39,1.44.83,24.8,14.32,48.68,28.1,36.6,21.13Z"/><polyline class="cls-13" points="418.67 631.27 421.1 629.88 421.1 542.51 418.67 542.51 418.67 631.27"/><polygon class="cls-7" points="421.1 629.88 427.08 633.33 427.08 533.51 421.1 533.51 421.1 629.88"/><polygon class="cls-7" points="479.1 663.37 485.07 666.82 485.07 567 479.1 567 479.1 663.37"/><path class="cls-7" d="M302.35,483.49v80.63L300,562.73V530.18l-63.55-36.69-1.44-.83v32.55l-2.4-1.38V441.89c.23,0,.46,0,.68,0a6.26,6.26,0,0,1,1.72,0v47.76l1.44.83,27,15.56L300,527.18V482.11c.26.18.55.36.85.53a11.08,11.08,0,0,0,1.47.73v.16Z"/><path class="cls-7" d="M235,424.56V441.9a6.26,6.26,0,0,0-1.72,0c-.22,0-.45,0-.68,0V424.56Z"/><polygon class="cls-4" points="242.51 506.82 242.51 518.08 241.07 518.91 241.07 505.99 242.51 506.82"/><path class="cls-12" d="M236.41,493.49v30.88L300,561.07V530.18Zm60.39,57.67-1.44.84-55.79-32.22V503.39l1.44-.83,55.79,32.21Z"/><path class="cls-12" d="M239.57,503.39v16.39L295.36,552V535.61Zm54.29,46-52.79-30.49V506l1.44.83,51.35,29.65Z"/><polygon class="cls-4" points="242.51 506.82 242.51 518.08 241.07 518.91 241.07 505.99 242.51 506.82"/><polygon class="cls-7" points="293.86 536.47 293.86 547.73 242.51 518.08 242.51 506.82 293.86 536.47"/><polygon class="cls-7" points="242.51 506.82 242.51 518.08 241.07 518.91 241.07 505.99 242.51 506.82"/><polygon class="cls-14" points="299.96 561.07 299.96 562.73 234.97 525.21 236.41 524.37 299.96 561.07"/><polygon class="cls-14" points="236.41 493.49 236.41 524.37 234.97 525.21 234.97 492.66 236.41 493.49"/><polygon class="cls-13" points="299.96 525.52 299.96 527.18 263.36 506.05 236.41 490.49 234.97 489.66 236.41 488.82 236.42 488.83 264.79 505.21 264.8 505.21 299.96 525.52"/><polygon class="cls-13" points="242.51 506.82 242.51 518.08 241.07 518.91 241.07 505.99 242.51 506.82"/><polygon class="cls-13" points="296.8 534.77 296.8 551.16 295.36 552 295.36 535.61 296.8 534.77"/><polygon class="cls-13" points="296.8 534.77 295.36 535.61 239.57 503.39 241.01 502.56 296.8 534.77"/><polygon class="cls-13" points="293.86 547.73 293.86 549.4 241.07 518.91 242.51 518.08 293.86 547.73"/><path class="cls-7" d="M418.67,547.6v83.67l-2.4-1.39V597.33l-63.54-36.68-1.44-.83v32.55l-2.4-1.39V507.69a21,21,0,0,1,1.46,1.74c.29.39.6.79.94,1.19v46.2l1.44.83,26.94,15.55,36.6,21.13V547.08A5.28,5.28,0,0,1,418.67,547.6Z"/><polygon class="cls-4" points="358.83 573.98 358.83 585.24 357.39 586.07 357.39 573.15 358.83 573.98"/><path class="cls-12" d="M352.73,560.65v30.88l63.54,36.69V597.33Zm60.38,57.66-1.44.84-55.78-32.21V570.55l1.44-.83,55.78,32.2Z"/><path class="cls-12" d="M355.89,570.55v16.39l55.78,32.21V602.76Zm54.28,46-52.78-30.48V573.15l1.44.83,51.34,29.64Z"/><polygon class="cls-4" points="358.83 573.98 358.83 585.24 357.39 586.07 357.39 573.15 358.83 573.98"/><polygon class="cls-7" points="410.17 603.63 410.17 614.88 358.83 585.24 358.83 573.98 410.17 603.63"/><polygon class="cls-7" points="358.83 573.98 358.83 585.24 357.39 586.07 357.39 573.15 358.83 573.98"/><polygon class="cls-14" points="416.27 628.22 416.27 629.88 351.29 592.37 352.73 591.53 416.27 628.22"/><polygon class="cls-14" points="352.73 560.65 352.73 591.53 351.29 592.37 351.29 559.82 352.73 560.65"/><polygon class="cls-13" points="416.27 592.67 416.27 594.33 379.67 573.2 352.73 557.65 351.29 556.82 352.73 555.98 416.27 592.67"/><polygon class="cls-13" points="358.83 573.98 358.83 585.24 357.39 586.07 357.39 573.15 358.83 573.98"/><polygon class="cls-13" points="413.11 601.92 413.11 618.32 411.67 619.15 411.67 602.76 413.11 601.92"/><polygon class="cls-13" points="413.11 601.92 411.67 602.76 355.89 570.55 357.33 569.72 413.11 601.92"/><polygon class="cls-13" points="410.17 614.88 410.17 616.55 357.39 586.07 358.83 585.24 410.17 614.88"/><polygon class="cls-15" points="299.96 525.52 236.42 488.83 236.41 431.48 299.96 475.26 299.96 525.52"/><path class="cls-15" d="M416.27,547.08v45.59L352.73,556V512.17h0a14.73,14.73,0,0,0,2.78,2,8,8,0,0,0,5.36,1.33,5.84,5.84,0,0,1,4,1,11.17,11.17,0,0,1,3.69,3.46,16.38,16.38,0,0,0,5.16,4.78,8,8,0,0,0,5.37,1.33,5.82,5.82,0,0,1,4,1,11.25,11.25,0,0,1,3.69,3.45,16.5,16.5,0,0,0,5.16,4.79,8.07,8.07,0,0,0,5.37,1.33,5.85,5.85,0,0,1,4,.95A11.17,11.17,0,0,1,405,541a16.38,16.38,0,0,0,5.16,4.78,8,8,0,0,0,5.37,1.33Z"/><polygon class="cls-16" points="479.1 663.37 479.1 631.82 427.08 601.78 427.08 633.33 479.1 663.37"/><g class="cls-1"><polygon class="cls-17" points="424.05 550.37 423.91 601.04 423.06 600.55 423.21 549.88 424.05 550.37"/><polygon class="cls-18" points="424.05 550.37 425.11 549.75 424.96 600.43 423.91 601.04 424.05 550.37"/><polygon class="cls-19" points="423.21 549.88 424.27 549.27 425.11 549.75 424.05 550.37 423.21 549.88"/></g><polygon class="cls-15" points="427.08 601.78 479.1 631.82 479.1 567 427.08 549.27 427.08 601.78"/><polygon class="cls-7" points="488.47 567.45 488.47 671.57 482.65 668.21 482.65 564.78 488.47 567.45"/><polygon class="cls-18" points="418.67 631.27 482.65 668.21 482.65 665.42 421.1 629.88 418.67 631.27"/><polygon class="cls-20" points="462.1 597.67 445.06 587.83 445.06 572.81 462.1 582.64 462.1 597.67"/><polyline class="cls-13" points="162.77 483.52 165.2 482.13 165.2 394.76 162.77 394.76 162.77 483.52"/><polygon class="cls-7" points="165.2 482.13 171.18 485.58 171.18 385.76 165.2 385.76 165.2 482.13"/><polygon class="cls-7" points="223.19 515.62 229.17 519.07 229.17 419.25 223.19 419.25 223.19 515.62"/><polygon class="cls-16" points="223.19 515.62 223.19 484.07 171.18 454.03 171.18 485.58 223.19 515.62"/><g class="cls-1"><polygon class="cls-17" points="168.15 402.62 168.01 453.29 167.16 452.81 167.31 402.13 168.15 402.62"/><polygon class="cls-18" points="168.15 402.62 169.21 402 169.06 452.68 168.01 453.29 168.15 402.62"/><polygon class="cls-19" points="167.31 402.13 168.37 401.52 169.21 402 168.15 402.62 167.31 402.13"/></g><polygon class="cls-15" points="171.18 454.03 223.19 484.07 223.19 419.25 171.18 401.52 171.18 454.03"/><polygon class="cls-7" points="232.57 419.7 232.57 523.82 226.75 520.46 226.75 417.03 232.57 419.7"/><polygon class="cls-18" points="162.77 483.52 226.75 520.46 226.75 517.67 165.2 482.13 162.77 483.52"/><polygon class="cls-20" points="206.2 449.92 189.16 440.08 189.16 425.06 206.2 434.89 206.2 449.92"/><text class="cls-21" transform="matrix(0.87, 0.5, 0, 1, 162.59, 279.27)">G Bal<tspan class="cls-22" x="122.5" y="0">d</tspan><tspan class="cls-23" x="150.86" y="0">win &amp; Co</tspan></text><polygon class="cls-24" points="595.59 696.2 556.1 673.4 520.13 588.75 552.21 594.12 595.59 696.2"/><polygon class="cls-24" points="117.59 420.2 78.1 397.4 42.13 312.75 74.21 318.12 117.59 420.2"/><polygon class="cls-24" points="292.59 521.2 270.7 508.56 231.4 416.14 249.21 419.12 292.59 521.2"/><polygon class="cls-24" points="410.59 589.2 388.7 576.56 349.4 484.14 367.21 487.12 410.59 589.2"/><line class="cls-25" x1="556.1" y1="673.4" x2="520.13" y2="588.75"/><line class="cls-25" x1="595.59" y1="696.2" x2="552.21" y2="594.12"/><path class="cls-3" d="M604.79,550.69l.15,53.63-46.68,27C558.18,601.65,579,565.57,604.79,550.69Z"/><path class="cls-26" d="M604.79,550.69c-1.2.7-2.4,1.44-3.58,2.22q-1.08.72-2.13,1.47a84.26,84.26,0,0,0-10.3,8.8c-.36.35-.71.71-1.06,1.08a107.08,107.08,0,0,0-14.09,18.19c-.27.42-.53.86-.79,1.29l-.68,1.15c-1,1.8-2.06,3.62-3,5.47-.24.45-.46.9-.69,1.35l-.66,1.36c-.22.45-.43.9-.64,1.36-.32.68-.63,1.36-.92,2q-1.11,2.5-2.07,5c-.15.41-.31.81-.45,1.22-.34.93-.67,1.86-1,2.79-.13.39-.26.78-.38,1.17s-.25.79-.37,1.18q-.93,3.06-1.65,6.1c-.2.88-.39,1.75-.57,2.63s-.37,1.94-.53,2.91l-.15.94c0,.25-.08.5-.11.75-.07.48-.13,1-.19,1.44l-.12,1-.12,1.17c0,.31,0,.63-.08.94s-.06.77-.08,1.15,0,.56,0,.84c0,.44,0,.92-.05,1.41,0,.18,0,.37,0,.56,0,.41,0,.81,0,1.19v.37A16,16,0,0,1,556,630a16.22,16.22,0,0,1-5.15-4.78,11.29,11.29,0,0,0-3.7-3.45,5.82,5.82,0,0,0-4-1,8.07,8.07,0,0,1-5.37-1.33,16.44,16.44,0,0,1-5.15-4.78,11.31,11.31,0,0,0-3.7-3.46,5.82,5.82,0,0,0-4-1,8.89,8.89,0,0,1-1.79,0l-.28,0h0l-.44-.09a9.69,9.69,0,0,1-2.48-1l-.37-.21-.49-.29a14.08,14.08,0,0,1-1.65-1.2L517,607a16.63,16.63,0,0,1-2.09-2.29l-.45-.58a11.15,11.15,0,0,0-3.69-3.45,5.82,5.82,0,0,0-4-1,8.07,8.07,0,0,1-5.37-1.33,16.5,16.5,0,0,1-5.16-4.79,11.25,11.25,0,0,0-3.69-3.45l-.19-.1a6.91,6.91,0,0,0-1.44-.65,5.62,5.62,0,0,0-2.38-.21h0a8,8,0,0,1-5.35-1.33,16.38,16.38,0,0,1-5.16-4.78,11,11,0,0,0-3.69-3.45,5.82,5.82,0,0,0-4-1,8.07,8.07,0,0,1-5.37-1.33,16.5,16.5,0,0,1-5.16-4.79,11.25,11.25,0,0,0-3.69-3.45,5.82,5.82,0,0,0-4-1,8,8,0,0,1-5.37-1.33,16.38,16.38,0,0,1-5.16-4.78,11.17,11.17,0,0,0-3.69-3.46,5.94,5.94,0,0,0-4-1,8,8,0,0,1-5.36-1.32,16.5,16.5,0,0,1-5.16-4.79,11.15,11.15,0,0,0-3.69-3.45c-.32-.19-.62-.34-.89-.47h0a5.28,5.28,0,0,0-2.4-.52l-.7,0a8,8,0,0,1-5.37-1.33A16.38,16.38,0,0,1,405,541a11.17,11.17,0,0,0-3.69-3.46,5.85,5.85,0,0,0-4-.95,8.07,8.07,0,0,1-5.37-1.33,16.5,16.5,0,0,1-5.16-4.79,11.25,11.25,0,0,0-3.69-3.45,5.82,5.82,0,0,0-4-1,8,8,0,0,1-5.37-1.33,16.38,16.38,0,0,1-5.16-4.78,11.17,11.17,0,0,0-3.69-3.46,5.84,5.84,0,0,0-4-1,8,8,0,0,1-5.36-1.33,14.73,14.73,0,0,1-2.78-2h0a15.42,15.42,0,0,1-1.43-1.55c-.34-.4-.65-.8-.94-1.19a21,21,0,0,0-1.46-1.74,10,10,0,0,0-2.24-1.72,5.85,5.85,0,0,0-4-1,8.07,8.07,0,0,1-5.37-1.33,16.34,16.34,0,0,1-5.15-4.79,11.29,11.29,0,0,0-3.7-3.45,5.82,5.82,0,0,0-4-1,8.07,8.07,0,0,1-5.37-1.33,16.49,16.49,0,0,1-5.16-4.78,11.17,11.17,0,0,0-3.69-3.46,5.94,5.94,0,0,0-4-1,7.24,7.24,0,0,1-3.73-.52l-.09,0a.09.09,0,0,1-.07,0,11.08,11.08,0,0,1-1.47-.73c-.3-.17-.59-.35-.85-.53a16.89,16.89,0,0,1-4.31-4.26,11.09,11.09,0,0,0-3.7-3.45,5.8,5.8,0,0,0-4-1,8,8,0,0,1-5.36-1.33,16.28,16.28,0,0,1-5.16-4.79,11.19,11.19,0,0,0-3.7-3.45,5.8,5.8,0,0,0-4-1,8,8,0,0,1-5.36-1.33,16.16,16.16,0,0,1-5.16-4.78,11.21,11.21,0,0,0-3.7-3.46,5.84,5.84,0,0,0-4-.95,8.08,8.08,0,0,1-5.37-1.33,16.34,16.34,0,0,1-5.15-4.79,11.29,11.29,0,0,0-3.7-3.45,8.65,8.65,0,0,0-.84-.44h0a5.62,5.62,0,0,0-1.44-.48,6.26,6.26,0,0,0-1.72,0c-.22,0-.45,0-.68,0a8.08,8.08,0,0,1-4.69-1.36,16.49,16.49,0,0,1-5.16-4.78,11.17,11.17,0,0,0-3.69-3.46,5.93,5.93,0,0,0-4-1,8,8,0,0,1-5.37-1.32,16.34,16.34,0,0,1-5.15-4.79,11.29,11.29,0,0,0-3.7-3.45,5.81,5.81,0,0,0-4-1,8,8,0,0,1-5.37-1.33,16.22,16.22,0,0,1-5.15-4.78,11.11,11.11,0,0,0-3.7-3.46,5.91,5.91,0,0,0-4-1A8,8,0,0,1,173.2,409a16.28,16.28,0,0,1-5.16-4.79,11.19,11.19,0,0,0-3.7-3.45,8.66,8.66,0,0,0-1.56-.73h0a5.55,5.55,0,0,0-2.39-.23h0a8,8,0,0,1-5.37-1.33,16.22,16.22,0,0,1-5.15-4.78,11.31,11.31,0,0,0-3.7-3.46,5.87,5.87,0,0,0-4-1,8,8,0,0,1-5.37-1.33,16.38,16.38,0,0,1-5.16-4.78,11.15,11.15,0,0,0-3.69-3.45,5.82,5.82,0,0,0-4-1,8.07,8.07,0,0,1-5.37-1.33,16.49,16.49,0,0,1-5.16-4.78,11.17,11.17,0,0,0-3.69-3.46,5.82,5.82,0,0,0-4-1,8,8,0,0,1-5.37-1.33,16.27,16.27,0,0,1-5.16-4.78,11.15,11.15,0,0,0-3.69-3.45,5.82,5.82,0,0,0-4-1A8.07,8.07,0,0,1,82,356.33a16.49,16.49,0,0,1-5.16-4.78,11.17,11.17,0,0,0-3.69-3.46,5.82,5.82,0,0,0-4-1,8,8,0,0,1-5.37-1.33A16.27,16.27,0,0,1,58.65,341,11.15,11.15,0,0,0,55,337.57a5.82,5.82,0,0,0-4-1c-.21,0-.43,0-.65,0a6.68,6.68,0,0,1-1.44-.08,8.77,8.77,0,0,1-2.4-.81c-.28-.14-.57-.29-.88-.47a16.39,16.39,0,0,1-5.16-4.79A11.25,11.25,0,0,0,36.73,327a5.82,5.82,0,0,0-4-1,8,8,0,0,1-5.37-1.33A16.27,16.27,0,0,1,22.19,320a11.15,11.15,0,0,0-3.69-3.45,5.82,5.82,0,0,0-4-1,8.07,8.07,0,0,1-5.37-1.33A16.39,16.39,0,0,1,4,309.44a15.84,15.84,0,0,0-1.62-1.91A10.2,10.2,0,0,0,.27,306L0,305.84c1.29-29,21.52-63.06,46.38-77.46l.08,0,73.74,42.58,42.57,24.58h0l53.5,30.88,16.29,9.4,69.79,40.3,46.53,26.86,69.8,40.3,69.79,40.29h0Z"/><line class="cls-11" x1="270.7" y1="508.56" x2="231.4" y2="416.14"/></g></g></g></svg>