<svg xmlns="http://www.w3.org/2000/svg" viewBox="0 0 484.83 685.06"><defs><style>.cls-1{fill:#c9c3bc;}.cls-2{fill:#e8c199;}.cls-3{fill:#e2b27f;}.cls-4{fill:#23273f;}.cls-5{fill:#e05a5a;}.cls-6{fill:#a84444;}.cls-7{fill:#b3b1b0;}.cls-8{fill:#efecea;}.cls-9{fill:#aa855f;}.cls-10{fill:#e2dac7;}.cls-11{fill:#666;}.cls-12{fill:#999;}.cls-13{fill:#7d5eef;}.cls-14{fill:#5e47b3;}.cls-15{fill:#605956;}.cls-16{fill:#382f2c;}.cls-17{fill:#888280;}.cls-18,.cls-21{fill:none;}.cls-18{stroke:#9b9b9b;stroke-miterlimit:10;}.cls-19{fill:#d4d4d4;}.cls-20{fill:#5c5c5c;}</style></defs><title>east_market</title><g id="Layer_2" data-name="Layer 2"><g id="Layer_1-2" data-name="Layer 1"><polygon class="cls-1" points="484.82 249.91 419.89 212.43 419.89 155.12 454.85 192.25 484.82 224.07 484.82 249.91"/><polygon class="cls-2" points="484.82 249.91 354.95 324.89 354.95 299.06 419.89 261.56 462.45 237 474.57 230 484.82 224.08 484.82 249.91"/><polygon class="cls-1" points="484.82 224.07 484.82 224.08 474.57 230 462.45 237 419.89 261.56 484.81 224.07 484.82 224.07"/><polygon class="cls-1" points="419.89 62.48 290.03 137.45 290.02 137.45 268.39 124.96 268.38 124.96 268.38 124.95 256.74 118.23 246.75 112.46 246.74 112.46 246.74 112.45 225.09 99.96 181.82 74.97 311.67 0 354.95 24.99 419.89 62.48"/><polygon class="cls-3" points="354.95 299.06 354.95 324.89 290.03 287.4 290.03 230.1 324.98 267.22 354.95 299.06"/><polygon class="cls-4" points="354.95 192.61 344.72 198.53 290.03 230.1 290.03 137.45 354.95 192.61"/><polygon class="cls-1" points="290.03 137.45 290.03 287.4 181.81 224.92 181.81 74.97 290.03 137.45"/><polygon class="cls-5" points="484.82 117.64 474.57 123.55 419.89 155.12 354.95 192.61 290.03 137.45 419.89 62.48 484.82 117.64"/><polygon class="cls-1" points="484.82 117.64 484.82 129.46 474.57 123.55 484.82 117.64"/><polygon class="cls-1" points="484.81 224.07 419.89 261.56 354.95 299.06 324.98 267.22 290.03 230.1 344.72 198.53 354.95 192.61 419.89 155.12 427.1 162.78 454.85 192.25 484.81 224.07"/><polygon class="cls-1" points="484.82 224.07 484.82 224.08 474.57 230 462.45 237 419.89 261.56 484.81 224.07 484.82 224.07"/><polyline class="cls-6" points="181.81 224.92 203.45 237.41 203.45 87.47 181.81 74.97 181.81 224.92"/><polyline class="cls-7" points="203.45 237.41 225.09 249.91 225.09 99.96 203.45 87.47 203.45 237.41"/><polyline class="cls-6" points="225.09 249.91 246.73 262.4 246.73 112.46 225.09 99.96 225.09 249.91"/><polyline class="cls-7" points="246.73 262.4 268.37 274.9 268.37 124.95 246.73 112.45 246.73 262.4"/><polyline class="cls-6" points="268.37 274.9 290.01 287.39 290.01 137.44 268.37 124.95 268.37 274.9"/><polygon class="cls-5" points="311.67 0 181.81 74.97 203.45 87.47 333.31 12.49 311.67 0"/><polygon class="cls-8" points="333.31 12.49 203.45 87.47 225.09 99.96 354.95 24.99 333.31 12.49"/><polygon class="cls-5" points="354.95 24.99 225.09 99.96 246.73 112.46 376.59 37.48 354.95 24.99"/><polygon class="cls-8" points="376.59 37.48 246.73 112.46 268.38 124.95 398.23 49.98 376.59 37.48"/><polygon class="cls-5" points="398.23 49.98 268.37 124.95 290.01 137.45 419.87 62.47 398.23 49.98"/><polyline class="cls-8" points="398.24 74.97 376.58 87.48 441.52 142.63 463.17 130.13 398.24 74.97"/><polyline class="cls-8" points="354.96 99.96 333.3 112.47 398.24 167.62 419.88 155.12 354.96 99.96"/><polyline class="cls-8" points="311.67 124.95 290.01 137.46 354.95 192.61 376.6 180.11 311.67 124.95"/><polygon class="cls-9" points="484.81 224.07 419.89 261.56 354.95 299.06 324.98 267.22 290.03 230.1 344.72 198.53 354.95 192.61 419.89 155.12 427.1 162.78 454.85 192.25 484.81 224.07"/><polygon class="cls-3" points="301.89 231.84 348.44 204.97 358.68 199.05 418.51 164.51 449.43 197.35 472.94 222.33 416.17 255.12 356.33 289.67 301.89 231.84"/><polygon class="cls-6" points="354.95 192.61 354.95 204.43 344.72 198.53 290.03 166.95 290.03 137.45 354.95 192.61"/><polygon class="cls-10" points="352.18 237.18 350.47 238.17 330.45 249.73 316.24 234.64 314.53 232.83 336.27 220.28 352.18 237.18"/><polygon class="cls-11" points="330.45 249.73 330.45 252.52 314.53 235.63 314.53 232.83 316.24 234.64 330.45 249.73"/><polygon class="cls-12" points="352.18 237.18 352.18 239.98 330.45 252.52 330.45 249.73 350.47 238.17 352.18 237.18"/><polygon class="cls-10" points="381.77 221.06 380.06 222.04 360.04 233.61 345.83 218.52 344.12 216.71 365.86 204.16 381.77 221.06"/><polygon class="cls-11" points="360.04 233.61 360.04 236.4 344.12 219.5 344.12 216.71 345.83 218.52 360.04 233.61"/><polygon class="cls-12" points="381.77 221.06 381.77 223.86 360.04 236.4 360.04 233.61 380.06 222.04 381.77 221.06"/><polygon class="cls-10" points="381.77 253.3 380.06 254.29 360.04 265.85 345.83 250.76 344.12 248.95 365.86 236.4 381.77 253.3"/><polygon class="cls-11" points="360.04 265.85 360.04 268.64 344.12 251.75 344.12 248.95 345.83 250.76 360.04 265.85"/><polygon class="cls-12" points="381.77 253.3 381.77 256.1 360.04 268.64 360.04 265.85 380.06 254.29 381.77 253.3"/><polygon class="cls-10" points="419.42 240.98 417.71 241.96 397.69 253.53 383.49 238.44 381.77 236.62 403.51 224.07 419.42 240.98"/><polygon class="cls-11" points="397.69 253.53 397.69 256.32 381.77 239.42 381.77 236.62 383.49 238.44 397.69 253.53"/><polygon class="cls-12" points="419.42 240.98 419.42 243.78 397.69 256.32 397.69 253.53 417.71 241.96 419.42 240.98"/><polygon class="cls-10" points="418.03 206.95 416.32 207.94 396.3 219.5 382.09 204.41 380.38 202.6 402.12 190.05 418.03 206.95"/><polygon class="cls-11" points="396.3 219.5 396.3 222.29 380.38 205.4 380.38 202.6 382.09 204.41 396.3 219.5"/><polygon class="cls-12" points="418.03 206.95 418.03 209.75 396.3 222.29 396.3 219.5 416.32 207.94 418.03 206.95"/><polyline class="cls-5" points="354.95 204.43 354.95 192.61 484.82 117.64 484.82 129.46 427.1 162.78 419.89 166.94 354.95 204.43"/><polygon class="cls-1" points="303.01 354.88 238.08 317.4 238.08 260.09 273.04 297.22 303 329.04 303.01 354.88"/><polygon class="cls-2" points="303.01 354.88 173.14 429.86 173.14 404.03 238.08 366.54 280.64 341.97 292.76 334.97 303 329.05 303.01 354.88"/><polygon class="cls-1" points="303 329.04 303 329.05 292.76 334.97 280.64 341.97 238.08 366.54 303 329.04 303 329.04"/><polygon class="cls-1" points="238.08 167.45 108.21 242.42 108.2 242.42 86.58 229.93 86.56 229.93 86.56 229.92 74.93 223.2 64.94 217.43 64.93 217.43 64.93 217.43 43.28 204.93 0.01 179.95 129.86 104.97 173.14 129.97 238.08 167.45"/><polygon class="cls-3" points="173.14 404.03 173.14 429.86 108.21 392.37 108.21 335.07 143.17 372.19 173.14 404.03"/><polygon class="cls-4" points="173.14 297.58 162.91 303.5 108.21 335.07 108.21 242.42 173.14 297.58"/><polygon class="cls-1" points="108.21 242.42 108.21 392.37 0 329.89 0 179.94 108.21 242.42"/><polygon class="cls-13" points="303 222.61 292.76 228.52 238.08 260.09 173.14 297.58 108.21 242.42 238.08 167.45 303 222.61"/><polygon class="cls-1" points="303 222.61 303 234.43 292.76 228.52 303 222.61"/><polygon class="cls-1" points="303 329.04 238.08 366.54 173.14 404.03 143.17 372.19 108.21 335.07 162.91 303.5 173.14 297.58 238.08 260.09 245.29 267.75 273.04 297.22 303 329.04"/><polygon class="cls-1" points="303 329.04 303 329.05 292.76 334.97 280.64 341.97 238.08 366.54 303 329.04 303 329.04"/><polyline class="cls-14" points="0 329.89 21.64 342.39 21.64 192.44 0 179.94 0 329.89"/><polyline class="cls-7" points="21.64 342.39 43.28 354.88 43.28 204.93 21.64 192.44 21.64 342.39"/><polyline class="cls-14" points="43.28 354.88 64.92 367.38 64.92 217.43 43.28 204.93 43.28 354.88"/><polyline class="cls-7" points="64.92 367.38 86.56 379.87 86.56 229.92 64.92 217.43 64.92 367.38"/><polyline class="cls-14" points="86.56 379.87 108.2 392.36 108.2 242.42 86.56 229.92 86.56 379.87"/><polygon class="cls-13" points="129.86 104.97 0 179.94 21.64 192.44 151.5 117.47 129.86 104.97"/><polygon class="cls-8" points="151.5 117.47 21.64 192.44 43.28 204.94 173.14 129.96 151.5 117.47"/><polygon class="cls-13" points="173.14 129.96 43.28 204.93 64.92 217.43 194.78 142.46 173.14 129.96"/><polygon class="cls-8" points="194.78 142.46 64.92 217.43 86.56 229.92 216.42 154.95 194.78 142.46"/><polygon class="cls-13" points="216.42 154.95 86.56 229.92 108.2 242.42 238.06 167.44 216.42 154.95"/><polyline class="cls-8" points="216.43 179.94 194.77 192.45 259.71 247.6 281.36 235.1 216.43 179.94"/><polyline class="cls-8" points="173.14 204.94 151.49 217.44 216.43 272.59 238.07 260.09 173.14 204.94"/><polyline class="cls-8" points="129.86 229.93 108.2 242.43 173.14 297.58 194.78 285.08 129.86 229.93"/><polygon class="cls-9" points="303 329.04 238.08 366.54 173.14 404.03 143.17 372.19 108.21 335.07 162.91 303.5 173.14 297.58 238.08 260.09 245.29 267.75 273.04 297.22 303 329.04"/><polygon class="cls-3" points="120.08 336.82 166.63 309.94 176.87 304.02 236.69 269.48 267.62 302.32 291.13 327.3 234.35 360.09 174.52 394.64 120.08 336.82"/><polygon class="cls-14" points="173.14 297.58 173.14 309.4 162.91 303.5 108.21 271.92 108.21 242.42 173.14 297.58"/><polygon class="cls-10" points="170.37 342.15 168.66 343.14 148.64 354.7 134.43 339.61 132.72 337.8 154.46 325.25 170.37 342.15"/><polygon class="cls-11" points="148.64 354.7 148.64 357.49 132.72 340.6 132.72 337.8 134.43 339.61 148.64 354.7"/><polygon class="cls-12" points="170.37 342.15 170.37 344.95 148.64 357.49 148.64 354.7 168.66 343.14 170.37 342.15"/><polygon class="cls-10" points="199.96 326.03 198.25 327.02 178.23 338.58 164.02 323.49 162.31 321.68 184.05 309.13 199.96 326.03"/><polygon class="cls-11" points="178.23 338.58 178.23 341.37 162.31 324.48 162.31 321.68 164.02 323.49 178.23 338.58"/><polygon class="cls-12" points="199.96 326.03 199.96 328.83 178.23 341.37 178.23 338.58 198.25 327.02 199.96 326.03"/><polygon class="cls-10" points="199.96 358.27 198.25 359.26 178.23 370.82 164.02 355.74 162.31 353.92 184.05 341.37 199.96 358.27"/><polygon class="cls-11" points="178.23 370.82 178.23 373.62 162.31 356.72 162.31 353.92 164.02 355.74 178.23 370.82"/><polygon class="cls-12" points="199.96 358.27 199.96 361.07 178.23 373.62 178.23 370.82 198.25 359.26 199.96 358.27"/><polygon class="cls-10" points="237.61 345.95 235.9 346.93 215.88 358.5 201.67 343.41 199.96 341.59 221.7 329.04 237.61 345.95"/><polygon class="cls-11" points="215.88 358.5 215.88 361.29 199.96 344.39 199.96 341.59 201.67 343.41 215.88 358.5"/><polygon class="cls-12" points="237.61 345.95 237.61 348.75 215.88 361.29 215.88 358.5 235.9 346.93 237.61 345.95"/><polygon class="cls-10" points="236.22 311.92 234.5 312.91 214.48 324.47 200.28 309.38 198.56 307.57 220.31 295.02 236.22 311.92"/><polygon class="cls-11" points="214.48 324.47 214.48 327.26 198.56 310.37 198.56 307.57 200.28 309.38 214.48 324.47"/><polygon class="cls-12" points="236.22 311.92 236.22 314.72 214.48 327.26 214.48 324.47 234.5 312.91 236.22 311.92"/><polyline class="cls-13" points="173.14 309.4 173.14 297.58 303 222.61 303 234.43 245.29 267.75 238.08 271.91 173.14 309.4"/><g id="pillar_right" data-name="pillar right"><polygon class="cls-15" points="418.72 319.24 418.72 680.94 411.59 685.06 411.59 323.36 418.72 319.24"/><polygon class="cls-16" points="411.59 323.36 411.59 685.06 404.44 680.94 404.46 319.24 411.59 323.36"/><polygon class="cls-17" points="418.72 319.24 411.59 323.36 404.46 319.24 411.59 315.12 418.72 319.24"/></g><g id="pillar_left" data-name="pillar left"><polygon class="cls-15" points="78.42 122.78 78.42 484.49 71.29 488.6 71.29 126.91 78.42 122.78"/><polygon class="cls-16" points="71.29 126.91 71.29 488.6 64.15 484.49 64.16 122.78 71.29 126.91"/><polygon class="cls-17" points="78.42 122.78 71.29 126.91 64.16 122.78 71.29 118.67 78.42 122.78"/></g><g id="arc"><line class="cls-18" x1="258.23" y1="241.64" x2="258.13" y2="241.69"/><g id="circles"><g id="circ_5" data-name="circ 5"><path class="cls-1" d="M369.57,294l-8.7,24-3.24,1.87,1.34-3.7,7.37-20.29c-1.19-1.2-2.37-2.39-3.58-3.57s-2.37-2.38-3.57-3.55q-3.58-3.53-7.18-7c-.69-.67-1.37-1.32-2.06-2-1.6-1.53-3.21-3-4.82-4.55l-4-3.74c-.42-.38-.84-.78-1.26-1.15-.78-.71-1.55-1.42-2.33-2.11-1.37-1.26-2.73-2.49-4.11-3.71l.16-.15a11.63,11.63,0,0,1,4.11-.7h.11Q353.85,278.1,369.57,294Z"/><path class="cls-1" d="M369.57,294l-8.7,24-3.24,1.87,1.34-3.7,7.37-20.29c-1.19-1.2-2.37-2.39-3.58-3.57s-2.37-2.38-3.57-3.55q-3.58-3.53-7.18-7c-.69-.67-1.37-1.32-2.06-2-1.6-1.53-3.21-3-4.82-4.55l-4-3.74c-.42-.38-.84-.78-1.26-1.15-.78-.71-1.55-1.42-2.33-2.11-1.37-1.26-2.73-2.49-4.11-3.71l.16-.15a11.63,11.63,0,0,1,4.11-.7h.11Q353.85,278.1,369.57,294Z"/><path class="cls-1" d="M370.17,287h0c.16.28.32.58.47.87Z"/><path class="cls-1" d="M369.57,294l-8.7,24-3.24,1.87,1.34-3.7,7.37-20.29c-1.19-1.2-2.37-2.39-3.58-3.57s-2.37-2.38-3.57-3.55q-3.58-3.53-7.18-7c-.69-.67-1.37-1.32-2.06-2-1.6-1.53-3.21-3-4.82-4.55l-4-3.74c-.42-.38-.84-.78-1.26-1.15-.78-.71-1.55-1.42-2.33-2.11-1.37-1.26-2.73-2.49-4.11-3.71l.16-.15a11.63,11.63,0,0,1,4.11-.7h.11Q353.85,278.1,369.57,294Z"/><path class="cls-1" d="M333.55,264.41l-.16.15a.21.21,0,0,0-.08-.06Z"/><path class="cls-1" d="M369.57,294l-8.7,24-3.24,1.87,1.34-3.7,7.37-20.29c-1.19-1.2-2.37-2.39-3.58-3.57s-2.37-2.38-3.57-3.55q-3.58-3.53-7.18-7c-.69-.67-1.37-1.32-2.06-2-1.6-1.53-3.21-3-4.82-4.55l-4-3.74c-.42-.38-.84-.78-1.26-1.15-.78-.71-1.55-1.42-2.33-2.11-1.37-1.26-2.73-2.49-4.11-3.71l.16-.15a11.63,11.63,0,0,1,4.11-.7h.11Q353.85,278.1,369.57,294Z"/></g><g id="circ_1" data-name="circ 1"><path class="cls-1" d="M134.48,150.17q-2.92-.76-5.84-1.44l-3.32-.77c-.72-.17-1.45-.33-2.16-.48q-2.22-.49-4.41-.93c-.8-.18-1.6-.32-2.39-.48l-.73-.14c-1.16-.22-2.31-.44-3.47-.64-1.31-.23-2.61-.47-3.92-.68s-2.59-.42-3.88-.61l3.24-1.87q12.2,1.81,24.6,4.79h0c.45.59.9,1.21,1.32,1.82S134.17,149.69,134.48,150.17Z"/><path class="cls-1" d="M134.48,150.17q-2.92-.76-5.84-1.44l-3.32-.77c-.72-.17-1.45-.33-2.16-.48q-2.22-.49-4.41-.93c-.8-.18-1.6-.32-2.39-.48l-.73-.14c-1.16-.22-2.31-.44-3.47-.64-1.31-.23-2.61-.47-3.92-.68s-2.59-.42-3.88-.61l3.24-1.87q12.2,1.81,24.6,4.79h0c.45.59.9,1.21,1.32,1.82S134.17,149.69,134.48,150.17Z"/><path class="cls-1" d="M110.26,128.4l-.34-.05c.21,0,.41.07.62.12Z"/><path class="cls-1" d="M134.48,150.17q-2.92-.76-5.84-1.44l-3.32-.77c-.72-.17-1.45-.33-2.16-.48q-2.22-.49-4.41-.93c-.8-.18-1.6-.32-2.39-.48l-.73-.14c-1.16-.22-2.31-.44-3.47-.64-1.31-.23-2.61-.47-3.92-.68s-2.59-.42-3.88-.61l3.24-1.87q12.2,1.81,24.6,4.79h0c.45.59.9,1.21,1.32,1.82S134.17,149.69,134.48,150.17Z"/><path class="cls-1" d="M125.51,193.46l-2-.42h0Z"/><path class="cls-1" d="M134.48,150.17q-2.92-.76-5.84-1.44l-3.32-.77c-.72-.17-1.45-.33-2.16-.48q-2.22-.49-4.41-.93c-.8-.18-1.6-.32-2.39-.48l-.73-.14c-1.16-.22-2.31-.44-3.47-.64-1.31-.23-2.61-.47-3.92-.68s-2.59-.42-3.88-.61l3.24-1.87q12.2,1.81,24.6,4.79h0c.45.59.9,1.21,1.32,1.82S134.17,149.69,134.48,150.17Z"/></g><g id="circ_2" data-name="circ 2"><path class="cls-1" d="M194,171.37h0q-1.23-.57-2.46-1.11Z"/><path class="cls-1" d="M196.57,176.75l-.08-.16h0A1,1,0,0,1,196.57,176.75Z"/><path class="cls-1" d="M194,171.37h0q-1.23-.57-2.46-1.11Z"/><path class="cls-1" d="M196.57,176.75l-.08-.16h0A1,1,0,0,1,196.57,176.75Z"/><path class="cls-1" d="M187.49,213.63a.36.36,0,0,1-.15,0h0l.13.08-.08-.06Zm-22-12.51c.45.5.9,1,1.36,1.45h0C166.35,202.1,165.9,201.62,165.45,201.12ZM170.27,145l-.5-.17,1.1.42C170.68,145.14,170.47,145.06,170.27,145Zm26.24,31.61h0l.08.16A1,1,0,0,0,196.51,176.59Z"/><path class="cls-1" d="M194,171.37h0q-1.23-.57-2.46-1.11Z"/><path class="cls-1" d="M196.57,176.75l-.08-.16h0A1,1,0,0,1,196.57,176.75Z"/><path class="cls-1" d="M165.45,201.12c.45.5.9,1,1.37,1.45h0C166.35,202.1,165.9,201.62,165.45,201.12Z"/><path class="cls-1" d="M187.49,213.63h-.14v0A.36.36,0,0,0,187.49,213.63Z"/><path class="cls-1" d="M194,171.37h0q-1.23-.57-2.46-1.11Z"/><path class="cls-1" d="M196.57,176.75l-.08-.16h0A1,1,0,0,1,196.57,176.75Z"/><path class="cls-1" d="M157.3,144.28l-.54.21h0a13.47,13.47,0,0,0-1.66.82l2-1.13Z"/></g><g id="circ_3" data-name="circ 3"><path class="cls-1" d="M235.42,176.21s0,0,0,0h0c.48.3,1,.61,1.46.93C236.34,176.79,235.88,176.49,235.42,176.21Z"/><path class="cls-1" d="M216.61,211h0c-.13-.27-.25-.56-.36-.84A8.93,8.93,0,0,0,216.61,211Z"/><path class="cls-1" d="M216.61,211h0c-.13-.27-.25-.56-.36-.84A8.93,8.93,0,0,0,216.61,211Z"/><path class="cls-1" d="M216.61,211h0c-.13-.27-.25-.56-.36-.84A8.93,8.93,0,0,0,216.61,211Z"/><path class="cls-1" d="M216.61,211h0c-.13-.27-.25-.56-.36-.84A8.93,8.93,0,0,0,216.61,211Z"/><path class="cls-1" d="M216.61,211h0c-.13-.27-.25-.56-.36-.84A8.93,8.93,0,0,0,216.61,211Z"/><path class="cls-1" d="M220.12,171.88a.15.15,0,0,0-.09,0,8.85,8.85,0,0,0-.9.12q-.49.07-1,.18l-.93.25-.53.17c-.25.08-.48.16-.72.26a13.76,13.76,0,0,1,2.83-1.69Z"/><path class="cls-1" d="M234,175.39l-.37-.19c-1.39-.82-2.79-1.62-4.18-2.4Q231.74,174.08,234,175.39Z"/><path class="cls-1" d="M236.81,177.11c-.48-.32-1-.63-1.46-.93h0s0,0,0,0C235.88,176.49,236.34,176.79,236.81,177.11Z"/></g><g id="circ_4" data-name="circ 4"><path class="cls-1" d="M277.11,252.25h0l-.15-.32Z"/><path class="cls-1" d="M277.11,252.25h0l-.15-.32Z"/><path class="cls-1" d="M277,251.93l.16.32h0Z"/><path class="cls-1" d="M314.48,279.71c-.26.21-.52.41-.79.6a3.56,3.56,0,0,0-.31-.26.94.94,0,0,0,.24-.06A8.63,8.63,0,0,0,314.48,279.71Z"/><path class="cls-1" d="M277.11,252.25h0l-.15-.32Z"/><path class="cls-1" d="M277.11,252.25h0l-.15-.32Z"/><path class="cls-1" d="M315.76,282l-1.54.89a10,10,0,0,0,1.44-1S315.72,282,315.76,282Z"/></g></g><polygon class="cls-19" points="369.57 294 360.87 317.99 357.63 319.86 358.97 316.15 366.34 295.87 369.57 294"/><path class="cls-20" d="M196.51,176.59h0l.08.16A1,1,0,0,0,196.51,176.59Zm19.73,33.55c.11.28.23.57.36.84h0A8.93,8.93,0,0,1,216.24,210.14ZM277,251.93l.15.32h0ZM313.62,280a.94.94,0,0,1-.24.06,3.56,3.56,0,0,1,.31.26c.27-.19.53-.39.79-.6A8.63,8.63,0,0,1,313.62,280Z"/><path class="cls-19" d="M196.57,176.75l-.08-.16h0A1,1,0,0,1,196.57,176.75Z"/><path class="cls-19" d="M216.61,211h0c-.13-.27-.25-.56-.36-.84A8.93,8.93,0,0,0,216.61,211Z"/><path class="cls-19" d="M362.06,296.8l-6,16.44q-13-12.53-26.27-24.06h0c-1.44-1.26-2.9-2.5-4.34-3.73-.9-.78-1.81-1.56-2.71-2.32L319,280l-.77-.64-1.91-1.58Q295.6,260.62,274.49,246c-1.59-1.11-3.19-2.21-4.78-3.29l-3-2c-1.42-1-2.85-1.9-4.27-2.85l-1.52-1-2.1-1.37Q237.73,221.93,216.61,211h0a8.93,8.93,0,0,1-.37-.84c.11.28.23.57.36.84q-2.53-1.32-5-2.56v0l-3.11-1.54c-1.25-.62-2.51-1.23-3.77-1.83L202.46,204c-.77-.36-1.52-.72-2.28-1.06a392.4,392.4,0,0,0-40.55-16.38c-1.68-.57-3.35-1.12-5-1.67q-1.58-.51-3.15-1c-.75-.25-1.5-.47-2.25-.71l-2.81-.83c-.8-.25-1.6-.48-2.4-.71q-14.1-4.06-27.91-6.7l-6.75-26.37q13.8,2.36,27.87,6.17c1.08.29,2.18.59,3.26.9,1.59.45,3.18.9,4.77,1.38l2.13.64,2.36.73c1,.3,1.92.6,2.89.92a382.77,382.77,0,0,1,43.87,17.3h0l.08.16a1,1,0,0,0-.06-.16c1.09.49,2.18,1,3.28,1.54l4.66,2.24h0l3.2,1.58,2.23,1.12c.79.39,1.58.8,2.37,1.21a507,507,0,0,1,46.27,27.07h0c1.06.69,2.12,1.39,3.19,2.11,1.41.94,2.82,1.88,4.23,2.86,1.11.75,2.23,1.51,3.34,2.29.67.45,1.34.92,2,1.39l1.71,1.19q23.26,16.33,46.16,35.85h0c1,.81,1.92,1.63,2.88,2.47,1.19,1,2.39,2.05,3.58,3.1l2.53,2.22,1.86,1.65c.33.29.66.59,1,.87Q346.71,281.4,362.06,296.8Z"/><path class="cls-1" d="M124.24,190.62l-.68,2.41h0a2,2,0,0,1-.37-.21,8.58,8.58,0,0,1-.83-.46l-.21-.13c-.23-.13-.47-.28-.7-.43-.7-.43-1.39-.89-2.09-1.39-.47-.33-.93-.68-1.38-1h0c-.72-.56-1.44-1.15-2.15-1.79-.32-.27-.64-.56-1-.85l-1-.89c-.34-.33-.7-.68-1-1s-.85-.88-1.27-1.34-.71-.76-1-1.14l-.6-.71c-.4-.45-.77-.91-1.13-1.38s-.63-.78-.93-1.18c-.18-.23-.36-.45-.52-.69s-.48-.64-.71-1c-.67-.94-1.32-1.91-2-2.89-.14-.25-.3-.5-.45-.76-.49-.77-1-1.56-1.41-2.36l-.53-1c-.17-.31-.34-.62-.5-.95s-.37-.73-.56-1.1a2.17,2.17,0,0,1-.12-.26c-.13-.27-.27-.55-.39-.82s-.35-.72-.51-1.07c-.23-.52-.45-1.05-.68-1.57-.36-.89-.72-1.78-1-2.7-.13-.34-.25-.67-.36-1s-.23-.67-.34-1-.18-.54-.25-.81l-.07-.22c-.1-.31-.19-.63-.28-.95q-.27-1-.51-1.92c-1.7-6.95-1.75-13.12-.43-18,0,0,0,0,0,0a13.91,13.91,0,0,1,1.86-3.19,10.52,10.52,0,0,1,4.8-3.51,11.6,11.6,0,0,0-1.56,1.64c-3.77,4.82-4.61,13-2.29,22.51.13.55.28,1.1.44,1.67s.32,1.13.51,1.7.34,1.07.52,1.6.33.91.51,1.37c.39,1.08.84,2.15,1.32,3.21.12.3.26.58.39.87q.72,1.54,1.53,3.06c.22.43.45.87.7,1.28s.48.85.73,1.26.49.84.75,1.24c.55.92,1.14,1.79,1.74,2.65.21.3.42.59.61.88a61.82,61.82,0,0,0,4.61,5.65c.27.3.54.58.81.85a43,43,0,0,0,4,3.77c.25.22.51.42.75.62s.78.62,1.17.91l1,.67c.68.48,1.37.93,2,1.33C123.55,190.24,123.9,190.43,124.24,190.62Z"/><path class="cls-19" d="M134.48,150.17q-2.92-.76-5.84-1.44c-1.11-.27-2.22-.53-3.32-.77-.72-.17-1.45-.33-2.16-.48q-2.22-.49-4.41-.93c-.8-.18-1.6-.32-2.39-.48l-.73-.14c-1.16-.22-2.31-.44-3.47-.64-1.31-.23-2.61-.47-3.92-.68s-2.59-.42-3.88-.61l3.24-1.87q12.2,1.81,24.6,4.79h0c.45.59.9,1.21,1.32,1.82S134.17,149.69,134.48,150.17Z"/><path class="cls-20" d="M405.39,321.76q-15-17.49-30.46-33.63Q367.51,280.39,360,273c-.33-.34-.65-.67-1-1s-.46-.47-.71-.69l-.27-.26q-5.58-5.49-11.18-10.75Q331.61,246,316.08,233.06h0c-5.56-4.64-11.13-9.11-16.72-13.47l-.19-.15-.31-.25-.62-.47q-5.42-4.2-10.87-8.25-17.67-13.1-35.48-24.3h0s0,0,0,0q-2.59-1.63-5.19-3.22c-1.13-.7-2.26-1.39-3.4-2.07L239,178.28l-2-1.16-1.57-.91c.46.28.92.58,1.39.9-.48-.32-1-.63-1.46-.93l0,0a.15.15,0,0,1-.06,0l-.08-.05h0A.6.6,0,0,0,235,176l-.33-.19-.05,0s0,0,0,0l-.2-.11a2.6,2.6,0,0,1-.36-.21l-.37-.19c-1.39-.82-2.79-1.62-4.18-2.4-1.7-1-3.4-1.91-5.1-2.84h-.06q-18.94-10.35-37.77-18.41s0,0,0,0h0q-7.85-3.33-15.62-6.27h0l-1.1-.42h0c-2.59-1-5.17-1.91-7.75-2.81h0a329.65,329.65,0,0,0-37.36-10.74h0c-4.72-1.06-9.4-2-14.07-2.78-.21-.05-.41-.09-.62-.12-1.84-.32-3.67-.61-5.51-.88h0a249.6,249.6,0,0,0-40.24-2.87c-1.09,0-2.17,0-3.24.05v65.76q1.61,0,3.24-.06a264.07,264.07,0,0,1,62.89,7.2,1.11,1.11,0,0,1,.29.08,347.79,347.79,0,0,1,51.9,16.62l.1,0a446.54,446.54,0,0,1,55.29,27.2,554.52,554.52,0,0,1,55.3,36.65,662,662,0,0,1,52.14,43.51,775.9,775.9,0,0,1,63.14,65.67c1.06,1.22,2.1,2.44,3.14,3.67V325.23ZM370.17,287l.45.87c-.15-.29-.31-.59-.47-.87,0-.1-.09-.2-.14-.28A2,2,0,0,0,370.17,287Zm-56.6-51.23.15.13q3.52,2.92,7,6c6.64,5.69,13.22,11.55,19.66,17.54h0c1,.9,1.95,1.8,2.91,2.71-.16-.06-.34-.1-.5-.15a19.4,19.4,0,0,0-4.95-.71,13,13,0,0,0-2.08.11l-.58.08h0l-.75.14c-.26.06-.51.11-.74.18a5,5,0,0,0-.63.19c-.27.08-.53.18-.79.28s-.69.3-1,.46c-2-1.78-4-3.53-6-5.25-1.43-1.24-2.87-2.48-4.3-3.68-.12-.5-.25-1-.38-1.47s-.23-.82-.36-1.23-.32-1-.49-1.54c-.1-.33-.22-.67-.33-1s-.24-.65-.36-1c-.38-1-.79-2.07-1.23-3.1-.21-.51-.45-1-.68-1.54-.71-1.56-1.5-3.11-2.34-4.64-.53-1-1.08-1.9-1.66-2.83Zm11.92,49.67c-.9-.78-1.81-1.56-2.71-2.32L319,280l-.77-.64-1.91-1.58Q295.6,260.62,274.49,246c-1.59-1.11-3.19-2.21-4.78-3.29l-3-2c-1.42-1-2.85-1.9-4.27-2.85l-1.52-1-2.1-1.37Q237.73,221.93,216.61,211h0q-2.53-1.32-5-2.56v0l-3.11-1.54c-1.25-.62-2.51-1.23-3.77-1.83L202.46,204c-.77-.36-1.52-.72-2.28-1.06a392.4,392.4,0,0,0-40.55-16.38c-1.68-.57-3.35-1.12-5-1.67q-1.58-.51-3.15-1c-.75-.25-1.5-.47-2.25-.71l-2.81-.83c-.8-.25-1.6-.48-2.4-.71q-14.1-4.06-27.91-6.7l-6.75-26.37q13.8,2.36,27.87,6.17c1.08.29,2.18.59,3.26.9,1.59.45,3.18.9,4.77,1.38l2.13.64,2.36.73c1,.3,1.92.6,2.89.92a382.77,382.77,0,0,1,43.87,17.3h0c1.09.49,2.18,1,3.28,1.54l4.66,2.24h0l3.2,1.58,2.23,1.12c.79.39,1.58.8,2.37,1.21a507,507,0,0,1,46.27,27.07h0c1.06.69,2.12,1.39,3.19,2.11,1.41.94,2.82,1.88,4.23,2.86,1.11.75,2.23,1.51,3.34,2.29.67.45,1.34.92,2,1.39l1.71,1.19q23.26,16.33,46.16,35.85h0c1,.81,1.92,1.63,2.88,2.47,1.19,1,2.39,2.05,3.58,3.1l2.53,2.22,1.86,1.65c.33.29.66.59,1,.87q15.68,14,31,29.41l-6,16.44q-13-12.53-26.27-24.06h0C328.39,287.91,326.93,286.67,325.49,285.44Zm-39.56-70.22c.15,0,.31.08.48.13l1,.3c.46.14.94.32,1.41.5h0q8.54,6.42,17,13.27h0c.46.54.89,1.1,1.32,1.66.3.38.58.75.86,1.14s.71,1,1,1.45.68,1,1,1.48.6.91.88,1.38.56.9.82,1.35.69,1.18,1,1.79c.82,1.49,1.57,3,2.28,4.54v0c.17.38.33.75.49,1.13s.33.76.48,1.14.38,1,.55,1.43c.39,1,.73,2,1,3-.84-.71-1.69-1.42-2.53-2.11-.66-.56-1.34-1.12-2-1.66q-1.74-1.44-3.48-2.84c-1.16-1-2.33-1.89-3.48-2.81q-3.48-2.79-7-5.51c-.69-.55-1.4-1.09-2.1-1.62-1.86-1.43-3.71-2.85-5.57-4.25l-2.09-1.58q-7.33-5.47-14.68-10.63c-.32-.22-.64-.44-1-.68.22-.18.44-.35.67-.51s.4-.27.61-.4a1.75,1.75,0,0,1,.27-.16.6.6,0,0,1,.16-.08,6.61,6.61,0,0,1,.64-.34l.22-.1.21-.08.43-.17s0,0,0,0h0a10.9,10.9,0,0,1,1.3-.4,12.7,12.7,0,0,1,3.12-.36A18.14,18.14,0,0,1,285,215C285.3,215.06,285.62,215.13,285.93,215.22ZM249.47,189l1.32.81c2.24,1.42,4.48,2.85,6.72,4.33,7.91,5.16,15.88,10.66,23.8,16.44l2.25,1.66h-.08l-1-.09a15.65,15.65,0,0,0-4.77.39,13.45,13.45,0,0,0-2,.64,9.26,9.26,0,0,0-1.11.51,12.8,12.8,0,0,0-2.94,2.07c-1.14-.79-2.28-1.56-3.43-2.34l-3.41-2.3h0q-2.41-1.63-4.85-3.22c-.2-.55-.41-1.09-.63-1.65s-.33-.84-.52-1.26c-.07-.19-.16-.39-.25-.59s-.17-.38-.25-.58c-.2-.45-.41-.89-.62-1.35h0l-.65-1.36c-.22-.45-.46-.9-.69-1.35-.47-.91-1-1.8-1.48-2.7-.35-.59-.69-1.17-1-1.74-.18-.3-.38-.61-.59-.92-.32-.52-.64-1-1-1.5-.46-.68-.93-1.35-1.41-2l-.7-1c-.25-.32-.51-.64-.75-1Zm-26.88-14.74c.4,0,.8.06,1.21.11s.9.12,1.37.22h0c5.48,3,11,6.23,16.49,9.53,0,0,0,0,0,0h0a0,0,0,0,0,0,0,0,0,0,0,0,0,0c.24.23.49.46.75.72l.53.53c.5.51,1,1,1.49,1.58.37.39.73.8,1.08,1.22a5.93,5.93,0,0,1,.47.53c.15.17.3.35.44.53.39.45.76.91,1.12,1.38.57.71,1.11,1.45,1.64,2.2q.57.78,1.11,1.59l.56.83c.64,1,1.24,1.95,1.82,2.95.31.54.61,1.09.91,1.63s.51.93.74,1.4.44.89.65,1.33c.42.85.81,1.7,1.18,2.56,0,.07.05.13.08.19a.71.71,0,0,1,.08.18h0c-1.57-1-3.16-2-4.75-3s-3.17-2-4.76-3L243,197.21l-2.61-1.57q-6.86-4.08-13.7-7.85c-.85-.48-1.71-.95-2.56-1.41q-2.9-1.59-5.78-3.09l-2.5-1.32c-.83-.43-1.65-.86-2.49-1.28h0c-.59-.3-1.19-.61-1.8-.9.15-.23.31-.46.47-.68s.25-.34.37-.49a11.76,11.76,0,0,1,1.23-1.31L214,177a3.57,3.57,0,0,1,.38-.3,11,11,0,0,1,2.94-1.64,12.65,12.65,0,0,1,4.48-.78Zm-37.5-19.35c2.57,1.09,5.16,2.24,7.76,3.42,8.59,3.89,17.29,8.18,26,12.83l1.3.69a.15.15,0,0,0-.09,0,8.85,8.85,0,0,0-.9.12q-.49.07-1,.18l-.93.25-.53.17c-.25.08-.48.16-.72.26a14,14,0,0,0-1.51.73l-.16.1a12.81,12.81,0,0,0-3.07,2.42,14.44,14.44,0,0,0-2,2.52c-2.19-1.1-4.37-2.17-6.57-3.22a.75.75,0,0,0-.13-.06l-2.31-1.1c-.88-.43-1.77-.83-2.66-1.24l0-.07c-.36-.72-.72-1.43-1.1-2.15s-.74-1.36-1.13-2a.55.55,0,0,0-.08-.15c-.35-.63-.72-1.26-1.12-1.87-.19-.35-.4-.68-.62-1l-.13-.2c-.28-.45-.58-.88-.87-1.31s-.66-1-1-1.43a62.82,62.82,0,0,0-6.82-8ZM160,146.1l.44-.06a4.17,4.17,0,0,1,.71-.08,4.24,4.24,0,0,1,.51,0,1.88,1.88,0,0,1,.34,0h.07c5,1.78,10.11,3.73,15.32,5.84h0c.76.54,1.49,1.13,2.23,1.74.14.1.26.21.39.32,1.1.94,2.2,1.95,3.26,3l.73.75c.54.55,1.06,1.12,1.56,1.7l.8.91c.31.36.6.72.9,1.09s.78,1,1.15,1.45.75,1,1.12,1.5c.62.88,1.23,1.77,1.81,2.68.9,1.39,1.75,2.81,2.52,4.26a.63.63,0,0,1,.1.2h0q-1.23-.57-2.46-1.11Q184.22,167,177,164.14c-1-.42-2.07-.83-3.11-1.22-1.33-.52-2.66-1-4-1.52-.6-.24-1.22-.47-1.83-.69-.83-.31-1.65-.61-2.48-.9,0,0,0,0,0,0-1-.34-1.91-.69-2.87-1l-4.17-1.44a.11.11,0,0,0-.08,0c-1.76-.6-3.53-1.18-5.28-1.75l-2.48-.78c.14-.41.29-.79.45-1.16s.26-.58.41-.86.18-.35.27-.51a4,4,0,0,1,.3-.53l.25-.41c.12-.18.24-.37.37-.54s.14-.19.23-.29a.2.2,0,0,1,.07-.1,5.6,5.6,0,0,1,.48-.59,11,11,0,0,1,4.54-3.16A13.37,13.37,0,0,1,160,146.1Zm-35.79-11.16c2.32.53,4.68,1.09,7,1.68,8.52,2.12,17.16,4.66,25.77,7.57l.28.09-.54.21h0a13.47,13.47,0,0,0-1.66.82,14.6,14.6,0,0,0-5.69,6.22,15.28,15.28,0,0,0-1.07,2.51c-1.74-.52-3.47-1-5.21-1.53s-3.4-1-5.1-1.42c-.68-1.12-1.38-2.2-2.12-3.27a62.21,62.21,0,0,0-4.5-5.82,52.48,52.48,0,0,0-7.57-7.15Zm-11.35,56-1.33-.23c-1-.19-2-.35-3-.5-.77-.14-1.53-.26-2.3-.37-3-.49-6-.9-9-1.26-1.28-.16-2.55-.31-3.82-.44-1-.12-2-.21-3-.31l-2.77-.25c-.92-.09-1.84-.16-2.77-.22-1.35-.11-2.71-.2-4-.27-1-.06-2-.12-3-.16s-2.31-.1-3.45-.14h-.08l-3.51-.08c-1.3,0-2.59,0-3.89,0H64.61V128.29h3.24a248.84,248.84,0,0,1,31.33,2.17c-6.37,4.37-8.87,14.55-5.73,27.42a63.83,63.83,0,0,0,17.69,30.3q1.76,1.66,3.57,3.07C114.09,191.14,113.49,191,112.87,190.91Zm25.09,2.9a2,2,0,0,1-.45.29l-.3.18a9,9,0,0,1-1.61.72c-.31.11-.63.21-.95.29s-.53.12-.8.17h0l-2.43-.62c-2-.48-3.92-.93-5.87-1.38l-2-.42h0a2,2,0,0,1-.37-.21,8.58,8.58,0,0,1-.83-.46l-.21-.13c-.23-.13-.47-.28-.7-.43-.7-.43-1.39-.89-2.09-1.39-.47-.33-.93-.68-1.38-1h0c-.72-.56-1.44-1.15-2.15-1.79-.32-.27-.64-.56-1-.85l-1-.89c-.34-.33-.7-.68-1-1s-.85-.88-1.27-1.34-.71-.76-1-1.14l-.6-.71c-.4-.45-.77-.91-1.13-1.38s-.63-.78-.93-1.18c-.18-.23-.36-.45-.52-.69s-.48-.64-.71-1c-.67-.94-1.32-1.91-2-2.89-.14-.25-.3-.5-.45-.76-.49-.77-1-1.56-1.41-2.36l-.53-1c-.17-.31-.34-.62-.5-.95s-.37-.73-.56-1.1a2.17,2.17,0,0,1-.12-.26c-.13-.27-.27-.55-.39-.82s-.35-.72-.51-1.07c-.23-.52-.45-1.05-.68-1.57-.36-.89-.72-1.78-1-2.7-.13-.34-.25-.67-.36-1s-.23-.67-.34-1-.18-.54-.25-.81l-.07-.22c-.1-.32-.2-.63-.28-.95q-.27-1-.51-1.92c-1.7-6.95-1.75-13.12-.43-18,0,0,0,0,0,0a13.91,13.91,0,0,1,1.86-3.19,10.52,10.52,0,0,1,4.8-3.51h0a5,5,0,0,1,.55-.17h.07l.28,0c4.39.65,8.81,1.43,13.22,2.3h0l.14.07c.26.14.52.27.77.43l.24.14c.27.15.53.31.79.47.7.43,1.4.9,2.1,1.4.38.27.77.54,1.14.84s.64.48,1,.75.7.57,1.06.89l.67.59c.22.2.45.39.67.6l.58.54c.18.18.38.36.56.56s.47.45.71.7c.71.72,1.4,1.45,2.08,2.23.45.53.91,1.06,1.34,1.6l1.12,1.41c.06.08.12.18.2.27h0c.45.59.9,1.21,1.32,1.82s.65.94,1,1.42q-2.92-.76-5.84-1.44l-3.32-.77c-.72-.17-1.45-.33-2.16-.48q-2.22-.49-4.41-.93c-.8-.18-1.6-.32-2.39-.48l-.73-.14c-1.16-.22-2.31-.44-3.47-.64-1.31-.23-2.61-.47-3.92-.68s-2.59-.42-3.88-.61l8.73,34.12q15,2.73,30.32,7.14c-.09.37-.19.74-.3,1.1a1.22,1.22,0,0,1-.09.27c-.11.35-.23.71-.37,1.06a1.63,1.63,0,0,1-.14.34,7.17,7.17,0,0,1-.36.81,2.53,2.53,0,0,1-.18.37s0,0,0,0c-.17.35-.37.67-.55,1a11.73,11.73,0,0,1-2.44,2.85h0a8.5,8.5,0,0,1-1,.72ZM155,201.57c-1.12-.37-2.24-.73-3.36-1.07q-2.4-.76-4.79-1.46l-2.21-.65c-1-.3-2-.59-3-.86l-3.47-.95.48-.26a11.58,11.58,0,0,0,1.56-1.06c.27-.21.53-.43.79-.66a14.31,14.31,0,0,0,2.51-3.07,18.88,18.88,0,0,0,2.16-5.12v0c0-.13.07-.28.11-.43.81.23,1.61.48,2.43.73,1.79.55,3.6,1.11,5.4,1.7a69.5,69.5,0,0,0,8.4,12.54,60,60,0,0,0,4.13,4.42C162.41,204,158.7,202.75,155,201.57Zm36.1,11.68a9.56,9.56,0,0,1-1.23.24c-.21,0-.43.06-.65.08h-.09l-.33,0c-.32,0-.64,0-1,0h-.5l.08.06-.13-.08h-.07q-7.15-3-14.27-5.74a.06.06,0,0,0-.05,0c-.07,0-.11-.09-.16-.12l-1.41-1.07c-.2-.16-.4-.32-.6-.5-.9-.72-1.78-1.51-2.65-2.34-.42-.4-.84-.82-1.26-1.24a0,0,0,0,0,0,0h0c-.46-.47-.91-.95-1.36-1.45-.33-.35-.67-.73-1-1.1l-.09-.1c-.53-.61-1.05-1.22-1.55-1.86s-.85-1.07-1.26-1.63-1-1.33-1.45-2L159,192.8c-.38-.58-.73-1.16-1.08-1.74s-.55-.91-.81-1.38a.58.58,0,0,1-.11-.18q2.76.92,5.54,1.89,18.1,6.36,36.43,14.93v0a14,14,0,0,1-2.74,4c-.25.23-.5.47-.75.68s-.5.39-.76.58-.53.34-.8.5l-.35.19a4,4,0,0,1-.36.18,3.06,3.06,0,0,1-.49.22,6.7,6.7,0,0,1-1.06.38A4,4,0,0,1,191.12,213.25ZM213.79,226q-6.76-3.44-13.53-6.57c-.71-.34-1.41-.67-2.13-1-1-.44-1.93-.89-2.9-1.32s-1.72-.77-2.57-1.14l-.27-.13-.56-.24h0a14.12,14.12,0,0,0,3.34-1.36l.44-.27h0l.3-.2.07,0c.26-.18.51-.36.74-.55A12.51,12.51,0,0,0,198,212.1c.19-.19.37-.38.55-.58s.27-.3.39-.46.42-.5.62-.77.38-.54.55-.83a11,11,0,0,0,.58-1l0,0c.15-.28.3-.58.45-.88,0-.06.06-.13.08-.19.57.26,1.14.53,1.7.81q3.66,1.74,7.32,3.59h0a71,71,0,0,0,6.5,12.18,63.35,63.35,0,0,0,4.38,5.83C218.68,228.51,216.23,227.22,213.79,226Zm31.69,16.84h0l-1.13-.18-.66-.14h0c-1.86-1.12-3.73-2.22-5.59-3.3L232.5,236q-2.19-1.25-4.38-2.44h0l0,0v0c-.29-.25-.58-.53-.86-.81s-.5-.48-.75-.73c-.42-.4-.84-.83-1.25-1.28s-.81-.87-1.21-1.33c-.84-.95-1.64-1.92-2.42-2.92a.12.12,0,0,1,0-.05h0c-.32-.42-.65-.85-1-1.28l-.58-.8c-.23-.31-.44-.63-.68-1-.43-.63-.85-1.27-1.25-1.91-.27-.42-.55-.83-.8-1.27s-.68-1.13-1-1.7-.79-1.39-1.15-2.09c-.21-.39-.4-.79-.6-1.18s-.51-1-.74-1.53a1.4,1.4,0,0,1-.09-.17c1.91,1,3.83,2,5.74,3h0q18.74,9.94,37.5,22.07h0a.26.26,0,0,1-.07.1s-.06.06-.1.1a3.38,3.38,0,0,1-.31.37,5.41,5.41,0,0,1-.53.54,5.15,5.15,0,0,1-.64.59s0,0,0,0a9.19,9.19,0,0,1-1.59,1.1l-.52.28a5.05,5.05,0,0,1-.53.24,10.54,10.54,0,0,1-1.63.58l-.58.14h0l-.11,0h0a1.32,1.32,0,0,1-.26,0c-.26.05-.53.1-.8.13a16.52,16.52,0,0,1-3.71,0Zm29.09,19.71-.24-.17c-1.31-.92-2.62-1.81-3.92-2.7-1.79-1.23-3.59-2.44-5.38-3.63-1.6-1.08-3.22-2.14-4.82-3.17-.33-.22-.66-.44-1-.65q-2.18-1.42-4.36-2.79c-.49-.32-1-.63-1.45-.92-1.66-1.06-3.34-2.09-5-3.12a14.47,14.47,0,0,0,4.68-1,13,13,0,0,0,1.81-.85l.1-.06v0a12.52,12.52,0,0,0,1.52-1c.29-.23.6-.49.88-.76l0,0a.67.67,0,0,0,.14-.15l.15-.14a8.5,8.5,0,0,0,.72-.75l.58-.71.86.56c2.72,1.79,5.44,3.6,8.15,5.46a66.16,66.16,0,0,0,3.24,8.45c.42.89.85,1.77,1.31,2.65a67.51,67.51,0,0,0,4.18,7C276,263.55,275.3,263,274.57,262.54Zm27.88,19.23c-.55-.13-1.09-.29-1.64-.47s-.9-.32-1.36-.5l0,0c-1.3-1-2.59-2-3.9-3q-4.39-3.36-8.82-6.59c-1-.73-1.95-1.44-2.94-2.15l0,0q-1.78-2-3.4-4.2c-.18-.22-.35-.46-.51-.69-.9-1.24-1.77-2.54-2.58-3.86h0a64.48,64.48,0,0,1-3.73-6.89l-.63-1.37-.56-1.37c-.32-.79-.63-1.58-.92-2.37,1.91,1.31,3.8,2.64,5.71,4l-.15-.32.16.32q18.24,12.92,36.27,27.8a.94.94,0,0,0,.24-.06,8.63,8.63,0,0,0,.86-.28c-.26.21-.52.41-.79.6l-.69.45a5.28,5.28,0,0,1-.58.3,6.49,6.49,0,0,1-.59.29c-.22.1-.45.18-.69.27l-.24.08a4.3,4.3,0,0,1-.58.18,10.09,10.09,0,0,1-1.85.35c-.22,0-.44,0-.68.08s-.48,0-.74,0h-.24a14.47,14.47,0,0,1-2-.12c-.35,0-.69-.1-1-.16A13,13,0,0,1,302.45,281.77Zm53.08,45.69c-.5-.18-1-.38-1.51-.61a7.48,7.48,0,0,1-.81-.39,9,9,0,0,1-1-.49,4.5,4.5,0,0,1-.43-.23h0l0,0h0c-3.77-3.59-7.58-7.11-11.38-10.56-1.06-1-2.11-1.91-3.17-2.84-.21-.21-.43-.4-.64-.58h0s0,0,0,0l-.58-.5c-.91-.83-1.84-1.64-2.76-2.45-1.11-1-2.23-2-3.34-2.94l-2.72-2.35q-8.19-7.1-16.46-13.76c-1.85-1.51-3.71-3-5.57-4.46l-.72-.57a16.75,16.75,0,0,0,5.45-.12,13.59,13.59,0,0,0,4.4-1.61,10,10,0,0,0,1.44-1s.06,0,.1.07c2.59,2.15,5.16,4.33,7.74,6.54,1.06.9,2.1,1.82,3.15,2.73,1.82,1.57,3.63,3.17,5.46,4.79q12.86,11.4,25.52,23.78l1.34-3.7,7.37-20.29c-1.19-1.2-2.37-2.39-3.58-3.57s-2.37-2.38-3.57-3.55q-3.58-3.53-7.18-7c-.69-.67-1.37-1.32-2.06-2-1.6-1.53-3.21-3-4.82-4.55l-4-3.74c-.42-.38-.84-.78-1.26-1.15-.78-.71-1.54-1.41-2.33-2.11-1.37-1.26-2.73-2.49-4.11-3.71a.21.21,0,0,0-.08-.06l.24-.09a11.63,11.63,0,0,1,4.11-.7h.19a5.85,5.85,0,0,1,.71,0c.3,0,.6,0,.91.07a3.44,3.44,0,0,1,.45.05l.41.06a20.15,20.15,0,0,1,2.31.53c.26.07.53.16.79.25l.53.18c.24.09.49.17.73.28s.46.18.69.29a9.68,9.68,0,0,1,.94.42l1.05.51,1.18.64v0c5.48,5.22,11,10.64,16.47,16.19l0,0c.63,1,1.25,1.92,1.82,2.92.2.34.41.69.6,1,.7,1.22,1.34,2.47,1.93,3.72.41.84.79,1.68,1.14,2.53a13.3,13.3,0,0,1,.51,1.26c.36.85.67,1.68.95,2.53.16.42.3.85.42,1.27.27.84.52,1.69.75,2.53a48.35,48.35,0,0,1,1.06,5c.07.41.14.81.17,1.22.1.8.19,1.6.24,2.39a31,31,0,0,1-.22,6.58c-.12.69-.24,1.34-.39,2s-.33,1.27-.54,1.89a13.51,13.51,0,0,1-3.9,6.09,11,11,0,0,1-7.43,2.58,13.41,13.41,0,0,1-1.88-.13l-.28,0h0l-.29-.05c-.24,0-.46-.06-.69-.11s-.68-.14-1-.22-.63-.16-.95-.26-.56-.16-.83-.26S355.77,327.56,355.53,327.46ZM404.65,381c-1.33-1.53-2.64-3-4-4.56-.93-1.07-1.88-2.13-2.83-3.19q-2.34-2.64-4.72-5.25l-1.84-2c-1-1.16-2.1-2.3-3.17-3.45q-8-8.69-16.18-17c-.18-.19-.36-.37-.55-.54a.61.61,0,0,0-.16-.16c-.75-.79-1.51-1.57-2.29-2.33-1.29-1.32-2.6-2.62-3.9-3.92q-2.53-2.52-5.09-5c-1.08-1.06-2.17-2.12-3.25-3.14a19.19,19.19,0,0,0,6,.79,13.41,13.41,0,0,0,8.11-2.84,15.6,15.6,0,0,0,5-7.47c.15-.45.28-.9.41-1.37.23-.87.43-1.79.58-2.72.09-.62.17-1.25.23-1.9s.07-1,.1-1.55c0-.86,0-1.75,0-2.65q-.06-1.83-.3-3.72c-.1-.8-.22-1.6-.37-2.41s-.35-1.84-.58-2.76c-.09-.41-.19-.8-.3-1.21,0-.23-.12-.48-.19-.71s-.2-.71-.31-1.06-.19-.66-.29-1-.29-.88-.45-1.33-.25-.76-.4-1.14-.25-.69-.4-1-.35-.92-.55-1.39-.38-.92-.59-1.38-.36-.79-.54-1.18a1.76,1.76,0,0,0-.09-.2c.17.18.32.32.48.5,2,2.13,4.1,4.29,6.13,6.47l0,0c8.15,8.68,16.24,17.71,24.18,27l2.06,2.43Z"/><path class="cls-19" d="M137.09,193.59l-3.24,1.87h0l-2.43-.62c-2-.48-3.92-.93-5.87-1.38l-2-.43.68-2.41Q130.63,192,137.09,193.59Z"/><path class="cls-20" d="M336.52,311.67l-.58-.5c-.93-.84-1.84-1.65-2.76-2.45-1.11-1-2.23-2-3.34-2.94a63.35,63.35,0,0,1-3.6-7.76c-.16-.4-.32-.82-.46-1.24a52.26,52.26,0,0,1-2.28-8.22c1.06.9,2.1,1.82,3.15,2.73.23.92.5,1.84.8,2.77.2.63.42,1.25.64,1.88s.42,1.12.64,1.69.44,1.11.69,1.66q.52,1.23,1.11,2.4v0c.21.43.42.87.64,1.3l.68,1.3c.28.53.58,1,.89,1.57s.6,1.05.92,1.55q.94,1.54,2,3C335.92,310.87,336.22,311.27,336.52,311.67Z"/><path class="cls-1" d="M259.88,240.5a13.49,13.49,0,0,1-1.75,1.19L255,243.48a12.52,12.52,0,0,0,1.52-1c.29-.23.6-.49.88-.76l0,0a.67.67,0,0,0,.14-.15l.15-.14a8.5,8.5,0,0,0,.72-.75l.58-.71Z"/><path class="cls-1" d="M202.92,208.19a14.6,14.6,0,0,1-1.7,2,12.85,12.85,0,0,1-2.78,2.13c-.15.1-.31.18-.47.27L195.64,214l.3-.2.07,0c.26-.18.51-.36.74-.55A12.51,12.51,0,0,0,198,212.1c.19-.19.37-.38.55-.58s.27-.3.39-.46.42-.5.62-.77.38-.54.55-.83a11,11,0,0,0,.58-1l0,0c.15-.28.3-.58.45-.88,0-.06.06-.13.08-.19C201.79,207.64,202.36,207.91,202.92,208.19Z"/><path class="cls-1" d="M195.5,211c-.25.21-.5.39-.76.58s-.53.34-.8.5l-.35.19a4,4,0,0,1-.36.18,3.06,3.06,0,0,1-.49.22,6.7,6.7,0,0,1-1.06.38,4,4,0,0,1-.56.17,9.56,9.56,0,0,1-1.23.24c-.21,0-.43.06-.65.08h-.09l-.33,0c-.32,0-.64,0-1,0h-.36a.36.36,0,0,1-.15,0h0l3.11-1.87h.1a5.72,5.72,0,0,0,.59,0A13,13,0,0,0,195.5,211Z"/><path class="cls-1" d="M139,193.09a8.5,8.5,0,0,1-1,.72h0a4.82,4.82,0,0,1-.45.29l-.3.18a9,9,0,0,1-1.61.72c-.31.11-.63.21-.95.29s-.53.12-.8.17l3.24-1.87A11.31,11.31,0,0,0,139,193.09Z"/><path class="cls-1" d="M141.23,149.22,138,151.1c-.68-1.12-1.38-2.2-2.12-3.27a62.21,62.21,0,0,0-4.5-5.82,52.48,52.48,0,0,0-7.57-7.15l.41.08c2.32.53,4.68,1.09,7,1.68,1.14,1.1,2.28,2.27,3.37,3.52A64.88,64.88,0,0,1,141.23,149.22Z"/><path class="cls-19" d="M149.38,151.54a15.28,15.28,0,0,0-1.07,2.51c-1.74-.52-3.47-1-5.21-1.53s-3.4-1-5.1-1.42l3.23-1.88C143.94,150,146.66,150.71,149.38,151.54Z"/><path class="cls-1" d="M158,146.63a14.25,14.25,0,0,0-1.3,1.28c-.17.2-.33.4-.49.61a7,7,0,0,0-.47.64c-.11.16-.21.32-.31.48s-.21.33-.31.5c-.19.34-.38.69-.55,1.06s-.24.51-.35.77-.21.53-.3.8l-.07.13-3.22,1.88c.14-.41.29-.79.45-1.16s.26-.58.41-.86.18-.35.27-.51a4,4,0,0,1,.3-.53l.25-.41c.12-.18.24-.37.37-.54s.14-.19.23-.29a.2.2,0,0,1,.07-.1,5.6,5.6,0,0,1,.48-.59A11,11,0,0,1,158,146.63Z"/><path class="cls-19" d="M194,171.37l-2.46-1.1Q184.22,167,177,164.14c-1-.42-2.07-.83-3.11-1.22-1.33-.52-2.66-1-4-1.52-.6-.24-1.22-.47-1.83-.69-.83-.31-1.65-.61-2.48-.9,0,0,0,0,0,0-1-.36-1.91-.7-2.87-1-1.4-.51-2.78-1-4.17-1.44a.11.11,0,0,0-.08,0c-1.76-.6-3.53-1.18-5.28-1.75l-2.48-.78,3.22-1.88a371.33,371.33,0,0,1,37.5,14c.9,1.39,1.75,2.81,2.52,4.26A.63.63,0,0,1,194,171.37Z"/><path class="cls-1" d="M200.84,171.14,197.58,173c-.36-.72-.72-1.43-1.1-2.15s-.74-1.36-1.13-2a.55.55,0,0,0-.08-.15c-.35-.63-.72-1.26-1.12-1.87-.19-.35-.4-.68-.62-1l-.13-.2c-.28-.45-.58-.88-.87-1.31s-.66-1-1-1.43a62.82,62.82,0,0,0-6.82-8l.37.16c2.57,1.09,5.16,2.24,7.76,3.42.65.82,1.3,1.69,1.93,2.56A68.35,68.35,0,0,1,200.84,171.14Z"/><path class="cls-19" d="M211.25,176.13a14.44,14.44,0,0,0-2,2.52c-2.19-1.1-4.37-2.17-6.57-3.22a.75.75,0,0,0-.13-.06l-2.31-1.1c-.88-.43-1.77-.83-2.66-1.24l0-.07,3.26-1.82C204.3,172.75,207.78,174.41,211.25,176.13Z"/><path class="cls-1" d="M283.56,212.27h-.08l-1-.09a15.65,15.65,0,0,0-4.77.39,13.45,13.45,0,0,0-2,.64,12.41,12.41,0,0,1,1.55-1,13.89,13.89,0,0,1,3.69-1.47l.35-.07Z"/><path class="cls-1" d="M379.06,319c-1.63,4.76-4.55,7.88-8.27,9.34a15.6,15.6,0,0,0,5-7.47c.15-.45.28-.9.41-1.37.23-.87.43-1.79.58-2.72.09-.62.17-1.25.23-1.9s.07-1,.1-1.55c0-.86,0-1.75,0-2.65q-.06-1.83-.3-3.72c-.1-.8-.22-1.6-.37-2.41s-.35-1.84-.58-2.76c-.08-.41-.18-.8-.3-1.21,0-.23-.12-.48-.19-.71s-.2-.71-.31-1.06-.19-.66-.29-1-.29-.88-.45-1.33-.27-.76-.4-1.14-.25-.69-.4-1-.35-.92-.55-1.39-.38-.92-.59-1.38-.36-.79-.54-1.18a1.76,1.76,0,0,0-.09-.2c.17.18.32.32.48.5,2,2.13,4.1,4.29,6.13,6.47l0,0C380.75,305.16,381.14,312.93,379.06,319Z"/><path class="cls-1" d="M338.62,308.2c.36.54.74,1.07,1.13,1.6l-3.23,1.87c-.3-.39-.58-.8-.87-1.21q-1-1.48-2-3c-.32-.5-.63-1-.92-1.55s-.61-1-.89-1.57l-.68-1.3c-.22-.43-.43-.87-.64-1.3v0q-.58-1.17-1.11-2.4c-.23-.55-.47-1.11-.69-1.66s-.43-1.12-.64-1.69-.44-1.25-.64-1.88c-.3-.93-.57-1.85-.8-2.77,1.82,1.57,3.63,3.17,5.46,4.79.12.32.25.63.38.93s.24.58.38.87c.21.49.43,1,.66,1.45s.31.67.49,1,.41.86.65,1.29.53,1,.82,1.52c0,0,0,.05.05.08.21.4.43.78.67,1.17l.07.14c.11.18.22.38.35.56.29.5.59,1,.91,1.47.17.28.34.55.53.83Z"/><path class="cls-1" d="M369.59,326.19a11,11,0,0,1-7.43,2.58,13.41,13.41,0,0,1-1.88-.13l-.28,0h0l-.29-.05c-.24,0-.46-.06-.69-.11s-.68-.14-1-.22-.63-.16-.95-.26-.56-.16-.83-.26l-.69-.25c-.5-.18-1-.38-1.51-.61l-.81-.39-1-.49,2.8-2.1h0a28.22,28.22,0,0,0,3.79,1.74h0a5.49,5.49,0,0,0,.57.2l.12,0a4.19,4.19,0,0,0,.46.16l.59.18h0l.59.15.13,0a4.64,4.64,0,0,0,.51.11h0l.7.14.39.06h0a7.06,7.06,0,0,0,.77.1H364a4.44,4.44,0,0,0,.62.05l.75,0A12,12,0,0,0,369.59,326.19Z"/><path class="cls-19" d="M256.39,205.58c-1.59-1-3.16-2-4.75-3s-3.17-2-4.76-3c-1.3-.82-2.61-1.62-3.91-2.39l-2.61-1.57q-6.86-4.08-13.7-7.85c-.85-.48-1.71-.95-2.56-1.41q-2.9-1.59-5.78-3.09c-.84-.46-1.66-.89-2.5-1.32s-1.65-.86-2.49-1.28h0c-.59-.3-1.19-.61-1.8-.9l3.24-1.89q19.42,9.84,38.9,22c.26.47.51.93.74,1.4s.44.89.65,1.33c.42.85.81,1.7,1.18,2.56,0,.07.05.13.08.19Z"/><path class="cls-1" d="M217.29,175a4.4,4.4,0,0,0-.46.4l-.3.29a7,7,0,0,0-.59.62,4.14,4.14,0,0,0-.39.46l-.22.28c-.19.26-.37.52-.56.8l-3.24,1.89c.15-.23.31-.46.47-.68s.25-.34.37-.49a11.76,11.76,0,0,1,1.23-1.31L214,177a3.57,3.57,0,0,1,.38-.3A11,11,0,0,1,217.29,175Z"/><path class="cls-19" d="M256.4,205.58h0l-.07-.18A.71.71,0,0,1,256.4,205.58Z"/><path class="cls-19" d="M274.61,213.71a12.8,12.8,0,0,0-2.94,2.07c-1.15-.79-2.28-1.57-3.43-2.34s-2.27-1.55-3.41-2.3h0q-2.41-1.63-4.85-3.22l3.24-1.88C267,208.52,270.82,211.08,274.61,213.71Z"/><path class="cls-1" d="M263.22,206v0L260,207.91c-.2-.55-.41-1.09-.63-1.65s-.33-.84-.52-1.26c-.07-.19-.16-.39-.25-.59s-.17-.38-.25-.58c-.2-.45-.41-.89-.62-1.35h0l-.65-1.36c-.22-.45-.46-.9-.69-1.35-.47-.91-1-1.8-1.48-2.7-.35-.59-.69-1.17-1-1.74-.18-.3-.38-.61-.59-.92-.32-.52-.64-1-1-1.5-.46-.68-.93-1.35-1.41-2l-.7-1c-.25-.32-.51-.64-.75-1l.06,0,1.32.81c2.24,1.42,4.48,2.85,6.72,4.33.21.33.42.67.62,1A67.5,67.5,0,0,1,263.22,206Z"/><path class="cls-19" d="M317.61,250.91c-.84-.71-1.69-1.42-2.53-2.11-.66-.56-1.34-1.12-2-1.66q-1.74-1.44-3.48-2.84c-1.16-1-2.33-1.89-3.48-2.81q-3.48-2.81-7-5.51c-.69-.55-1.4-1.09-2.1-1.62q-2.78-2.16-5.57-4.25l-2.09-1.58q-7.33-5.47-14.68-10.63c-.32-.22-.64-.44-1-.68l3.21-1.84s0,0,0,0h0q19.14,13.35,38.06,28.86v0c.17.38.33.75.49,1.13s.33.76.48,1.14.38,1,.55,1.43C317,248.93,317.3,249.91,317.61,250.91Z"/><path class="cls-20" d="M277,215.38l-3.21,1.84c.22-.18.44-.35.67-.51s.4-.27.61-.4a1.75,1.75,0,0,1,.27-.16.6.6,0,0,1,.16-.08,6.61,6.61,0,0,1,.64-.34l.22-.1.21-.08Z"/><path class="cls-1" d="M343.33,262.11c-.16-.06-.34-.1-.5-.15a19.4,19.4,0,0,0-4.95-.71,13,13,0,0,0-2.08.11l-.58.08h0l-.75.14c-.26.06-.51.11-.74.18a5,5,0,0,0-.63.19c-.27.08-.53.18-.79.28a12.2,12.2,0,0,1,2.22-1.4,13.58,13.58,0,0,1,5.89-1.43h0C341.39,260.3,342.37,261.2,343.33,262.11Z"/><path class="cls-19" d="M334.52,260.83a12.2,12.2,0,0,0-2.22,1.4c-.34.14-.69.3-1,.46-2-1.78-4-3.53-6-5.25-1.43-1.24-2.87-2.48-4.3-3.68l3.24-1.88Q329.39,256.26,334.52,260.83Z"/><path class="cls-1" d="M324.21,251.88,321,253.76c-.12-.5-.25-1-.38-1.47s-.23-.82-.36-1.23-.32-1-.49-1.54c-.1-.33-.22-.67-.33-1s-.24-.65-.36-1c-.38-1-.79-2.07-1.23-3.1-.21-.51-.45-1-.68-1.54-.71-1.56-1.5-3.11-2.34-4.64-.53-1-1.08-1.9-1.66-2.83l.43.34.15.13q3.52,2.92,7,6A60.43,60.43,0,0,1,324.21,251.88Z"/><path class="cls-19" d="M369.57,294l-3.23,1.87c-1.19-1.2-2.37-2.39-3.58-3.57s-2.37-2.38-3.57-3.55q-3.58-3.53-7.18-7c-.69-.67-1.37-1.32-2.06-2-1.6-1.53-3.21-3-4.82-4.55-1.35-1.25-2.69-2.51-4-3.74-.42-.38-.84-.78-1.26-1.15-.78-.71-1.55-1.42-2.33-2.11-1.37-1.26-2.73-2.49-4.11-3.71a.21.21,0,0,0-.08-.06l.24-.09a11.63,11.63,0,0,1,4.11-.7h.11Q353.85,278.1,369.57,294Z"/><path class="cls-19" d="M110.54,128.47c-.21-.05-.41-.09-.62-.12l.34.05Z"/><path class="cls-19" d="M170.87,145.23l-1.1-.42.5.17C170.47,145.06,170.68,145.14,170.87,145.23Z"/><path class="cls-19" d="M411.59,323.36l-3.24,1.87-3-3.47q-15-17.49-30.46-33.63Q367.51,280.39,360,273c-.33-.35-.65-.67-1-1s-.46-.47-.71-.69l-.27-.26q-5.58-5.49-11.18-10.75Q331.61,246,316.08,233.06h0c-5.56-4.64-11.13-9.11-16.72-13.47l-.19-.15-.31-.25-.62-.47q-5.42-4.2-10.87-8.25-17.67-13.1-35.48-24.3h0s0,0,0,0q-2.59-1.63-5.19-3.22c-1.13-.7-2.26-1.41-3.4-2.07-1.43-.88-2.86-1.74-4.28-2.56l-2-1.16c-.53-.32-1-.63-1.57-.91,0,0,0,0,0,0h0l0,0a.15.15,0,0,1-.06,0l-.08-.05h0A.6.6,0,0,0,235,176l-.33-.19-.05,0s0,0,0,0l-.2-.11a2.6,2.6,0,0,1-.36-.21q-2.28-1.32-4.55-2.59c-1.7-1-3.4-1.91-5.1-2.84h-.06q-18.94-10.35-37.77-18.41s0,0,0,0h0q-7.85-3.33-15.62-6.27h0c-.19-.09-.4-.17-.6-.25l-.5-.17h0c-2.59-1-5.17-1.91-7.75-2.81h0a329.65,329.65,0,0,0-37.36-10.74h0c-4.72-1.06-9.4-2-14.07-2.78l-.28-.07-.34-.05c-1.84-.32-3.67-.61-5.51-.88h0a249.6,249.6,0,0,0-40.24-2.87c-1.09,0-2.17,0-3.24.05l3.24-1.87a252.4,252.4,0,0,1,49.34,3.75A326.71,326.71,0,0,1,173.07,143l.12.05.32.11.39.16s0,0,0,0A432.77,432.77,0,0,1,237,173.39h0l.85.48A566.93,566.93,0,0,1,302,217.27c.07,0,.13.11.21.16s.32.25.46.38.14.12.21.16a689.66,689.66,0,0,1,59,51.91c.09.09.19.17.27.26.35.34.69.69,1,1.05q22.56,22.19,44.23,47.38Q409.56,321,411.59,323.36Z"/><path class="cls-19" d="M67.85,128.29v56.49l-3.24,1.87V128.29h3.24Z"/><path class="cls-19" d="M114.71,191.25c-.62-.11-1.22-.24-1.84-.34l-1.33-.23c-1-.19-2-.35-3-.5-.77-.14-1.53-.26-2.3-.37-3-.49-6-.9-9-1.26-1.28-.16-2.55-.31-3.82-.44-1-.12-2-.21-3-.31l-2.77-.25c-.92-.09-1.84-.16-2.77-.22-1.35-.11-2.71-.2-4-.27-1-.06-2-.12-3-.16s-2.31-.1-3.45-.14h-.08c-1.17,0-2.34-.07-3.51-.08s-2.59,0-3.89,0H64.61l3.24-1.87h2.28a256.44,256.44,0,0,1,41,3.41Q112.9,189.84,114.71,191.25Z"/><path class="cls-19" d="M125.51,193.46l-2-.42h0Z"/><path class="cls-1" d="M148.19,186.68a16.49,16.49,0,0,1-1.46,3,13.71,13.71,0,0,1-4.83,4.78l-.48.28-2.79,1.6a11.58,11.58,0,0,0,1.56-1.06c.27-.21.53-.43.79-.66a14.31,14.31,0,0,0,2.51-3.07,18.88,18.88,0,0,0,2.16-5.12v0c0-.13.07-.28.11-.43C146.57,186.18,147.37,186.43,148.19,186.68Z"/><path class="cls-19" d="M166.12,205.34c-3.71-1.33-7.42-2.59-11.1-3.77-1.12-.37-2.24-.73-3.36-1.07q-2.4-.76-4.79-1.46l-2.21-.65c-1-.3-2-.59-3-.86l-3.47-.95.48-.26,2.79-1.6q10.22,2.72,20.57,6.2A60,60,0,0,0,166.12,205.34Z"/><path class="cls-1" d="M176.15,206l-3.24,1.87c-.07,0-.11-.09-.16-.12l-1.41-1.07c-.2-.16-.4-.32-.6-.5-.9-.72-1.78-1.51-2.65-2.34-.42-.4-.84-.82-1.26-1.24a0,0,0,0,0,0,0c-.47-.47-.92-.95-1.37-1.45-.33-.35-.67-.73-1-1.1l-.09-.1c-.53-.61-1.05-1.22-1.55-1.86s-.85-1.07-1.26-1.63-1-1.33-1.45-2L159,192.8c-.38-.58-.73-1.16-1.08-1.74s-.55-.91-.81-1.38a.58.58,0,0,1-.11-.18q2.76.92,5.54,1.89l.65,1c.19.29.38.57.59.85.56.79,1.14,1.58,1.74,2.34.15.2.3.38.46.58s.4.51.61.75.41.51.62.74c.52.62,1.06,1.22,1.61,1.81.33.37.68.74,1,1.1l.77.79c1,1,2.06,1.94,3.12,2.82.16.15.33.28.5.42C174.89,205,175.52,205.52,176.15,206Z"/><path class="cls-19" d="M190.41,211.74l-3.11,1.87h-.07q-7.15-3-14.27-5.74a.06.06,0,0,0-.05,0l3.24-1.87h0C180.92,207.79,185.62,209.71,190.41,211.74Z"/><path class="cls-19" d="M187.35,213.63l.08.06-.13-.08h0a.36.36,0,0,0,.15,0Z"/><path class="cls-19" d="M221.12,229.8c-2.44-1.31-4.89-2.58-7.33-3.81q-6.76-3.44-13.53-6.57c-.71-.34-1.41-.67-2.13-1-1-.44-1.93-.89-2.9-1.32s-1.72-.77-2.57-1.14l-.27-.13-.56-.24h0a14.12,14.12,0,0,0,3.34-1.36l.44-.27h0q10.52,4.64,21.1,10A63.35,63.35,0,0,0,221.12,229.8Z"/><path class="cls-1" d="M231.28,231.65l-3.16,1.93h0l0,0v0c-.29-.25-.58-.53-.86-.81s-.5-.48-.75-.73c-.42-.41-.84-.85-1.25-1.28s-.81-.87-1.21-1.33c-.84-.95-1.64-1.92-2.42-2.92a.07.07,0,0,1,0-.05h0c-.32-.42-.65-.85-1-1.28l-.58-.8c-.23-.31-.44-.63-.68-1-.43-.63-.85-1.27-1.25-1.91-.27-.42-.55-.83-.8-1.27s-.68-1.13-1-1.7-.79-1.39-1.15-2.09c-.21-.39-.4-.79-.6-1.18s-.51-1-.74-1.53a1.4,1.4,0,0,1-.09-.17c1.91,1,3.83,2,5.74,3h0c.07.1.11.2.18.3.62,1.11,1.3,2.19,2,3.26.32.49.66,1,1,1.48.17.25.33.48.5.71.46.64.92,1.27,1.4,1.89s1,1.22,1.45,1.82c.28.36.58.7.89,1.05s.77.88,1.17,1.32.69.73,1,1.09.44.47.67.69c.49.49,1,1,1.51,1.44,0,0,0,0,.05.05h0S231.28,231.65,231.28,231.65Z"/><path class="cls-19" d="M221.53,226.42a.07.07,0,0,0,0,.05.12.12,0,0,1,0-.05Z"/><path class="cls-19" d="M246.87,240.63l-3.21,1.88h0c-1.86-1.12-3.73-2.22-5.59-3.3L232.5,236q-2.19-1.25-4.38-2.44l3.16-1.93q5,2.76,10,5.68Q244.08,239,246.87,240.63Z"/><path class="cls-1" d="M255.26,240.31a9.19,9.19,0,0,1-1.59,1.1l-.52.28a5.05,5.05,0,0,1-.53.24,10.54,10.54,0,0,1-1.63.58l-.58.14h0l-.11,0h0a1.32,1.32,0,0,1-.26,0c-.26.05-.53.1-.8.13a16.52,16.52,0,0,1-3.71,0h0l-1.13-.18-.66-.14,3.21-1.88h0l.15,0a4.74,4.74,0,0,0,.49.1,6.69,6.69,0,0,0,.74.12l.59.09,1.11.09.78,0A13,13,0,0,0,255.26,240.31Z"/><path class="cls-19" d="M276.76,264.07c-.72-.52-1.46-1-2.19-1.53l-.24-.17c-1.31-.92-2.62-1.81-3.92-2.7-1.79-1.23-3.59-2.44-5.38-3.63-1.6-1.08-3.22-2.14-4.82-3.17-.33-.22-.66-.44-1-.65q-2.18-1.42-4.36-2.79c-.49-.32-1-.63-1.45-.92-1.66-1.06-3.34-2.09-5-3.12a14.47,14.47,0,0,0,4.68-1q9.75,6,19.5,12.65A67.51,67.51,0,0,0,276.76,264.07Z"/><path class="cls-1" d="M287.05,267.23l-3.29,1.82,0,0q-1.78-2-3.4-4.2c-.18-.22-.35-.46-.51-.69-.9-1.24-1.77-2.54-2.58-3.86h0a64.48,64.48,0,0,1-3.73-6.89l-.63-1.37-.56-1.37c-.32-.79-.63-1.58-.92-2.37,1.91,1.31,3.8,2.64,5.71,4h0c.22.48.46.95.7,1.42s.43.85.67,1.27c.48.91,1,1.81,1.54,2.7.24.41.5.83.77,1.25s.61.95.93,1.42c.49.75,1,1.5,1.55,2.23l.44.6c.36.47.72.95,1.09,1.41s.65.82,1,1.22.81,1,1.22,1.42c0,0,0,0,0,0Z"/><path class="cls-19" d="M302.7,278.93l-3.28,1.85c-1.3-1-2.59-2-3.9-3q-4.39-3.36-8.82-6.59c-1-.73-1.95-1.44-2.94-2.15l3.29-1.82C292.27,271,297.51,274.92,302.7,278.93Z"/><path class="cls-1" d="M313.69,280.31l-.69.45a5.28,5.28,0,0,1-.58.3,6.49,6.49,0,0,1-.59.29c-.22.1-.45.18-.69.27l-.24.08a4.3,4.3,0,0,1-.58.18,10.09,10.09,0,0,1-1.85.35c-.22,0-.44,0-.68.08s-.48,0-.74,0h-.24a14.47,14.47,0,0,1-2-.12c-.35,0-.69-.1-1-.16a13,13,0,0,1-1.35-.29c-.55-.14-1.1-.3-1.64-.47s-.9-.32-1.36-.5l0,0,3.28-1.85a19.91,19.91,0,0,0,7.35,1.54c.29,0,.57,0,.86,0a.37.37,0,0,0,.18,0l.31,0s0,0,0,0c.32,0,.62-.06.93-.12s.63-.12.93-.2a.14.14,0,0,0,.09,0A3.56,3.56,0,0,1,313.69,280.31Z"/><path class="cls-19" d="M329.84,305.78c-.91-.8-1.81-1.58-2.72-2.35q-8.19-7.1-16.46-13.76c-1.85-1.51-3.71-3-5.57-4.46l-.72-.57a16.75,16.75,0,0,0,5.45-.12q8.26,6.57,16.42,13.5A63.35,63.35,0,0,0,329.84,305.78Z"/><path class="cls-19" d="M355,323.87l-2.8,2.1a4.5,4.5,0,0,1-.43-.23h0l0,0h0c-3.77-3.59-7.58-7.11-11.38-10.56-1.06-1-2.11-1.91-3.17-2.84-.21-.21-.43-.4-.64-.58h0s0,0,0,0l3.23-1.87Q347.45,316.67,355,323.87Z"/><path class="cls-19" d="M404.65,375.45V381c-1.33-1.53-2.64-3-4-4.56-.93-1.07-1.88-2.13-2.83-3.19-1.55-1.76-3.13-3.51-4.72-5.25l-1.84-2c-1-1.16-2.1-2.3-3.17-3.45q-8-8.69-16.18-17c-.18-.19-.36-.37-.55-.54a.61.61,0,0,0-.16-.16c-.75-.79-1.51-1.57-2.29-2.33-1.29-1.32-2.6-2.62-3.9-3.92q-2.53-2.52-5.09-5c-1.08-1.06-2.17-2.12-3.25-3.14a19.19,19.19,0,0,0,6,.79Q384.17,352.14,404.65,375.45Z"/><polygon class="cls-19" points="411.59 323.36 411.59 389.12 408.35 390.99 408.35 325.23 411.59 323.36"/><line class="cls-21" x1="123.56" y1="193.04" x2="123.56" y2="193.03"/></g><g id="text"><path d="M111.94,156l2.11.45,4.55,11h0l-.08-10,2,.43,4.8,11.05h0L125,158.86l2,.45.19,13.66-1.86-.41-5-11.31h0l0,10.2-1.86-.4Z"/><path d="M128.68,159.77l7.23,1.89.46,2.21-5.29-1.38.76,3.63,5,1.3.44,2.14-5-1.31.84,4,5.57,1.45.47,2.25L131.66,174Z"/><path d="M138.3,162.33l2,.56,2.29,12,4.68,1.35.43,2.24L141,176.51Z"/><path d="M154.52,170.41a5.41,5.41,0,0,0-1.33-1.47,5.21,5.21,0,0,0-1.44-.79,2.7,2.7,0,0,0-1.49-.1,1.89,1.89,0,0,0-1,.71,3.05,3.05,0,0,0-.49,1.39,6.2,6.2,0,0,0,.08,1.94,10.12,10.12,0,0,0,.63,2.2,9.22,9.22,0,0,0,1,1.88,7,7,0,0,0,1.36,1.45,5.16,5.16,0,0,0,1.61.87,2.23,2.23,0,0,0,1.5,0,1.56,1.56,0,0,0,.9-.83l1.83,1.92a2.62,2.62,0,0,1-1.48,1.25,3.89,3.89,0,0,1-2.37-.15,8.21,8.21,0,0,1-2.48-1.3,11.31,11.31,0,0,1-2.13-2.13,13.59,13.59,0,0,1-1.63-2.74,13.14,13.14,0,0,1-1-3.16,8.26,8.26,0,0,1-.07-2.91,3.71,3.71,0,0,1,.86-1.92,2.83,2.83,0,0,1,1.64-.87,4.93,4.93,0,0,1,2.28.24,8.38,8.38,0,0,1,2.31,1.24,10.12,10.12,0,0,1,1.11,1,8.17,8.17,0,0,1,1,1.21Z"/><path d="M157.42,174.84a8.32,8.32,0,0,1,0-2.87,3.61,3.61,0,0,1,.89-1.86,2.74,2.74,0,0,1,1.67-.79,5.05,5.05,0,0,1,2.3.34,9.25,9.25,0,0,1,2.49,1.37,11.68,11.68,0,0,1,2.12,2.15,13.09,13.09,0,0,1,2.5,5.94,8.35,8.35,0,0,1,0,2.83,3.73,3.73,0,0,1-.9,1.88,2.79,2.79,0,0,1-1.67.84,4.87,4.87,0,0,1-2.33-.31A8.7,8.7,0,0,1,162,183a11.33,11.33,0,0,1-2.11-2.2,13.71,13.71,0,0,1-1.6-2.77A13.2,13.2,0,0,1,157.42,174.84Zm2.16.77a9.83,9.83,0,0,0,.58,2.16,9.45,9.45,0,0,0,1,1.91,7.71,7.71,0,0,0,1.38,1.51,5.25,5.25,0,0,0,1.6.94,2.82,2.82,0,0,0,1.5.17,1.78,1.78,0,0,0,1.06-.64,2.86,2.86,0,0,0,.54-1.35,6.22,6.22,0,0,0,0-2,9.77,9.77,0,0,0-.57-2.12,9.56,9.56,0,0,0-1-1.89,7.43,7.43,0,0,0-1.37-1.52,5.07,5.07,0,0,0-1.63-1,2.77,2.77,0,0,0-1.51-.17,1.84,1.84,0,0,0-1,.66,3,3,0,0,0-.53,1.34A6.24,6.24,0,0,0,159.58,175.61Z"/><path d="M170.58,173l3.12,1.25,4.11,11,.05,0,1.68-8.66,3.13,1.26,1.69,13.82-2-.79L181,179.8l0,0-2,9.75-1.4-.56-4.71-12.46,0,0,1.36,11.12-1.9-.77Z"/><path d="M185.42,179.08l7.45,3.29.21,2.12-5.45-2.4.34,3.48,5.16,2.27.2,2-5.16-2.28.37,3.87,5.74,2.52.21,2.17-7.74-3.41Z"/><path d="M201.44,188.4,198,186.73l-.15-2.09,8.93,4.29.15,2.1-3.46-1.67.79,11.4-2-1Z"/><path d="M207.58,195.79a6.81,6.81,0,0,1,.32-2.66,2.75,2.75,0,0,1,3-2,6.44,6.44,0,0,1,2.4.76,10.85,10.85,0,0,1,2.47,1.74,12.7,12.7,0,0,1,2,2.39,12.52,12.52,0,0,1,1.38,2.85,11.41,11.41,0,0,1,.59,3.12,6.66,6.66,0,0,1-.33,2.62,3.09,3.09,0,0,1-1.16,1.57,3,3,0,0,1-1.87.46,6,6,0,0,1-2.42-.74,10.2,10.2,0,0,1-2.44-1.76,13,13,0,0,1-2-2.44,12.81,12.81,0,0,1-1.36-2.87A11,11,0,0,1,207.58,195.79Zm2.19,1.12a8,8,0,0,0,.37,2.11,8.88,8.88,0,0,0,.87,2,8.36,8.36,0,0,0,1.28,1.65,6,6,0,0,0,1.59,1.18,3.53,3.53,0,0,0,1.56.45,1.83,1.83,0,0,0,1.19-.39,2.36,2.36,0,0,0,.73-1.15,5.3,5.3,0,0,0,.19-1.82,8.35,8.35,0,0,0-.37-2.07,10,10,0,0,0-.86-2,9.13,9.13,0,0,0-1.28-1.67,6.38,6.38,0,0,0-1.62-1.19,3.24,3.24,0,0,0-1.57-.44,1.8,1.8,0,0,0-1.17.4,2.44,2.44,0,0,0-.72,1.14A5.12,5.12,0,0,0,209.77,196.91Z"/><path d="M225.73,198.85l7.51,4.21,0,2L227.77,202l0,3.32,5.2,2.92,0,2-5.19-2.92,0,3.7,5.77,3.24,0,2.07-7.79-4.37Z"/><path d="M239.27,206.6l1.75,1,4.72,15.8-2.31-1.37-1-3.58-4.92-2.91-1.06,2.34-2.25-1.34Zm2.47,9.51-1.68-6.29-1.84,4.2Z"/><path d="M252.94,217.67a5.86,5.86,0,0,0-.87-1.34,4.84,4.84,0,0,0-1.17-1.05,3.07,3.07,0,0,0-.71-.34,1.4,1.4,0,0,0-.65-.1.76.76,0,0,0-.49.24,1.09,1.09,0,0,0-.21.69,2.18,2.18,0,0,0,.13.84,3.55,3.55,0,0,0,.42.79,6.61,6.61,0,0,0,.67.8c.26.28.55.57.87.88l1.11,1.15a10.33,10.33,0,0,1,1,1.33,7.23,7.23,0,0,1,.77,1.55,4.82,4.82,0,0,1,.25,1.75,3.15,3.15,0,0,1-.4,1.58,1.6,1.6,0,0,1-.94.71,2.5,2.5,0,0,1-1.34-.07,6.2,6.2,0,0,1-1.59-.73,10.67,10.67,0,0,1-2.14-1.81A9.67,9.67,0,0,1,246,222.1l1.49-.61a6.69,6.69,0,0,0,1.08,1.72,5.79,5.79,0,0,0,1.35,1.23,3.46,3.46,0,0,0,.72.36,1.51,1.51,0,0,0,.68.08.78.78,0,0,0,.5-.29,1.22,1.22,0,0,0,.21-.75,2.14,2.14,0,0,0-.17-1,4.41,4.41,0,0,0-.54-.92,7.65,7.65,0,0,0-.82-.94l-1-1c-.34-.33-.67-.69-1-1.07a8.47,8.47,0,0,1-.89-1.24,6.54,6.54,0,0,1-.63-1.43,5,5,0,0,1-.2-1.66,2.38,2.38,0,0,1,.42-1.45,1.62,1.62,0,0,1,1-.57,3,3,0,0,1,1.35.15,7,7,0,0,1,1.52.72,9.49,9.49,0,0,1,1.73,1.44,9.7,9.7,0,0,1,1.51,2Z"/><path d="M258.55,220.57l-3.47-2.26.12-1.95,8.94,5.83-.12,1.95-3.46-2.26-.62,10.61-2-1.32Z"/><path d="M274.85,232.25a5.83,5.83,0,0,0-.83-1.37,5.44,5.44,0,0,0-1.14-1.12,4.17,4.17,0,0,0-.71-.39,1.92,1.92,0,0,0-.67-.14.69.69,0,0,0-.51.2.93.93,0,0,0-.25.64,1.91,1.91,0,0,0,.09.82,3.75,3.75,0,0,0,.39.81,7.31,7.31,0,0,0,.65.83c.25.29.54.6.84.92s.72.78,1.09,1.21a10.62,10.62,0,0,1,1,1.38,6.83,6.83,0,0,1,.7,1.56,4.49,4.49,0,0,1,.18,1.72,2.85,2.85,0,0,1-.49,1.5,1.59,1.59,0,0,1-1,.61,2.79,2.79,0,0,1-1.38-.17,7.3,7.3,0,0,1-1.59-.85,11.09,11.09,0,0,1-2.11-1.93,10,10,0,0,1-1.61-2.5l1.57-.47a7,7,0,0,0,1,1.76,6,6,0,0,0,1.33,1.3,3.65,3.65,0,0,0,.72.4,1.52,1.52,0,0,0,.69.14.79.79,0,0,0,.53-.24,1.14,1.14,0,0,0,.26-.71,2.08,2.08,0,0,0-.14-.95,4.29,4.29,0,0,0-.5-.94,8.41,8.41,0,0,0-.8-1c-.3-.34-.63-.69-1-1.06s-.65-.73-1-1.12a9.23,9.23,0,0,1-.86-1.28,7,7,0,0,1-.57-1.44,4.77,4.77,0,0,1-.12-1.62,2.16,2.16,0,0,1,.5-1.37,1.55,1.55,0,0,1,1-.47,3.27,3.27,0,0,1,1.38.25,7.62,7.62,0,0,1,1.53.82,10.86,10.86,0,0,1,3.16,3.59Z"/><path d="M280.48,235.54,277,233.06l.21-1.88,8.9,6.39-.22,1.88L282.48,237l-1.16,10.23-2-1.43Z"/><path d="M284.48,248.2a.7.7,0,0,1,.49-.66,1.17,1.17,0,0,1,.95.27,3,3,0,0,1,.84,1A2,2,0,0,1,287,250a.69.69,0,0,1-.49.66,1.1,1.1,0,0,1-.95-.27,2.48,2.48,0,0,1-.47-.45,4,4,0,0,1-.37-.57,2.79,2.79,0,0,1-.22-.61A1.73,1.73,0,0,1,284.48,248.2Z"/><path d="M294.21,243.56l3.11,2.41,1.54,10.57.05,0,4.23-6.1,3.12,2.43-1.91,11.71-2-1.53,1.53-9.41,0,0L299,260.43l-1.39-1.08-1.81-12,0,0-1.53,9.42-1.9-1.47Z"/><path d="M312.46,258l1.7,1.4,2.49,15.31-2.25-1.85-.51-3.45-4.81-3.93-1.53,1.79-2.21-1.81Zm1.09,9.1-.78-6-2.67,3.22Z"/><path d="M320.27,264.39l3.83,3.26a14.36,14.36,0,0,1,1.47,1.45,9.46,9.46,0,0,1,1.18,1.65,6.87,6.87,0,0,1,.68,1.77,4,4,0,0,1,0,1.79c-.19.81-.57,1.27-1.14,1.4a3,3,0,0,1-2.08-.54l1.79,7.45-2.37-2-1.45-6.89-1.43-1.22-1.1,4.72-2-1.67Zm2.45,7.84a8.34,8.34,0,0,0,.85.65,2.81,2.81,0,0,0,.81.41.9.9,0,0,0,.67,0,.85.85,0,0,0,.41-.64,1.8,1.8,0,0,0,0-.92,3.27,3.27,0,0,0-.4-.9,5.57,5.57,0,0,0-.65-.84,10,10,0,0,0-.76-.72l-1.77-1.51-.74,3.13Z"/><path d="M330.29,273l1.95,1.73-1.25,4.7,0,0,5.83-.65,2.63,2.33-6.46.49,3.9,10.69-2.74-2.42-3.35-9.72,0,0-1.45,5.46-1.95-1.72Z"/><path d="M341.16,282.64l7.19,6.62-.5,1.65-5.26-4.84-.81,2.69,5,4.59-.48,1.59-5-4.59-.91,3,5.54,5.1-.51,1.68L338,293.25Z"/><path d="M352.35,295.16l-3.3-3.15.54-1.61,8.52,8.12-.54,1.61-3.3-3.15-2.94,8.75-1.91-1.82Z"/></g></g></g></svg>