<svg xmlns="http://www.w3.org/2000/svg" xmlns:xlink="http://www.w3.org/1999/xlink" viewBox="0 0 1048.05 904.57"><defs><style>.cls-1,.cls-13,.cls-56{fill:none;}.cls-2{isolation:isolate;}.cls-3,.cls-60,.cls-67{fill:#575a6d;}.cls-4{fill:#ffb471;}.cls-5{fill:#bf8755;}.cls-6{fill:#ffd2aa;}.cls-7{fill:#ffc38d;}.cls-8{fill:#ede1ae;}.cls-9{fill:#9b9b9b;}.cls-10{fill:#cdc0bb;}.cls-11{fill:#c1b0aa;}.cls-12{fill:#fff;}.cls-13{stroke:#fff;stroke-miterlimit:10;}.cls-14{fill:#626262;}.cls-15{fill:#c3c3c3;}.cls-16{fill:#ada6a6;}.cls-17,.cls-59{fill:#eef1f8;}.cls-18{clip-path:url(#clip-path);}.cls-19{fill:#7c7c7c;}.cls-20{fill:#797979;}.cls-21{fill:#767676;}.cls-22{fill:#737373;}.cls-23{fill:#707070;}.cls-24{fill:#6c6c6c;}.cls-25{fill:#696969;}.cls-26{fill:#666;}.cls-27{fill:#636363;}.cls-28{fill:#606060;}.cls-29{fill:#787878;}.cls-30{clip-path:url(#clip-path-2);}.cls-31{fill:#515151;}.cls-32{fill:#545454;}.cls-33{fill:#575757;}.cls-34{fill:#5a5a5a;}.cls-35{fill:#5d5d5d;}.cls-36{fill:#cfc4c4;}.cls-37{fill:#bfbfbf;}.cls-38{fill:#2c2c2c;}.cls-39{clip-path:url(#clip-path-3);}.cls-40{clip-path:url(#clip-path-4);}.cls-41{fill:#9a908c;}.cls-42{fill:#e1d9d6;}.cls-43{fill:#7fb5e2;}.cls-44{fill:#6493b2;}.cls-45{fill:#7bb1d6;}.cls-46{fill:#76bde5;}.cls-47{fill:#74a1ba;}.cls-48{fill:#7badc9;}.cls-49{fill:#7db4d8;}.cls-50{fill:#8fb2c9;}.cls-51{fill:#afafaf;}.cls-52{fill:#e0eeee;}.cls-53{fill:#a2b0b0;}.cls-54{fill:#d8eaea;}.cls-55{fill:#848484;}.cls-56,.cls-59{mix-blend-mode:soft-light;}.cls-57{fill:#827d7d;}.cls-58{fill:#575353;}.cls-60{opacity:0.6;}.cls-60,.cls-67{mix-blend-mode:multiply;}.cls-61{fill:#cfcfcf;}.cls-62{fill:#ffcfe8;}.cls-63{fill:#ff87c6;}.cls-64{fill:#ffb7dd;}.cls-65{fill:#bf6595;}.cls-66{fill:#3f4972;}.cls-67{opacity:0.23;}.cls-68{fill:#e7e7e7;}</style><clipPath id="clip-path"><path class="cls-1" d="M862.34,649.51l1.16.67a.92.92,0,0,0-.93.09l-1.17-.67A.93.93,0,0,1,862.34,649.51Z"/></clipPath><clipPath id="clip-path-2"><path class="cls-1" d="M861.64,653.39l-1.17-.68a.91.91,0,0,1-.38-.84,2.9,2.9,0,0,1,1.31-2.27l1.17.67a2.9,2.9,0,0,0-1.32,2.27A.94.94,0,0,0,861.64,653.39Z"/></clipPath><clipPath id="clip-path-3"><path class="cls-1" d="M869.71,645.26l1.16.67a.92.92,0,0,0-.93.09l-1.16-.67A.92.92,0,0,1,869.71,645.26Z"/></clipPath><clipPath id="clip-path-4"><path class="cls-1" d="M869,649.14l-1.16-.67a.92.92,0,0,1-.38-.85,2.87,2.87,0,0,1,1.31-2.27l1.16.67a2.87,2.87,0,0,0-1.31,2.28A.91.91,0,0,0,869,649.14Z"/></clipPath></defs><title>Asset 5</title><g class="cls-2"><g id="Layer_2" data-name="Layer 2"><g id="Layer_1-2" data-name="Layer 1"><polygon class="cls-3" points="690.4 782.78 671.23 793.85 668.17 795.6 613.68 827.06 575.34 849.21 520.85 880.67 517.79 882.42 479.45 904.57 444.62 884.46 440.38 882.01 0 627.76 210.95 505.97 326.02 572.4 364.37 594.54 536.98 694.2 520.85 703.51 517.79 705.27 517.79 760.63 519.32 761.51 519.32 706.15 520.85 705.27 538.5 695.08 540.98 696.51 583.93 721.3 584.88 721.86 586.41 722.74 665.12 768.19 668.17 769.94 671.23 771.71 690.4 782.78"/><polygon class="cls-4" points="430.03 651.62 430.03 662.18 386.78 637.22 386.78 626.65 430.03 651.62"/><polygon class="cls-5" points="441 645.29 441 655.86 397.75 630.89 397.75 620.32 441 645.29"/><polygon class="cls-6" points="443.61 643.78 430.03 651.62 386.78 626.65 400.36 618.81 443.61 643.78"/><polygon class="cls-7" points="443.6 643.78 443.6 654.35 441 655.86 441 648.29 432.63 653.13 432.63 660.68 430.02 662.19 430.02 651.62 443.6 643.78"/><polygon class="cls-8" points="575.33 849.21 613.69 827.06 287.67 638.84 364.38 594.54 326.02 572.4 210.95 638.84 575.33 849.21 575.33 849.21"/><polygon class="cls-9" points="846.58 651.74 846.58 668.63 845.53 668.03 833.57 674.93 833.57 659.25 845.53 652.35 846.58 651.74"/><polygon class="cls-9" points="846.58 633.39 846.58 650.3 845.53 649.7 833.57 656.61 833.57 640.9 845.53 634 846.58 633.39"/><polygon class="cls-9" points="846.58 614.34 846.58 631.96 845.53 631.36 833.57 638.27 833.57 621.85 845.53 614.95 846.58 614.34"/><polygon class="cls-9" points="858.74 663.05 858.74 680.66 847.83 686.97 846.58 687.69 833.57 695.2 833.57 677.57 845.53 670.67 846.58 670.06 846.58 686.48 847.83 685.76 847.83 669.35 857.69 663.65 858.74 663.05"/><polygon class="cls-9" points="858.74 607.32 858.74 624.94 857.69 624.34 847.83 630.03 847.83 613.62 857.69 607.92 858.74 607.32"/><polygon class="cls-9" points="858.74 644.72 858.74 661.61 857.69 661 847.83 666.7 847.83 651.02 857.69 645.32 858.74 644.72"/><polygon class="cls-9" points="858.74 626.38 858.74 643.28 857.69 642.68 847.83 648.37 847.83 632.68 857.69 626.98 858.74 626.38"/><path class="cls-9" d="M863.89,651a2.9,2.9,0,0,1-1.32,2.27c-.72.42-1.31.09-1.31-.76a2.89,2.89,0,0,1,1.31-2.27C863.29,649.85,863.89,650.19,863.89,651Z"/><polygon class="cls-9" points="1016.42 594.54 903.69 659.63 901.36 660.98 901.35 660.98 866.24 681.26 865.34 681.78 865.34 595.89 864.44 596.41 826.98 618.04 826.98 703.92 824.65 705.26 824.65 705.27 690.4 782.78 671.23 771.71 668.17 769.94 665.12 768.19 586.41 722.74 584.88 721.86 583.93 721.3 540.98 696.51 538.5 695.08 536.98 694.2 368.99 597.21 367.39 596.28 364.37 594.54 362.78 593.63 326.02 572.4 324.42 571.48 319.81 568.82 301.95 558.51 285.75 549.15 283.76 548 272.68 541.61 224.92 514.03 212.56 506.89 212.55 506.89 210.95 505.97 299.5 454.85 300.36 454.35 410.23 390.92 671.88 541.98 690.4 517.04 786.29 461.67 846.93 496.68 851.21 499.16 860.64 504.6 862.14 505.46 862.58 505.72 863.32 506.15 864.08 506.58 864.69 506.94 865.06 507.15 865.29 507.29 867.64 508.64 874.34 512.51 879.7 515.6 883.34 517.71 884.14 518.17 889.67 521.37 898.08 526.21 902.36 528.68 1016.42 594.54"/><polygon class="cls-9" points="846.58 651.74 846.58 668.63 845.53 668.03 833.57 674.93 833.57 659.25 845.53 652.35 846.58 651.74"/><polygon class="cls-9" points="846.58 633.39 846.58 650.3 845.53 649.7 833.57 656.61 833.57 640.9 845.53 634 846.58 633.39"/><polygon class="cls-9" points="846.58 614.34 846.58 631.96 845.53 631.36 833.57 638.27 833.57 621.85 845.53 614.95 846.58 614.34"/><polygon class="cls-9" points="858.74 663.05 858.74 680.66 847.83 686.97 846.58 687.69 833.57 695.2 833.57 677.57 845.53 670.67 846.58 670.06 846.58 686.48 847.83 685.76 847.83 669.35 857.69 663.65 858.74 663.05"/><polygon class="cls-9" points="858.74 607.32 858.74 624.94 857.69 624.34 847.83 630.03 847.83 613.62 857.69 607.92 858.74 607.32"/><polygon class="cls-9" points="858.74 644.72 858.74 661.61 857.69 661 847.83 666.7 847.83 651.02 857.69 645.32 858.74 644.72"/><polygon class="cls-9" points="858.74 626.38 858.74 643.28 857.69 642.68 847.83 648.37 847.83 632.68 857.69 626.98 858.74 626.38"/><path class="cls-9" d="M863.89,651a2.9,2.9,0,0,1-1.32,2.27c-.72.42-1.31.09-1.31-.76a2.89,2.89,0,0,1,1.31-2.27C863.29,649.85,863.89,650.19,863.89,651Z"/><polygon class="cls-10" points="1016.42 328.81 1016.42 594.54 903.69 659.63 901.36 660.98 901.35 660.98 866.24 681.26 865.34 681.78 865.34 595.89 864.44 596.41 826.98 618.04 826.98 703.92 824.65 705.26 824.65 705.27 690.4 782.78 690.4 517.04 786.29 461.67 1016.42 328.81"/><path class="cls-11" d="M671.88,542,410.23,390.92,211,275.87V506l1.6.92h0L224.92,514l47.76,27.58L283.76,548l2,1.15,16.2,9.36,17.86,10.31,4.61,2.66,1.6.92,36.76,21.23,1.59.91,3,1.74,1.6.93,168,97,1.52.88,2.48,1.43,42.95,24.79,1,.56,1.53.88,78.71,45.45,3,1.75,3.05,1.77,19.18,11.07V517Z"/><ellipse cx="863" cy="532.68" rx="60.05" ry="34.67" transform="translate(-32.41 1008.87) rotate(-59.69)"/><path class="cls-12" d="M852.76,517.23l8.14-4.7v42.72l-5.53,3.2V527.81l-4,33-5.53,3.2-4.36-27.7v30.21l-5.11,3V526.72l8.14-4.7,4.31,27.85Z"/><path class="cls-12" d="M881.54,500.62l8.13-4.7v42.72l-5.53,3.2V511.2l-4,33-5.53,3.19-4.36-27.69v30.21l-5.11,3V510.1l8.14-4.69,4.31,27.84Z"/><path class="cls-12" d="M855.93,507.31l1-.59v5.37l-.69.41v-3.86l-.51,4.15-.69.4-.55-3.48v3.8l-.64.37v-5.37l1-.59.54,3.5Z"/><path class="cls-12" d="M859.23,507.67v.77l-1,.58v1.57l1.27-.73v.77l-2,1.16v-5.38l2-1.15V506l-1.27.74v1.49Z"/><path class="cls-12" d="M861.43,509.26c0-.07,0-.2,0-.4V508a.66.66,0,0,0-.11-.46c-.08-.06-.2,0-.37.06l-.25.14v2.19l-.74.42V505l1.11-.64c.38-.22.66-.27.83-.17s.26.36.26.78v.42a2,2,0,0,1-.48,1.37.33.33,0,0,1,.37.19,1.46,1.46,0,0,1,.12.67v.83c0,.15,0,.27,0,.36a.61.61,0,0,0,.07.24l-.75.44A1,1,0,0,1,861.43,509.26Zm-.74-2.27.28-.17a.79.79,0,0,0,.33-.32,1,1,0,0,0,.11-.5v-.53c0-.2,0-.32-.09-.37s-.15,0-.28,0l-.35.21Z"/><path class="cls-12" d="M864.77,506.29a2.38,2.38,0,0,1-.28,1.17,2.15,2.15,0,0,1-.82.82q-.52.3-.81.12c-.19-.13-.28-.41-.28-.84v-2.79a2.36,2.36,0,0,1,.28-1.17,2.2,2.2,0,0,1,.81-.82c.36-.2.63-.24.82-.12s.28.4.28.84V504l-.69.4v-.57c0-.36-.13-.46-.39-.31a.79.79,0,0,0-.38.75v2.9c0,.35.13.45.38.3a.78.78,0,0,0,.39-.74V506l.69-.4Z"/><path class="cls-12" d="M866.86,506.38l-.13-.9-.9.52-.13,1-.68.39.75-5.8,1.08-.62.75,4.94Zm-.23-1.57-.35-2.52-.36,2.92Z"/><path class="cls-12" d="M869.74,499.34v.77l-.76.44v4.6l-.74.43V501l-.77.45v-.77Z"/><path class="cls-12" d="M870.29,499.31a2.28,2.28,0,0,1,.83-.83c.36-.21.64-.25.83-.12s.29.4.29.83V502a2.35,2.35,0,0,1-.29,1.16,2.16,2.16,0,0,1-.83.84c-.36.2-.63.25-.83.12s-.28-.4-.28-.83v-2.79A2.41,2.41,0,0,1,870.29,499.31Zm.83,3.9a.79.79,0,0,0,.38-.75v-2.9c0-.35-.12-.46-.38-.31a.81.81,0,0,0-.38.75v2.9C870.74,503.25,870.87,503.36,871.12,503.21Z"/><path class="cls-12" d="M848.93,564.88l1-.59v5.37l-.7.4v-3.85l-.5,4.14-.7.41-.55-3.49v3.8l-.64.37v-5.37l1-.59.55,3.5Z"/><path class="cls-12" d="M852.23,565.24V566l-1,.59v1.57l1.27-.73v.76l-2,1.16V564l2-1.16v.77l-1.27.73v1.5Z"/><path class="cls-12" d="M855,561.37v.77l-.77.44v4.6l-.74.43V563l-.77.44v-.77Z"/><path class="cls-12" d="M856.81,565.45a3.79,3.79,0,0,1,0-.4v-.85c0-.24,0-.4-.12-.46s-.19,0-.36.06l-.26.14v2.19l-.73.43v-5.37l1.11-.65c.38-.21.65-.27.83-.17s.26.36.26.78v.42a2,2,0,0,1-.49,1.37.36.36,0,0,1,.38.19,1.63,1.63,0,0,1,.11.67v.83a3.21,3.21,0,0,0,0,.36.71.71,0,0,0,.06.25l-.75.43A1.74,1.74,0,0,1,856.81,565.45Zm-.75-2.27.29-.17a.79.79,0,0,0,.33-.32,1.06,1.06,0,0,0,.11-.5v-.53c0-.2,0-.32-.09-.37s-.15,0-.28,0l-.36.21Z"/><path class="cls-12" d="M858.24,559.79a2.2,2.2,0,0,1,.83-.83c.36-.21.64-.25.83-.12s.29.4.29.83v2.79a2.35,2.35,0,0,1-.29,1.16,2.16,2.16,0,0,1-.83.84c-.36.2-.64.25-.83.12s-.29-.4-.29-.83V561A2.42,2.42,0,0,1,858.24,559.79Zm.83,3.9a.81.81,0,0,0,.38-.75V560c0-.35-.13-.46-.38-.31a.81.81,0,0,0-.38.75v2.9C858.69,563.73,858.82,563.84,859.07,563.69Z"/><path class="cls-12" d="M862.57,557.34c.18.12.27.4.27.83v.7a2.35,2.35,0,0,1-.27,1.15,2.16,2.16,0,0,1-.83.81l-.34.2v2l-.74.43V558.1l1.08-.62C862.11,557.27,862.38,557.22,862.57,557.34Zm-1.17,2.93.34-.2a.63.63,0,0,0,.28-.28.93.93,0,0,0,.09-.44v-.81q0-.27-.09-.33c-.06-.05-.15,0-.28,0l-.34.2Z"/><path class="cls-12" d="M863.41,556.81a2.14,2.14,0,0,1,.83-.83c.36-.21.64-.25.83-.13a1,1,0,0,1,.29.83v2.8a2.38,2.38,0,0,1-.29,1.16,2.14,2.14,0,0,1-.83.83c-.36.21-.64.25-.83.13a1,1,0,0,1-.29-.83V558A2.38,2.38,0,0,1,863.41,556.81Zm.83,3.89a.79.79,0,0,0,.38-.75v-2.9c0-.35-.13-.45-.38-.3a.77.77,0,0,0-.38.75v2.9C863.86,560.75,864,560.85,864.24,560.7Z"/><path class="cls-12" d="M866.57,554.7v4.6l1.21-.7v.77l-1.95,1.12v-5.37Z"/><path class="cls-12" d="M868.83,553.39v5.37l-.73.42v-5.37Z"/><path class="cls-12" d="M871.43,551.89v.77l-.77.44v4.6l-.74.43v-4.6l-.77.44v-.77Z"/><path class="cls-12" d="M873.13,556.28l-.13-.91-.9.53-.13,1-.67.39.75-5.8,1.07-.62.75,4.94Zm-.23-1.58-.35-2.51-.35,2.92Z"/><path class="cls-12" d="M874.87,555.27l-.66.38v-5.37l.92-.53.76,2.78v-3.21l.65-.38v5.37l-.75.43-.92-3.36Z"/><path class="cls-12" d="M877.3,548.79a2.14,2.14,0,0,1,.83-.83c.36-.21.63-.25.82-.13s.29.41.29.84v2.79a2.25,2.25,0,0,1-.29,1.16,2,2,0,0,1-.82.83c-.37.21-.64.25-.83.13s-.29-.4-.29-.83V550A2.42,2.42,0,0,1,877.3,548.79Zm.83,3.9a.81.81,0,0,0,.38-.75V549c0-.36-.13-.46-.38-.31a.78.78,0,0,0-.39.75v2.9C877.74,552.73,877.87,552.83,878.13,552.69Z"/><ellipse class="cls-13" cx="863" cy="532.68" rx="52.26" ry="30.17" transform="matrix(0.5, -0.86, 0.86, 0.5, -32.41, 1008.87)"/><line class="cls-1" x1="883.01" y1="230.28" x2="882.78" y2="230.14"/><polygon class="cls-9" points="668.17 618.45 665.12 620.21 665.12 616.69 668.17 618.45"/><polygon class="cls-14" points="671.23 618.45 671.23 671.95 668.17 673.72 665.12 675.48 584.88 721.86 520.85 758.86 519.32 759.74 519.32 706.15 520.85 705.27 538.5 695.08 665.12 621.98 668.17 620.21 669.7 619.33 671.23 618.45"/><polygon class="cls-14" points="824.64 616.69 826.98 618.04 826.98 706.62 824.64 705.27 824.64 616.69"/><polygon points="901.36 572.4 903.69 573.75 903.69 662.33 901.36 660.98 901.36 572.4"/><polygon class="cls-15" points="865.34 684.47 865.34 595.89 903.69 573.75 903.69 662.33 865.34 684.47 865.34 684.47"/><path class="cls-16" d="M862.57,650.27a2.89,2.89,0,0,0-1.31,2.27c0,.85.59,1.18,1.31.76a2.9,2.9,0,0,0,1.32-2.27C863.89,650.19,863.29,649.85,862.57,650.27ZM827,703.92v2.69l38.36-22.14v-2.69Z"/><path class="cls-16" d="M861.26,652.54a2.89,2.89,0,0,1,1.31-2.27c.72-.42,1.32-.08,1.32.76a2.9,2.9,0,0,1-1.32,2.27C861.85,653.72,861.26,653.39,861.26,652.54ZM827,618v85.88l38.36-22.14V595.9Zm31.76,62.62L847.83,687l-1.25.72-13,7.51V621.85l12-6.9,1.05-.61.2-.12,1.05-.6,9.86-5.7,1-.6Z"/><polygon class="cls-15" points="845.53 614.95 845.53 631.36 833.57 638.27 833.57 621.85 845.53 614.95"/><polygon class="cls-15" points="845.53 634 845.53 649.7 833.57 656.61 833.57 640.9 845.53 634"/><polygon class="cls-15" points="845.53 652.35 845.53 668.03 833.57 674.93 833.57 659.25 845.53 652.35"/><polygon class="cls-15" points="846.58 687.69 833.57 695.2 833.57 677.57 845.53 670.67 845.53 687.09 846.58 687.69"/><polygon class="cls-15" points="858.74 607.32 858.74 624.94 857.69 624.34 847.83 630.03 847.83 613.62 857.69 607.92 858.74 607.32"/><polygon class="cls-15" points="858.74 644.72 858.74 661.61 857.69 661 847.83 666.7 847.83 651.02 857.69 645.32 858.74 644.72"/><polygon class="cls-15" points="858.74 626.38 858.74 643.28 857.69 642.68 847.83 648.37 847.83 632.68 857.69 626.98 858.74 626.38"/><polygon class="cls-15" points="858.74 663.05 858.74 680.66 847.83 686.97 847.83 669.35 857.69 663.65 858.74 663.05"/><polygon class="cls-14" points="858.74 607.32 858.74 624.94 857.69 624.34 857.69 607.92 858.74 607.32"/><polygon class="cls-14" points="858.74 626.38 858.74 643.28 857.69 642.68 857.69 626.98 858.74 626.38"/><polygon class="cls-14" points="858.74 644.72 858.74 661.61 857.69 661 857.69 645.32 858.74 644.72"/><polygon class="cls-14" points="858.74 663.05 858.74 680.66 857.69 680.06 857.69 663.65 858.74 663.05"/><polygon class="cls-17" points="857.69 607.92 857.69 624.34 847.83 630.03 847.83 613.62 857.69 607.92"/><polygon class="cls-17" points="843.44 616.16 843.44 632.57 833.57 638.27 833.57 621.85 843.44 616.16"/><polygon class="cls-17" points="857.69 626.98 857.69 642.68 847.83 648.37 847.83 632.68 857.69 626.98"/><polygon class="cls-17" points="857.69 645.32 857.69 661 847.83 666.7 847.83 651.02 857.69 645.32"/><polygon class="cls-17" points="846.58 651.74 846.58 668.63 845.53 668.03 833.57 674.93 833.57 659.25 845.53 652.35 846.58 651.74"/><polygon class="cls-17" points="846.58 633.39 846.58 650.3 845.53 649.7 833.57 656.61 833.57 640.9 845.53 634 846.58 633.39"/><polygon class="cls-17" points="846.58 614.34 846.58 631.96 845.53 631.36 833.57 638.27 833.57 621.85 845.53 614.95 846.58 614.34"/><polygon class="cls-17" points="846.58 670.06 846.58 686.48 846.15 686.72 845.53 687.08 845.53 687.09 833.57 693.99 833.57 677.57 845.53 670.67 846.58 670.06"/><polygon class="cls-17" points="857.69 663.65 857.69 680.06 847.83 685.76 847.83 669.35 857.69 663.65"/><path class="cls-9" d="M871.93,599.7v73.35l25.17-14.53V585.17Z"/><polygon class="cls-9" points="864.44 684.99 864.44 596.41 865.34 595.89 865.34 684.47 864.44 684.99"/><polygon class="cls-14" points="824.64 616.69 826.98 618.04 903.69 573.75 901.36 572.4 824.64 616.69"/><polyline class="cls-1" points="833.58 621.85 832.53 621.24 857.7 606.71 858.74 607.32"/><line class="cls-1" x1="833.58" y1="695.2" x2="832.53" y2="694.59"/><polygon points="897.1 658.52 871.93 673.05 871.93 671.85 896.05 657.92 897.1 658.52"/><polygon points="897.1 585.18 897.1 658.52 896.05 657.92 896.05 585.78 897.1 585.18"/><polygon class="cls-9" points="896.05 585.78 896.05 657.92 871.93 671.85 871.93 599.7 896.05 585.78"/><g class="cls-2"><g class="cls-2"><g class="cls-18"><g class="cls-2"><path class="cls-19" d="M862.57,650.27l-1.17-.67.19-.1,1.16.68-.18.09"/><path class="cls-20" d="M862.75,650.18l-1.16-.68.15,0,1.16.68-.15,0"/><path class="cls-21" d="M862.9,650.13l-1.16-.68.12,0,1.16.67-.12,0"/><path class="cls-22" d="M863,650.1l-1.16-.67h.1l1.16.67H863"/><path class="cls-23" d="M863.12,650.09l-1.16-.67H862l1.17.67h-.09"/><path class="cls-24" d="M863.21,650.09l-1.17-.67h.08l1.16.67h-.07"/><path class="cls-25" d="M863.28,650.1l-1.16-.67h.08l1.16.68-.08,0"/><path class="cls-26" d="M863.36,650.12l-1.16-.68.07,0,1.16.67-.07,0"/><path class="cls-27" d="M863.43,650.14l-1.16-.67.06,0,1.16.68-.06,0"/><polyline class="cls-28" points="863.5 650.18 862.33 649.5 862.34 649.5 863.5 650.18 863.5 650.18"/></g></g></g><path class="cls-29" d="M863.89,651a2.9,2.9,0,0,1-1.32,2.27c-.72.42-1.31.09-1.31-.76a2.89,2.89,0,0,1,1.31-2.27C863.29,649.85,863.89,650.19,863.89,651Z"/><g class="cls-2"><g class="cls-30"><g class="cls-2"><path class="cls-31" d="M861.64,653.39l-1.17-.68a.91.91,0,0,1-.38-.84,2.28,2.28,0,0,1,0-.26l1.16.68a2.11,2.11,0,0,0,0,.25.94.94,0,0,0,.39.85"/><path class="cls-32" d="M861.27,652.29l-1.16-.68,0-.18,1.16.67,0,.19"/><path class="cls-33" d="M861.3,652.1l-1.16-.67a.83.83,0,0,1,0-.15l1.16.67s0,.1,0,.15"/><path class="cls-34" d="M861.34,652l-1.16-.67a.74.74,0,0,1,0-.14l1.16.68,0,.13"/><path class="cls-35" d="M861.38,651.82l-1.16-.68,0-.12,1.16.67s0,.09,0,.13"/><path class="cls-28" d="M861.42,651.69l-1.16-.67,0-.12,1.16.68a.37.37,0,0,1-.05.11"/><path class="cls-27" d="M861.47,651.58l-1.16-.68.05-.11,1.17.67-.06.12"/><path class="cls-26" d="M861.53,651.46l-1.17-.67.06-.12,1.16.68a.54.54,0,0,0-.05.11"/><path class="cls-25" d="M861.58,651.35l-1.16-.68.06-.11,1.16.68-.06.11"/><path class="cls-24" d="M861.64,651.24l-1.16-.68.07-.11,1.16.68-.07.11"/><path class="cls-23" d="M861.71,651.13l-1.16-.68.08-.11,1.16.67-.08.12"/><path class="cls-22" d="M861.79,651l-1.16-.67.09-.12,1.16.67-.09.12"/><path class="cls-21" d="M861.88,650.89l-1.16-.67a1.47,1.47,0,0,1,.1-.13l1.17.67-.11.13"/><path class="cls-20" d="M862,650.76l-1.17-.67.15-.16,1.16.68-.14.15"/><path class="cls-19" d="M862.13,650.61l-1.16-.68a1.9,1.9,0,0,1,.43-.33l1.17.67a2,2,0,0,0-.44.34"/></g></g></g></g><polygon class="cls-9" points="326.02 572.4 334.21 567.67 364.38 585.09 364.38 594.54 326.02 572.4 326.02 572.4"/><polygon class="cls-36" points="367.39 504.22 367.39 598.13 362.78 595.47 362.78 506.89 334.21 490.4 326.02 485.67 324.42 484.75 324.42 573.32 319.81 570.66 319.81 476.75 321.4 477.67 324.42 479.41 326.02 480.34 362.78 501.56 364.37 502.48 367.39 504.22"/><polygon class="cls-37" points="368.99 503.3 368.99 597.21 367.39 598.13 367.39 504.22 368.99 503.3"/><polygon class="cls-37" points="368.99 503.3 367.39 504.22 364.37 502.48 362.78 501.56 326.02 480.34 324.42 479.41 321.4 477.67 319.81 476.75 321.4 475.83 326.02 478.49 364.37 500.63 368.99 503.3"/><polygon class="cls-38" points="326.02 485.67 326.02 572.4 324.42 573.32 324.42 484.75 326.02 485.67"/><polygon class="cls-8" points="362.78 593.63 362.78 595.47 324.42 573.32 326.02 572.4 362.78 593.63"/><polygon class="cls-8" points="362.78 584.17 362.78 593.63 326.02 572.4 334.21 567.67 362.78 584.17"/><polygon class="cls-38" points="334.21 490.4 334.21 567.67 326.02 572.4 326.02 485.67 334.21 490.4"/><polygon points="362.78 506.89 362.78 584.17 334.21 567.67 334.21 490.4 362.78 506.89"/><polygon class="cls-16" points="847.83 632.68 847.83 649.59 848.4 649.25 857.69 643.89 857.69 643.88 858.74 643.28 858.74 644.72 857.69 645.32 847.83 651.02 847.83 667.91 848.4 667.57 857.69 662.22 857.69 662.21 858.74 661.61 858.74 663.05 857.69 663.65 847.83 669.35 847.83 686.97 846.58 687.69 846.58 670.06 845.53 670.67 833.57 677.57 833.57 676.14 845.53 669.23 846.58 668.63 846.58 651.74 845.53 652.35 833.57 659.25 833.57 657.81 845.53 650.9 846.58 650.3 846.58 633.39 845.53 634 833.57 640.9 833.57 639.47 845.53 632.56 846.58 631.96 846.58 614.34 846.78 614.22 847.83 613.62 847.83 631.24 848.4 630.91 857.69 625.55 857.69 625.54 858.74 624.94 858.74 626.38 857.69 626.98 847.83 632.68"/><polygon class="cls-14" points="846.58 614.34 846.58 631.96 845.53 631.36 845.53 614.95 846.58 614.34"/><polygon class="cls-14" points="846.58 633.39 846.58 650.3 845.53 649.7 845.53 634 846.58 633.39"/><polygon class="cls-14" points="846.58 651.74 846.58 668.63 845.53 668.03 845.53 652.35 846.58 651.74"/><polygon class="cls-14" points="846.58 670.06 846.58 687.69 845.53 687.09 845.53 670.67 846.58 670.06"/><polygon class="cls-15" points="846.58 687.69 833.57 695.2 833.57 693.99 845.53 687.09 846.58 687.69"/><polygon class="cls-15" points="858.74 680.66 847.83 686.97 847.83 685.76 857.69 680.06 858.74 680.66"/><polygon class="cls-15" points="846.58 668.63 845.53 669.23 833.57 676.14 833.57 674.93 845.53 668.03 846.58 668.63"/><polygon class="cls-15" points="858.74 661.61 857.69 662.21 857.69 662.22 848.4 667.57 847.83 667.91 847.83 666.7 857.69 661 858.74 661.61"/><polygon class="cls-15" points="846.58 650.3 845.53 650.9 833.57 657.81 833.57 656.61 845.53 649.7 846.58 650.3"/><polygon class="cls-15" points="858.74 643.28 857.69 643.88 857.69 643.89 848.4 649.25 847.83 649.59 847.83 648.37 857.69 642.68 858.74 643.28"/><polygon class="cls-15" points="846.58 631.96 845.53 632.56 833.57 639.47 833.57 638.27 845.53 631.36 846.58 631.96"/><polygon class="cls-15" points="858.74 624.94 857.69 625.54 857.69 625.55 848.4 630.91 847.83 631.24 847.83 630.03 857.69 624.34 858.74 624.94"/><polygon class="cls-9" points="884.94 629.59 884.94 646.48 883.89 645.88 871.93 652.79 871.93 637.1 883.89 630.2 884.94 629.59"/><polygon class="cls-9" points="884.94 611.25 884.94 628.16 883.89 627.56 871.93 634.46 871.93 618.76 883.89 611.86 884.94 611.25"/><polygon class="cls-9" points="884.94 592.19 884.94 609.82 883.89 609.21 871.93 616.12 871.93 599.7 883.89 592.8 884.94 592.19"/><polygon class="cls-9" points="897.1 640.9 897.1 658.52 886.18 664.83 884.94 665.54 871.93 673.05 871.93 655.43 883.89 648.53 884.94 647.92 884.94 664.33 886.18 663.61 886.18 647.2 896.05 641.5 897.1 640.9"/><polygon class="cls-9" points="897.1 585.17 897.1 602.79 896.05 602.19 886.18 607.89 886.18 591.47 896.05 585.78 897.1 585.17"/><polygon class="cls-9" points="897.1 622.58 897.1 639.46 896.05 638.86 886.18 644.55 886.18 628.87 896.05 623.18 897.1 622.58"/><polygon class="cls-9" points="897.1 604.24 897.1 621.13 896.05 620.53 886.18 626.23 886.18 610.53 896.05 604.84 897.1 604.24"/><polygon class="cls-9" points="884.94 629.59 884.94 646.48 883.89 645.88 871.93 652.79 871.93 637.1 883.89 630.2 884.94 629.59"/><polygon class="cls-9" points="884.94 611.25 884.94 628.16 883.89 627.56 871.93 634.46 871.93 618.76 883.89 611.86 884.94 611.25"/><polygon class="cls-9" points="884.94 592.19 884.94 609.82 883.89 609.21 871.93 616.12 871.93 599.7 883.89 592.8 884.94 592.19"/><polygon class="cls-9" points="897.1 640.9 897.1 658.52 886.18 664.83 884.94 665.54 871.93 673.05 871.93 655.43 883.89 648.53 884.94 647.92 884.94 664.33 886.18 663.61 886.18 647.2 896.05 641.5 897.1 640.9"/><polygon class="cls-9" points="897.1 585.17 897.1 602.79 896.05 602.19 886.18 607.89 886.18 591.47 896.05 585.78 897.1 585.17"/><polygon class="cls-9" points="897.1 622.58 897.1 639.46 896.05 638.86 886.18 644.55 886.18 628.87 896.05 623.18 897.1 622.58"/><polygon class="cls-9" points="897.1 604.24 897.1 621.13 896.05 620.53 886.18 626.23 886.18 610.53 896.05 604.84 897.1 604.24"/><path class="cls-16" d="M900.92,628.12a2.94,2.94,0,0,0-1.31,2.28c0,.84.6,1.17,1.32.75a2.88,2.88,0,0,0,1.31-2.27C902.24,628,901.65,627.7,900.92,628.12Zm-35.59,53.65v2.7l38.36-22.14v-2.7Z"/><path class="cls-16" d="M899.61,630.4a2.94,2.94,0,0,1,1.31-2.28c.73-.42,1.32-.08,1.32.76a2.88,2.88,0,0,1-1.31,2.27C900.21,631.57,899.61,631.24,899.61,630.4Zm-34.28-34.51v85.88l38.36-22.14V573.75Zm31.77,62.63-10.92,6.3-1.24.72-13,7.51V599.7l12-6.9,1.05-.61.2-.11,1-.61,9.87-5.69,1.05-.6Z"/><polygon class="cls-15" points="883.89 592.8 883.89 609.21 871.93 616.12 871.93 599.7 883.89 592.8"/><polygon class="cls-15" points="883.89 611.86 883.89 627.56 871.93 634.46 871.93 618.76 883.89 611.86"/><polygon class="cls-15" points="883.89 630.2 883.89 645.88 871.93 652.79 871.93 637.1 883.89 630.2"/><polygon class="cls-15" points="884.94 665.54 871.93 673.05 871.93 655.43 883.89 648.53 883.89 664.94 884.94 665.54"/><polygon class="cls-15" points="897.1 585.17 897.1 602.79 896.05 602.19 886.18 607.89 886.18 591.47 896.05 585.78 897.1 585.17"/><polygon class="cls-15" points="897.1 622.58 897.1 639.46 896.05 638.86 886.18 644.55 886.18 628.87 896.05 623.18 897.1 622.58"/><polygon class="cls-15" points="897.1 604.24 897.1 621.13 896.05 620.53 886.18 626.23 886.18 610.53 896.05 604.84 897.1 604.24"/><polygon class="cls-15" points="897.1 640.9 897.1 658.52 886.18 664.83 886.18 647.2 896.05 641.5 897.1 640.9"/><polygon class="cls-15" points="884.94 665.54 871.93 673.05 871.93 671.85 883.89 664.94 884.94 665.54"/><polygon class="cls-15" points="897.1 658.52 886.18 664.83 886.18 663.61 896.05 657.92 897.1 658.52"/><polygon class="cls-14" points="897.1 585.17 897.1 602.79 896.05 602.19 896.05 585.78 897.1 585.17"/><polygon class="cls-14" points="897.1 604.24 897.1 621.13 896.05 620.53 896.05 604.84 897.1 604.24"/><polygon class="cls-14" points="897.1 622.58 897.1 639.46 896.05 638.86 896.05 623.18 897.1 622.58"/><polygon class="cls-14" points="897.1 640.9 897.1 658.52 896.05 657.92 896.05 641.5 897.1 640.9"/><polygon class="cls-17" points="884.94 629.59 884.94 646.48 883.89 645.88 871.93 652.79 871.93 637.1 883.89 630.2 884.94 629.59"/><polygon class="cls-17" points="884.94 611.25 884.94 628.16 883.89 627.56 871.93 634.46 871.93 618.76 883.89 611.86 884.94 611.25"/><polygon class="cls-17" points="884.94 592.19 884.94 609.82 883.89 609.21 871.93 616.12 871.93 599.7 883.89 592.8 884.94 592.19"/><polygon class="cls-17" points="896.05 585.78 896.05 602.19 886.18 607.89 886.18 591.47 896.05 585.78"/><polygon class="cls-17" points="896.05 604.84 896.05 620.53 886.18 626.23 886.18 610.53 896.05 604.84"/><polygon class="cls-17" points="896.05 623.18 896.05 638.86 886.18 644.55 886.18 628.87 896.05 623.18"/><polygon class="cls-17" points="884.94 647.92 884.94 664.33 884.51 664.58 883.89 664.93 883.89 664.94 871.93 671.85 871.93 655.43 883.89 648.53 884.94 647.92"/><polygon class="cls-17" points="896.05 641.5 896.05 657.92 886.18 663.61 886.18 647.2 896.05 641.5"/><polyline class="cls-1" points="871.93 599.7 870.88 599.1 896.05 584.57 897.1 585.17"/><polygon class="cls-16" points="886.18 610.53 886.18 627.44 886.76 627.1 896.05 621.74 896.05 621.74 897.1 621.13 897.1 622.58 896.05 623.18 886.18 628.87 886.18 645.77 886.76 645.43 896.05 640.07 896.05 640.06 897.1 639.46 897.1 640.9 896.05 641.5 886.18 647.2 886.18 664.83 884.94 665.54 884.94 647.92 883.89 648.53 871.93 655.43 871.93 653.99 883.89 647.09 884.94 646.48 884.94 629.59 883.89 630.2 871.93 637.1 871.93 635.67 883.89 628.76 884.94 628.16 884.94 611.25 883.89 611.86 871.93 618.76 871.93 617.33 883.89 610.42 884.94 609.82 884.94 592.19 885.14 592.08 886.18 591.47 886.18 609.1 886.76 608.76 896.05 603.4 896.05 603.39 897.1 602.79 897.1 604.24 896.05 604.84 886.18 610.53"/><polygon class="cls-14" points="884.94 592.19 884.94 609.82 883.89 609.21 883.89 592.8 884.94 592.19"/><polygon class="cls-14" points="884.94 611.25 884.94 628.16 883.89 627.56 883.89 611.86 884.94 611.25"/><polygon class="cls-14" points="884.94 629.59 884.94 646.48 883.89 645.88 883.89 630.2 884.94 629.59"/><polygon class="cls-14" points="884.94 647.92 884.94 665.54 883.89 664.94 883.89 648.53 884.94 647.92"/><polygon class="cls-15" points="884.94 646.48 883.89 647.09 871.93 653.99 871.93 652.79 883.89 645.88 884.94 646.48"/><polygon class="cls-15" points="897.1 639.46 896.05 640.06 896.05 640.07 886.76 645.43 886.18 645.77 886.18 644.55 896.05 638.86 897.1 639.46"/><polygon class="cls-15" points="884.94 628.16 883.89 628.76 871.93 635.67 871.93 634.46 883.89 627.56 884.94 628.16"/><polygon class="cls-15" points="897.1 621.13 896.05 621.74 896.05 621.74 886.76 627.1 886.18 627.44 886.18 626.23 896.05 620.53 897.1 621.13"/><polygon class="cls-15" points="884.94 609.82 883.89 610.42 871.93 617.33 871.93 616.12 883.89 609.21 884.94 609.82"/><polygon class="cls-15" points="897.1 602.79 896.05 603.39 896.05 603.4 886.76 608.76 886.18 609.1 886.18 607.89 896.05 602.19 897.1 602.79"/><g class="cls-2"><g class="cls-2"><g class="cls-39"><g class="cls-2"><path class="cls-19" d="M869.94,646l-1.16-.67.18-.09,1.16.67-.18.09"/><path class="cls-20" d="M870.12,645.93l-1.16-.67a1,1,0,0,1,.16-.06l1.16.68-.16,0"/><path class="cls-21" d="M870.28,645.88l-1.16-.68.11,0,1.16.67-.11,0"/><path class="cls-22" d="M870.39,645.85l-1.16-.67h.1l1.16.67h-.1"/><path class="cls-23" d="M870.49,645.84l-1.16-.67h.09l1.16.67h-.09"/><path class="cls-24" d="M870.58,645.84l-1.16-.67h.08l1.16.67h-.08"/><path class="cls-25" d="M870.66,645.85l-1.16-.67.07,0,1.16.67-.07,0"/><path class="cls-26" d="M870.73,645.87l-1.16-.67.07,0,1.16.68-.07,0"/><path class="cls-27" d="M870.8,645.9l-1.16-.68.07,0,1.16.68-.07,0"/><polyline class="cls-28" points="870.87 645.93 869.71 645.25 869.71 645.26 870.88 645.93 870.87 645.93"/></g></g></g><ellipse class="cls-29" cx="869.94" cy="647.54" rx="1.85" ry="1.07" transform="translate(-127.02 1074.34) rotate(-59.84)"/><g class="cls-2"><g class="cls-40"><g class="cls-2"><path class="cls-31" d="M869,649.14l-1.16-.67a.92.92,0,0,1-.38-.85,1.15,1.15,0,0,1,0-.26l1.16.68a2.17,2.17,0,0,0,0,.26.91.91,0,0,0,.38.84"/><path class="cls-32" d="M868.64,648l-1.16-.68,0-.18,1.17.68a1.16,1.16,0,0,0,0,.18"/><path class="cls-33" d="M868.68,647.86l-1.17-.68s0-.1,0-.15l1.16.67,0,.16"/><path class="cls-34" d="M868.71,647.7l-1.16-.67s0-.09,0-.13l1.16.67s0,.09,0,.13"/><path class="cls-35" d="M868.75,647.57l-1.16-.67s0-.09,0-.13l1.16.68,0,.12"/><path class="cls-28" d="M868.8,647.45l-1.16-.68s0-.08,0-.12l1.17.68a.61.61,0,0,0-.05.12"/><path class="cls-27" d="M868.85,647.33l-1.17-.68.06-.11,1.16.67a.61.61,0,0,0,0,.12"/><path class="cls-26" d="M868.9,647.21l-1.16-.67a.37.37,0,0,1,0-.11l1.17.67-.06.11"/><path class="cls-25" d="M869,647.1l-1.17-.67a.41.41,0,0,1,.07-.11L869,647l-.06.11"/><path class="cls-24" d="M869,647l-1.16-.67.06-.12,1.17.68L869,647"/><path class="cls-23" d="M869.09,646.88l-1.17-.68.08-.11,1.16.67-.07.12"/><path class="cls-22" d="M869.16,646.76l-1.16-.67.09-.12,1.16.67-.09.12"/><path class="cls-21" d="M869.25,646.64l-1.16-.67a.69.69,0,0,1,.11-.13l1.16.67-.11.13"/><path class="cls-20" d="M869.36,646.51l-1.16-.67a1,1,0,0,1,.14-.15l1.16.67-.14.15"/><path class="cls-19" d="M869.5,646.36l-1.16-.67a2,2,0,0,1,.44-.34l1.16.67a2.73,2.73,0,0,0-.44.34"/></g></g></g></g><polygon class="cls-9" points="865.34 684.47 865.34 595.89 866.23 595.38 866.23 683.96 865.34 684.47"/><line class="cls-1" x1="672.75" y1="617.58" x2="672.74" y2="617.58"/><polygon points="288.6 477.25 288.6 477.26 288.58 477.27 288.58 477.26 288.6 477.25"/><polygon class="cls-41" points="1016.42 328.81 786.29 461.67 690.4 517.04 863 284.52 1016.42 328.81"/><polygon class="cls-42" points="985.07 332.63 735.9 476.49 748.28 459.81 974.09 329.45 985.07 332.63"/><polygon class="cls-10" points="974.09 329.45 748.28 459.81 867.82 298.78 974.09 329.45"/><polygon class="cls-43" points="1032.87 325.84 989.69 313.37 989.67 313.36 863 276.8 498.63 66.44 410.29 15.43 410.28 15.43 383.56 0 553.43 49.04 1032.87 325.84"/><polygon class="cls-44" points="687.06 543.02 687.06 550.75 677.65 545.31 671.88 541.98 410.23 390.92 210.95 275.87 192.44 265.18 192.44 257.45 196.45 259.77 210.95 268.15 288.33 312.82 416.92 387.06 671.88 534.26 675.9 536.57 677.65 537.59 687.06 543.02"/><polygon class="cls-43" points="863 276.8 859 282.2 690.4 509.32 686.39 514.72 671.88 534.26 416.92 387.06 288.33 312.82 210.95 268.15 196.45 259.77 192.44 257.45 383.56 0 479.45 55.36 498.63 66.44 863 276.8"/><polygon class="cls-45" points="878.18 285.57 876.14 288.31 874.17 290.96 705.58 518.08 701.57 523.48 687.06 543.02 677.65 537.59 675.9 536.57 671.88 534.26 686.39 514.72 690.4 509.32 859 282.2 863 276.8 878.18 285.57"/><polygon class="cls-44" points="878.18 285.57 878.18 293.28 705.58 525.8 687.06 550.75 687.06 543.02 701.57 523.48 705.58 518.08 874.17 290.96 876.14 288.31 878.18 285.57"/><polygon class="cls-44" points="1048.06 334.61 1048.06 342.32 1031.6 337.57 878.18 293.28 878.18 285.57 1004.85 322.13 1004.87 322.13 1032.88 330.22 1048.04 334.6 1048.06 334.61"/><line class="cls-1" x1="863" y1="276.8" x2="671.88" y2="534.26"/><polygon class="cls-45" points="863 276.8 671.88 534.26 576 478.89 767.11 221.44 863 276.8"/><polygon class="cls-46" points="479.45 55.36 288.33 312.82 210.95 268.15 196.45 259.77 192.44 257.45 383.56 0 479.45 55.36"/><polygon class="cls-47" points="575.34 110.73 384.22 368.18 306.84 323.51 292.34 315.14 288.33 312.82 479.45 55.36 575.34 110.73"/><polygon class="cls-48" points="671.23 166.09 480.11 423.55 402.73 378.88 388.23 370.5 384.22 368.18 575.34 110.73 671.23 166.09"/><polygon class="cls-46" points="767.11 221.44 576 478.89 498.62 434.22 484.12 425.85 480.11 423.53 671.23 166.07 767.11 221.44"/><polygon class="cls-49" points="1032.87 325.84 863 276.8 767.11 221.44 936.98 270.47 1032.87 325.84"/><polygon class="cls-48" points="936.98 270.47 767.11 221.44 671.23 166.07 841.09 215.11 936.98 270.47"/><polygon class="cls-45" points="841.09 215.13 671.23 166.09 575.34 110.73 745.2 159.76 841.09 215.13"/><polygon class="cls-50" points="745.2 159.76 575.34 110.73 479.45 55.36 649.31 104.4 745.2 159.76"/><polygon class="cls-44" points="649.31 104.4 479.45 55.36 383.56 0 553.42 49.03 649.31 104.4"/><line class="cls-51" x1="976.83" y1="327.87" x2="985.08" y2="332.63"/><line class="cls-44" x1="863" y1="276.8" x2="849.47" y2="268.99"/><polygon class="cls-49" points="1048.04 334.6 1032.88 330.22 1004.87 322.13 1004.85 322.13 878.18 285.57 863 276.8 1032.87 325.84 1032.88 325.84 1048.04 334.6"/><polygon class="cls-4" points="382.43 617.96 382.42 617.97 382.42 617.96 382.43 617.96"/><polygon class="cls-4" points="425.5 643.03 406.82 653.82 406.81 653.81 425.5 643.03"/><polygon class="cls-7" points="428.28 641.43 428.28 663.2 425.67 664.7 425.67 645.95 409.43 655.32 403.2 658.92 403.2 677.68 400.59 679.19 400.59 657.42 406.82 653.82 425.5 643.03 425.67 642.94 428.27 641.43 428.28 641.43"/><polygon class="cls-6" points="428.27 641.43 425.67 642.93 425.67 642.94 425.5 643.03 406.81 653.81 400.59 657.41 357.34 632.45 382.42 617.97 382.43 617.96 385.03 616.46 428.27 641.43"/><polygon class="cls-4" points="400.59 657.41 400.59 679.18 357.34 654.22 357.34 632.44 400.59 657.41"/><polygon class="cls-5" points="425.67 645.95 425.67 664.7 409.43 655.32 425.67 645.95"/><line class="cls-1" x1="381.66" y1="641.26" x2="381.66" y2="638.25"/><line class="cls-1" x1="359.19" y1="654.24" x2="359.19" y2="651.22"/><line class="cls-1" x1="396.99" y1="632.41" x2="396.99" y2="629.4"/><line class="cls-1" x1="388.63" y1="637.24" x2="388.63" y2="634.23"/><line class="cls-1" x1="451.61" y1="677.79" x2="451.61" y2="674.77"/><line class="cls-1" x1="429.14" y1="690.76" x2="429.14" y2="687.74"/><line class="cls-1" x1="466.94" y1="668.93" x2="466.94" y2="665.92"/><line class="cls-1" x1="458.58" y1="673.76" x2="458.58" y2="670.75"/><polygon class="cls-52" points="575.34 508.44 556.15 519.63 519.93 498.72 500.75 487.65 519.93 476.46 575.34 508.44"/><polygon class="cls-53" points="556.15 519.63 556.15 561.44 500.75 529.45 500.75 487.65 519.93 498.72 556.15 519.63"/><polygon class="cls-54" points="575.34 508.44 575.34 550.25 556.15 561.44 556.15 519.63 575.34 508.44"/><ellipse class="cls-55" cx="513.21" cy="519.55" rx="8.61" ry="14.91" transform="translate(-192.06 330.03) rotate(-30.31)"/><path class="cls-32" d="M518,531.49a8.09,8.09,0,0,1-3.92-1.24c-5.28-3-9.75-10.74-9.75-16.8,0-3.66,1.56-5.84,4.18-5.84a8.06,8.06,0,0,1,3.92,1.24c5.29,3,9.75,10.74,9.75,16.8C522.13,529.31,520.57,531.49,518,531.49Z"/><ellipse class="cls-55" cx="535.99" cy="532.69" rx="8.61" ry="14.91" transform="translate(-195.57 343.33) rotate(-30.31)"/><path class="cls-32" d="M540.74,544.63a8.15,8.15,0,0,1-3.92-1.23c-5.29-3-9.75-10.75-9.75-16.81,0-3.65,1.56-5.83,4.18-5.83a8.07,8.07,0,0,1,3.92,1.23c5.28,3,9.75,10.75,9.75,16.81C544.92,542.45,543.35,544.63,540.74,544.63Z"/><polygon class="cls-55" points="554.03 522.18 554.03 555.85 548.95 552.91 548.95 519.25 554.03 522.18"/><polygon class="cls-32" points="550.6 551.96 550.6 522.1 552.39 523.13 552.39 552.99 550.6 551.96"/><polygon class="cls-4" points="385.26 677.47 385.26 688.03 342.01 663.07 342.01 652.5 385.26 677.47"/><polygon class="cls-5" points="396.23 671.14 396.23 681.7 352.99 656.74 352.99 646.17 396.23 671.14"/><polygon class="cls-6" points="398.84 669.63 385.26 677.47 342.01 652.5 355.59 644.66 398.84 669.63"/><polygon class="cls-7" points="398.84 669.63 398.84 680.2 396.23 681.7 396.23 674.14 387.87 678.98 387.87 686.53 385.26 688.04 385.26 677.47 398.84 669.63"/><polygon class="cls-4" points="513.51 699.09 513.51 709.66 470.27 684.69 470.27 674.13 513.51 699.09"/><polygon class="cls-5" points="524.48 692.76 524.48 703.33 481.24 678.36 481.24 667.79 524.48 692.76"/><polygon class="cls-6" points="527.09 691.25 513.51 699.09 470.27 674.13 483.85 666.28 527.09 691.25"/><polygon class="cls-7" points="527.09 691.25 527.09 701.82 524.48 703.33 524.48 695.77 516.12 700.6 516.12 708.15 513.51 709.66 513.51 699.1 527.09 691.25"/><polygon class="cls-7" points="511.76 688.91 511.76 710.67 509.15 712.18 509.15 693.42 492.91 702.8 486.69 706.39 486.69 725.15 484.07 726.66 484.07 704.89 490.31 701.3 508.99 690.5 509.15 690.41 511.76 688.91 511.76 688.91"/><polygon class="cls-6" points="511.76 688.91 509.15 690.41 509.15 690.41 508.99 690.5 490.3 701.29 484.07 704.88 440.83 679.92 465.9 665.45 465.91 665.44 468.52 663.94 511.76 688.91"/><polygon class="cls-4" points="484.07 704.88 484.07 726.66 440.83 701.69 440.83 679.92 484.07 704.88"/><polygon class="cls-5" points="509.15 693.42 509.15 712.18 492.91 702.8 509.15 693.42"/><polygon class="cls-4" points="468.74 724.94 468.74 735.51 425.5 710.54 425.5 699.97 468.74 724.94"/><polygon class="cls-5" points="479.72 718.61 479.72 729.18 436.47 704.21 436.47 693.64 479.72 718.61"/><polygon class="cls-6" points="482.32 717.1 468.74 724.94 425.5 699.97 439.08 692.13 482.32 717.1"/><polygon class="cls-7" points="482.33 717.1 482.33 727.67 479.72 729.18 479.72 721.62 471.36 726.45 471.36 734 468.75 735.51 468.75 724.94 482.33 717.1"/><polygon class="cls-4" points="361.2 797.53 361.2 808.1 404.45 783.13 404.45 772.56 361.2 797.53"/><polygon class="cls-5" points="350.23 791.2 350.23 801.77 393.48 776.8 393.48 766.23 350.23 791.2"/><polygon class="cls-6" points="347.63 789.69 361.2 797.53 404.45 772.56 390.87 764.72 347.63 789.69"/><polygon class="cls-7" points="347.62 789.69 347.62 800.26 350.23 801.77 350.23 794.21 358.59 799.04 358.59 806.59 361.2 808.1 361.2 797.53 347.62 789.69"/><polygon class="cls-4" points="283.08 755.66 283.08 766.23 326.32 741.26 326.32 730.7 283.08 755.66"/><polygon class="cls-5" points="272.1 749.33 272.1 759.9 315.35 734.93 315.35 724.36 272.1 749.33"/><polygon class="cls-6" points="269.5 747.82 283.08 755.66 326.32 730.7 312.74 722.85 269.5 747.82"/><polygon class="cls-7" points="269.49 747.83 269.49 758.39 272.1 759.9 272.1 752.34 280.46 757.17 280.46 764.73 283.07 766.23 283.07 755.66 269.49 747.83"/><polygon class="cls-7" points="302.1 750.83 302.1 772.59 304.72 774.1 304.72 755.35 320.96 764.72 327.18 768.31 327.18 787.07 329.79 788.58 329.79 766.81 323.56 763.22 304.88 752.43 304.72 752.34 302.11 750.83 302.1 750.83"/><polygon class="cls-6" points="302.11 750.83 304.72 752.33 304.72 752.34 304.88 752.43 323.57 763.21 329.79 766.8 373.04 741.84 347.96 727.37 347.95 727.36 345.35 725.86 302.11 750.83"/><polygon class="cls-4" points="329.8 766.81 329.8 788.58 373.04 763.61 373.04 741.84 329.8 766.81"/><polygon class="cls-5" points="304.72 755.35 304.72 774.1 320.96 764.72 304.72 755.35"/><line class="cls-56" x1="547.58" y1="609.26" x2="524.06" y2="553.88"/><line class="cls-56" x1="561.49" y1="617.29" x2="537.98" y2="561.91"/><path class="cls-57" d="M515,542.92l-2.13-1.23V597.4l67.43,38.93V580.61Zm60.36,84.84L517.8,594.54V550.26l2.13,1.24,55.41,32Z"/><polygon class="cls-58" points="519.93 551.5 519.93 593.3 517.79 594.54 517.79 550.26 519.93 551.5"/><polygon class="cls-58" points="575.34 625.28 575.34 627.76 517.79 594.54 519.93 593.3 575.34 625.28"/><polygon class="cls-17" points="575.34 583.47 575.34 625.28 519.93 593.3 519.93 551.5 575.34 583.47"/><polygon class="cls-16" points="582.42 579.37 580.28 580.61 514.98 542.92 512.85 541.69 514.98 540.45 582.42 579.37"/><polygon class="cls-16" points="582.42 579.37 582.42 635.09 580.28 636.33 580.28 580.61 582.42 579.37"/><polygon class="cls-59" points="561.49 617.29 547.58 609.26 524.06 553.88 537.98 561.91 561.49 617.29"/><path class="cls-57" d="M419.1,487.56,417,486.33V542L484.4,581V525.25Zm60.35,84.84-57.54-33.22V494.89l2.13,1.24,55.41,32Z"/><polygon class="cls-58" points="424.05 496.13 424.05 537.93 421.91 539.18 421.91 494.89 424.05 496.13"/><polygon class="cls-58" points="479.45 569.92 479.45 572.4 421.91 539.18 424.05 537.93 479.45 569.92"/><polygon class="cls-17" points="479.45 528.11 479.45 569.92 424.05 537.93 424.05 496.13 479.45 528.11"/><polygon class="cls-16" points="486.53 524 484.4 525.25 419.1 487.56 416.96 486.33 419.1 485.08 486.53 524"/><polygon class="cls-16" points="486.53 524 486.53 579.72 484.4 580.97 484.4 525.25 486.53 524"/><polygon class="cls-59" points="465.6 561.92 451.69 553.89 428.18 498.51 442.09 506.54 465.6 561.92"/><polygon class="cls-60" points="690.4 782.78 404.5 776.64 404.45 772.56 394.82 767.11 385.86 767.63 376.72 772.88 372.08 770.22 366.79 767.16 366.69 745.57 320.43 740.25 324.56 737.86 324.49 731.75 301.06 729.61 292.06 723.98 130.29 630.47 10.71 627.9 0 627.76 62.84 591.49 94.93 572.95 210.95 505.97 690.4 782.78"/><polygon class="cls-60" points="362.78 593.63 362.78 584.17 334.21 567.67 326.02 572.4 362.78 593.63"/><path class="cls-61" d="M142.51,434.26c-13.5,11.7-26.57,19.81-36.4,21Z"/><polygon class="cls-62" points="311.21 455.28 208.66 396.07 106.11 455.28 208.66 514.49 311.21 455.28"/><polygon class="cls-63" points="311.21 455.28 311.21 572.95 208.66 632.16 208.66 514.49 311.21 455.28"/><path class="cls-64" d="M208.66,514.49c19.67-25.14,16-71.84,9.77-112.78C214.21,374,208.8,348.9,208.66,335v-.27c.12,24.13,34.57,72.09,66.48,99.75h0c13.37,11.59,26.31,19.62,36.07,20.82Z"/><polygon class="cls-65" points="208.66 514.49 208.66 632.16 106.1 572.95 106.1 455.28 208.66 514.49"/><path class="cls-63" d="M208.66,514.49,106.11,455.28c9.83-1.21,22.9-9.32,36.4-21,31.8-27.54,66-75,66.15-99.29,0,14-5.35,39-9.59,66.64C192.79,442.57,189,489.31,208.66,514.49Z"/><path class="cls-62" d="M208.66,514.49c-19.7-25.18-15.87-71.92-9.59-112.88C203.31,374,208.66,349,208.66,335c.14,13.93,5.55,39,9.77,66.74C224.67,442.65,228.33,489.35,208.66,514.49Z"/><polygon class="cls-66" points="297.84 477.27 297.84 532.43 221.02 576.78 221.02 521.63 297.84 477.27"/><polygon class="cls-7" points="308.92 538.82 308.92 541.13 231.1 586.06 231.1 583.76 307.96 539.38 307.97 539.38 308.92 538.82"/><polygon class="cls-4" points="231.1 583.76 231.1 586.06 221.02 580.24 221.02 577.94 221.99 578.49 231.1 583.76"/><polygon class="cls-6" points="308.92 538.82 307.96 539.38 231.1 583.76 221.99 578.49 221.02 577.94 221.02 576.78 297.84 532.43 298.85 533 308.92 538.82"/><polygon class="cls-65" points="298.85 476.69 298.85 533 297.84 532.43 297.84 477.27 297.86 477.26 298.85 476.69"/><polygon class="cls-60" points="208.66 632.16 227.91 584.22 227.91 581.92 224.64 574.69 250.38 490.4 311.21 455.28 311.21 572.95 208.66 632.16"/><polyline class="cls-60" points="668.17 795.6 532.94 795.38 415.37 867.57 376.04 844.87 468.75 793.85 665.12 793.85"/><polygon class="cls-60" points="517.79 882.42 444.62 884.46 440.38 882.01 514.75 880.67 517.79 882.42"/><line class="cls-12" x1="742.99" y1="547.39" x2="740.85" y2="546.15"/><polygon class="cls-12" points="805.46 517.04 805.46 581.77 805.46 581.77 803.32 580.53 803.32 518.28 805.46 517.04"/><polygon class="cls-12" points="765.63 628.62 747.93 638.84 747.93 636.36 763.49 627.38 765.63 628.62"/><polygon class="cls-12" points="784.8 617.55 768.59 626.92 768.59 624.43 782.66 616.32 784.8 617.55"/><polygon class="cls-12" points="805.46 605.62 787.76 615.84 787.76 613.36 803.32 604.39 805.46 605.62"/><polygon class="cls-12" points="805.46 585.19 805.46 605.62 803.32 604.39 803.32 586.42 805.46 585.19"/><polygon class="cls-12" points="763.49 541.28 763.49 603.53 747.93 612.51 747.93 550.26 763.49 541.28"/><polygon class="cls-12" points="763.49 609.42 763.49 627.38 747.93 636.36 747.93 618.41 763.49 609.42"/><polygon class="cls-12" points="782.66 598.35 782.66 616.32 768.59 624.43 768.59 606.48 782.66 598.35"/><polygon class="cls-12" points="803.32 586.42 803.32 604.39 787.76 613.36 787.76 595.41 803.32 586.42"/><polygon class="cls-12" points="782.66 530.21 782.66 548.16 768.59 556.28 768.59 538.33 782.66 530.21"/><polygon class="cls-12" points="805.46 581.77 803.32 583.01 787.76 591.99 787.76 589.51 803.32 580.53 805.46 581.77"/><polygon class="cls-12" points="765.63 604.77 763.49 606.01 747.93 614.99 747.93 612.51 763.49 603.53 765.63 604.77"/><polygon class="cls-12" points="803.32 518.28 803.32 580.53 787.76 589.51 787.76 527.26 803.32 518.28"/><polygon class="cls-12" points="782.66 554.07 782.66 592.46 768.59 600.59 768.59 562.2 782.66 554.07"/><polygon class="cls-12" points="765.63 540.04 765.63 604.77 763.49 603.53 763.49 541.28 765.63 540.04"/><polygon class="cls-12" points="765.63 608.19 765.63 628.62 763.49 627.38 763.49 609.42 765.63 608.19"/><polygon class="cls-12" points="784.8 528.97 784.8 549.41 782.66 548.16 782.66 530.21 784.8 528.97"/><polygon class="cls-12" points="784.8 593.69 782.66 594.94 768.59 603.06 768.59 600.59 782.66 592.46 784.8 593.69"/><polygon class="cls-12" points="784.8 597.12 784.8 617.55 782.66 616.32 782.66 598.35 784.8 597.12"/><polygon class="cls-12" points="784.8 549.41 782.66 550.65 768.59 558.77 768.59 556.28 782.66 548.16 784.8 549.41"/><polygon class="cls-12" points="784.8 552.83 784.8 593.69 782.66 592.46 782.66 554.07 784.8 552.83"/><polygon class="cls-14" points="805.46 517.04 805.46 581.77 805.46 581.77 803.32 580.53 803.32 518.28 805.46 517.04"/><polygon class="cls-15" points="765.63 628.62 747.93 638.84 747.93 636.36 763.49 627.38 765.63 628.62"/><polygon class="cls-15" points="784.8 617.55 768.59 626.92 768.59 624.43 782.66 616.32 784.8 617.55"/><polygon class="cls-15" points="805.46 605.62 787.76 615.84 787.76 613.36 803.32 604.39 805.46 605.62"/><polygon class="cls-14" points="805.46 585.19 805.46 605.62 803.32 604.39 803.32 586.42 805.46 585.19"/><polygon class="cls-17" points="763.49 541.28 763.49 603.53 747.93 612.51 747.93 550.26 763.49 541.28"/><polygon class="cls-17" points="763.49 609.42 763.49 627.38 747.93 636.36 747.93 618.41 763.49 609.42"/><polygon class="cls-17" points="782.66 598.35 782.66 616.32 768.59 624.43 768.59 606.48 782.66 598.35"/><polygon class="cls-17" points="803.32 586.42 803.32 604.39 787.76 613.36 787.76 595.41 803.32 586.42"/><polygon class="cls-17" points="782.66 530.21 782.66 548.16 768.59 556.28 768.59 538.33 782.66 530.21"/><polygon class="cls-15" points="805.46 581.77 803.32 583.01 787.76 591.99 787.76 589.51 803.32 580.53 805.46 581.77"/><polygon class="cls-15" points="765.63 604.77 763.49 606.01 747.93 614.99 747.93 612.51 763.49 603.53 765.63 604.77"/><polygon class="cls-17" points="803.32 518.28 803.32 580.53 787.76 589.51 787.76 527.26 803.32 518.28"/><path class="cls-16" d="M805.45,581.77,803.32,583l-15.56,9V527.26l-1.47.86-.67.38-.82.47v20.44l-2.14,1.24-14.07,8.12V538.33l-1.48.86-.66.38-.82.48v64.72L763.49,606l-15.56,9v3.42l15.56-9,2.14-1.23v20.43l1.48-.86,1.48-.84V606.48l14.07-8.13,2.14-1.23v20.43l1.48-.86,1.48-.85V595.41l15.56-9,2.14-1.23v-3.42ZM784.8,593.69l-2.14,1.25-14.07,8.12V562.2l14.07-8.13,2.14-1.24Z"/><polygon class="cls-17" points="782.66 554.07 782.66 592.46 768.59 600.59 768.59 562.2 782.66 554.07"/><polygon class="cls-14" points="765.63 540.04 765.63 604.77 763.49 603.53 763.49 541.28 765.63 540.04"/><polygon class="cls-14" points="765.63 608.19 765.63 628.62 763.49 627.38 763.49 609.42 765.63 608.19"/><polygon class="cls-14" points="784.8 528.97 784.8 549.41 782.66 548.16 782.66 530.21 784.8 528.97"/><polygon class="cls-15" points="784.8 593.69 782.66 594.94 768.59 603.06 768.59 600.59 782.66 592.46 784.8 593.69"/><polygon class="cls-14" points="784.8 597.12 784.8 617.55 782.66 616.32 782.66 598.35 784.8 597.12"/><polygon class="cls-15" points="784.8 549.41 782.66 550.65 768.59 558.77 768.59 556.28 782.66 548.16 784.8 549.41"/><polygon class="cls-14" points="784.8 552.83 784.8 593.69 782.66 592.46 782.66 554.07 784.8 552.83"/><path class="cls-16" d="M785.28,523l-1.47.86L766.11,534,764,535.28l-21,12.11v100l25.13-14.51,1.45-.84,1.5-.86,16.23-9.38,1.45-.83,1.5-.87,20.17-11.64v-100Zm20.18,82.65-17.7,10.22-1.48.85-1.48.86-16.21,9.37-1.48.84-1.48.86-17.7,10.22V550.26l15.56-9,2.14-1.23.82-.48.66-.38,1.48-.86,14.07-8.12L784.8,529l.82-.47.67-.38,1.47-.86,15.56-9,2.14-1.23Z"/><polygon class="cls-14" points="742.99 547.39 742.99 647.4 740.85 646.16 740.85 546.14 742.99 547.39"/><line class="cls-12" x1="805.46" y1="581.77" x2="803.32" y2="580.53"/><polygon class="cls-14" points="810.41 508.47 785.28 522.97 783.81 523.83 766.11 534.04 763.98 535.28 742.99 547.39 740.85 546.14 761.85 534.03 763.97 532.8 781.67 522.59 783.15 521.73 808.27 507.23 810.41 508.47"/><line class="cls-12" x1="915.59" y1="447.75" x2="913.45" y2="446.5"/><polygon class="cls-12" points="978.06 417.4 978.06 482.13 978.06 482.13 975.92 480.88 975.92 418.63 978.06 417.4"/><polygon class="cls-12" points="938.23 528.98 920.53 539.2 920.53 536.72 936.09 527.74 938.23 528.98"/><polygon class="cls-12" points="957.41 517.9 941.19 527.27 941.19 524.79 955.26 516.67 957.41 517.9"/><polygon class="cls-12" points="978.06 505.98 960.37 516.2 960.37 513.72 975.92 504.74 978.06 505.98"/><polygon class="cls-12" points="978.06 485.54 978.06 505.98 975.92 504.74 975.92 486.78 978.06 485.54"/><polygon class="cls-12" points="936.09 441.63 936.09 503.88 920.53 512.87 920.53 450.61 936.09 441.63"/><polygon class="cls-12" points="936.09 509.78 936.09 527.74 920.53 536.72 920.53 518.76 936.09 509.78"/><polygon class="cls-12" points="955.26 498.7 955.26 516.67 941.19 524.79 941.19 506.83 955.26 498.7"/><polygon class="cls-12" points="975.92 486.78 975.92 504.74 960.37 513.72 960.37 495.76 975.92 486.78"/><polygon class="cls-12" points="955.26 430.56 955.26 448.51 941.19 456.64 941.19 438.68 955.26 430.56"/><polygon class="cls-12" points="978.06 482.13 975.92 483.36 960.37 492.34 960.37 489.87 975.92 480.88 978.06 482.13"/><polygon class="cls-12" points="938.23 505.13 936.09 506.36 920.53 515.34 920.53 512.87 936.09 503.88 938.23 505.13"/><polygon class="cls-12" points="975.92 418.63 975.92 480.88 960.37 489.87 960.37 427.61 975.92 418.63"/><polygon class="cls-12" points="955.26 454.42 955.26 492.81 941.19 500.94 941.19 462.55 955.26 454.42"/><polygon class="cls-12" points="938.23 440.4 938.23 505.13 936.09 503.88 936.09 441.63 938.23 440.4"/><polygon class="cls-12" points="938.23 508.54 938.23 528.98 936.09 527.74 936.09 509.78 938.23 508.54"/><polygon class="cls-12" points="957.41 429.33 957.41 449.76 955.26 448.51 955.26 430.56 957.41 429.33"/><polygon class="cls-12" points="957.41 494.05 955.26 495.29 941.19 503.41 941.19 500.94 955.26 492.81 957.41 494.05"/><polygon class="cls-12" points="957.41 497.47 957.41 517.9 955.26 516.67 955.26 498.7 957.41 497.47"/><polygon class="cls-12" points="957.41 449.76 955.26 451 941.19 459.13 941.19 456.64 955.26 448.51 957.41 449.76"/><polygon class="cls-12" points="957.41 453.18 957.41 494.05 955.26 492.81 955.26 454.42 957.41 453.18"/><polygon class="cls-14" points="978.06 417.4 978.06 482.13 978.06 482.13 975.92 480.88 975.92 418.63 978.06 417.4"/><polygon class="cls-15" points="938.23 528.98 920.53 539.2 920.53 536.72 936.09 527.74 938.23 528.98"/><polygon class="cls-15" points="957.41 517.9 941.19 527.27 941.19 524.79 955.26 516.67 957.41 517.9"/><polygon class="cls-15" points="978.06 505.98 960.37 516.2 960.37 513.72 975.92 504.74 978.06 505.98"/><polygon class="cls-14" points="978.06 485.54 978.06 505.98 975.92 504.74 975.92 486.78 978.06 485.54"/><polygon class="cls-17" points="936.09 441.63 936.09 503.88 920.53 512.87 920.53 450.61 936.09 441.63"/><polygon class="cls-17" points="936.09 509.78 936.09 527.74 920.53 536.72 920.53 518.76 936.09 509.78"/><polygon class="cls-17" points="955.26 498.7 955.26 516.67 941.19 524.79 941.19 506.83 955.26 498.7"/><polygon class="cls-17" points="975.92 486.78 975.92 504.74 960.37 513.72 960.37 495.76 975.92 486.78"/><polygon class="cls-17" points="955.26 430.56 955.26 448.51 941.19 456.64 941.19 438.68 955.26 430.56"/><polygon class="cls-15" points="978.06 482.13 975.92 483.36 960.37 492.34 960.37 489.87 975.92 480.88 978.06 482.13"/><polygon class="cls-15" points="938.23 505.13 936.09 506.36 920.53 515.34 920.53 512.87 936.09 503.88 938.23 505.13"/><polygon class="cls-17" points="975.92 418.63 975.92 480.88 960.37 489.87 960.37 427.61 975.92 418.63"/><path class="cls-16" d="M978.06,482.13l-2.14,1.23-15.55,9V427.61l-1.48.86-.67.39-.81.47v20.43L955.26,451l-14.07,8.13V438.68l-1.47.86-.67.39-.82.47v64.73l-2.14,1.23-15.56,9v3.42l15.56-9,2.14-1.24V529l1.48-.85,1.48-.85V506.83l14.07-8.13,2.15-1.23V517.9l1.47-.85,1.49-.85V495.76l15.55-9,2.14-1.24v-3.41Zm-20.65,11.92-2.15,1.24-14.07,8.12V462.55l14.07-8.13,2.15-1.24Z"/><polygon class="cls-17" points="955.26 454.42 955.26 492.81 941.19 500.94 941.19 462.55 955.26 454.42"/><polygon class="cls-14" points="938.23 440.4 938.23 505.13 936.09 503.88 936.09 441.63 938.23 440.4"/><polygon class="cls-14" points="938.23 508.54 938.23 528.98 936.09 527.74 936.09 509.78 938.23 508.54"/><polygon class="cls-14" points="957.41 429.33 957.41 449.76 955.26 448.51 955.26 430.56 957.41 429.33"/><polygon class="cls-15" points="957.41 494.05 955.26 495.29 941.19 503.41 941.19 500.94 955.26 492.81 957.41 494.05"/><polygon class="cls-14" points="957.41 497.47 957.41 517.9 955.26 516.67 955.26 498.7 957.41 497.47"/><polygon class="cls-15" points="957.41 449.76 955.26 451 941.19 459.13 941.19 456.64 955.26 448.51 957.41 449.76"/><polygon class="cls-14" points="957.41 453.18 957.41 494.05 955.26 492.81 955.26 454.42 957.41 453.18"/><path class="cls-16" d="M957.88,423.33l-1.47.85-17.7,10.22-2.13,1.23-21,12.11v100l25.12-14.5,1.45-.85,1.5-.86,16.24-9.37,1.44-.84,1.5-.86L983,508.82v-100ZM978.06,506,960.37,516.2l-1.49.85-1.47.85-16.22,9.37-1.48.85-1.48.85-17.7,10.23V450.61l15.56-9,2.14-1.23.82-.47.67-.39,1.47-.86,14.07-8.12,2.15-1.23.81-.47.67-.39,1.48-.86,15.55-9,2.14-1.23Z"/><polygon class="cls-14" points="915.59 447.74 915.59 547.75 913.45 546.51 913.45 446.5 915.59 447.74"/><line class="cls-12" x1="978.06" y1="482.12" x2="975.92" y2="480.88"/><polygon class="cls-14" points="983.01 408.82 957.88 423.32 956.41 424.18 938.71 434.4 936.58 435.63 915.59 447.74 913.45 446.5 934.45 434.39 936.58 433.15 954.27 422.94 955.75 422.08 980.88 407.58 983.01 408.82"/><polygon class="cls-1" points="978.07 417.39 978.07 482.12 978.06 482.12 975.92 480.88 975.92 418.63 978.07 417.39"/><polygon class="cls-1" points="938.23 528.97 920.53 539.19 920.53 536.71 936.09 527.73 938.23 528.97"/><polygon class="cls-1" points="957.41 517.9 941.19 527.26 941.19 524.78 955.26 516.66 957.41 517.9"/><polygon class="cls-1" points="978.07 505.97 960.37 516.19 960.37 513.71 975.92 504.73 978.07 505.97"/><polygon class="cls-1" points="978.07 485.53 978.07 505.97 975.92 504.73 975.92 486.77 978.07 485.53"/><polygon class="cls-1" points="936.09 441.63 936.09 503.88 920.53 512.86 920.53 450.61 936.09 441.63"/><polygon class="cls-1" points="936.09 509.77 936.09 527.73 920.53 536.71 920.53 518.75 936.09 509.77"/><polygon class="cls-1" points="955.26 498.7 955.26 516.66 941.19 524.78 941.19 506.83 955.26 498.7"/><polygon class="cls-1" points="975.92 486.77 975.92 504.73 960.37 513.71 960.37 495.75 975.92 486.77"/><polygon class="cls-1" points="955.26 430.56 955.26 448.5 941.19 456.63 941.19 438.68 955.26 430.56"/><polygon class="cls-1" points="978.06 482.12 975.92 483.36 960.37 492.33 960.37 489.86 975.92 480.88 978.06 482.12"/><polygon class="cls-1" points="938.23 505.12 936.09 506.36 920.53 515.33 920.53 512.86 936.09 503.88 938.23 505.12"/><polygon class="cls-1" points="975.92 418.63 975.92 480.88 960.37 489.86 960.37 427.61 975.92 418.63"/><path class="cls-1" d="M978.06,482.12l-2.14,1.24-15.55,9V427.61l-1.48.85-.67.39-.81.47v20.44L955.26,451l-14.07,8.13V438.68l-1.47.85-.67.39-.82.47v64.73l-2.14,1.24-15.56,9v3.42l15.56-9,2.14-1.24V529l1.48-.86,1.48-.85V506.83l14.07-8.13,2.15-1.24V517.9l1.47-.86,1.49-.85V495.75l15.55-9,2.14-1.24v-3.41ZM957.41,494l-2.15,1.25-14.07,8.12V462.54l14.07-8.13,2.15-1.23Z"/><polygon class="cls-1" points="955.26 454.41 955.26 492.8 941.19 500.93 941.19 462.54 955.26 454.41"/><polygon class="cls-1" points="938.23 440.39 938.23 505.12 936.09 503.88 936.09 441.63 938.23 440.39"/><polygon class="cls-1" points="938.23 508.53 938.23 528.97 936.09 527.73 936.09 509.77 938.23 508.53"/><polygon class="cls-1" points="957.41 429.32 957.41 449.76 955.26 448.5 955.26 430.56 957.41 429.32"/><polygon class="cls-1" points="957.41 494.04 955.26 495.29 941.19 503.4 941.19 500.93 955.26 492.8 957.41 494.04"/><polygon class="cls-1" points="957.41 497.46 957.41 517.9 955.26 516.66 955.26 498.7 957.41 497.46"/><polygon class="cls-1" points="957.41 449.76 955.26 450.99 941.19 459.12 941.19 456.63 955.26 448.5 957.41 449.76"/><polygon class="cls-1" points="957.41 453.18 957.41 494.04 955.26 492.8 955.26 454.41 957.41 453.18"/><polygon class="cls-1" points="978.07 417.39 978.07 482.12 978.06 482.12 975.92 480.88 975.92 418.63 978.07 417.39"/><polygon class="cls-1" points="938.23 528.97 920.53 539.19 920.53 536.71 936.09 527.73 938.23 528.97"/><polygon class="cls-1" points="957.41 517.9 941.19 527.26 941.19 524.78 955.26 516.66 957.41 517.9"/><polygon class="cls-1" points="978.07 505.97 960.37 516.19 960.37 513.71 975.92 504.73 978.07 505.97"/><polygon class="cls-1" points="978.07 485.53 978.07 505.97 975.92 504.73 975.92 486.77 978.07 485.53"/><polygon class="cls-1" points="936.09 441.63 936.09 503.88 920.53 512.86 920.53 450.61 936.09 441.63"/><polygon class="cls-1" points="936.09 509.77 936.09 527.73 920.53 536.71 920.53 518.75 936.09 509.77"/><polygon class="cls-1" points="955.26 498.7 955.26 516.66 941.19 524.78 941.19 506.83 955.26 498.7"/><polygon class="cls-1" points="975.92 486.77 975.92 504.73 960.37 513.71 960.37 495.75 975.92 486.77"/><polygon class="cls-1" points="955.26 430.56 955.26 448.5 941.19 456.63 941.19 438.68 955.26 430.56"/><polygon class="cls-1" points="978.06 482.12 975.92 483.36 960.37 492.33 960.37 489.86 975.92 480.88 978.06 482.12"/><polygon class="cls-1" points="938.23 505.12 936.09 506.36 920.53 515.33 920.53 512.86 936.09 503.88 938.23 505.12"/><polygon class="cls-1" points="975.92 418.63 975.92 480.88 960.37 489.86 960.37 427.61 975.92 418.63"/><path class="cls-1" d="M978.06,482.12l-2.14,1.24-15.55,9V427.61l-1.48.85-.67.39-.81.47v20.44L955.26,451l-14.07,8.13V438.68l-1.47.85-.67.39-.82.47v64.73l-2.14,1.24-15.56,9v3.42l15.56-9,2.14-1.24V529l1.48-.86,1.48-.85V506.83l14.07-8.13,2.15-1.24V517.9l1.47-.86,1.49-.85V495.75l15.55-9,2.14-1.24v-3.41ZM957.41,494l-2.15,1.25-14.07,8.12V462.54l14.07-8.13,2.15-1.23Z"/><polygon class="cls-1" points="955.26 454.41 955.26 492.8 941.19 500.93 941.19 462.54 955.26 454.41"/><polygon class="cls-1" points="938.23 440.39 938.23 505.12 936.09 503.88 936.09 441.63 938.23 440.39"/><polygon class="cls-1" points="938.23 508.53 938.23 528.97 936.09 527.73 936.09 509.77 938.23 508.53"/><polygon class="cls-1" points="957.41 429.32 957.41 449.76 955.26 448.5 955.26 430.56 957.41 429.32"/><polygon class="cls-1" points="957.41 494.04 955.26 495.29 941.19 503.4 941.19 500.93 955.26 492.8 957.41 494.04"/><polygon class="cls-1" points="957.41 497.46 957.41 517.9 955.26 516.66 955.26 498.7 957.41 497.46"/><polygon class="cls-1" points="957.41 449.76 955.26 450.99 941.19 459.12 941.19 456.63 955.26 448.5 957.41 449.76"/><polygon class="cls-1" points="957.41 453.18 957.41 494.04 955.26 492.8 955.26 454.41 957.41 453.18"/><polygon class="cls-1" points="983.01 408.82 983.01 508.82 962.84 520.47 961.34 521.33 959.89 522.16 943.66 531.54 942.16 532.4 940.71 533.25 915.59 547.75 915.59 447.74 936.58 435.63 938.71 434.4 956.41 424.18 957.88 423.32 983.01 408.82"/><polygon class="cls-1" points="915.59 447.74 915.59 547.75 913.45 546.51 913.45 446.5 915.59 447.74"/><line class="cls-1" x1="978.06" y1="482.12" x2="975.92" y2="480.88"/><polygon class="cls-1" points="983.01 408.82 957.88 423.32 956.41 424.18 938.71 434.4 936.58 435.63 915.59 447.74 913.45 446.5 934.45 434.39 936.57 433.15 954.27 422.94 955.75 422.08 980.88 407.58 983.01 408.82"/><polygon class="cls-59" points="781.17 554.93 768.59 600.53 768.59 591.41 778.06 556.72 781.17 554.93"/><polygon class="cls-59" points="763.49 541.28 763.49 553.63 748.59 612.13 747.93 612.51 747.93 595.62 761.52 542.42 763.49 541.28"/><line class="cls-56" x1="761.52" y1="542.42" x2="747.93" y2="595.61"/><polygon class="cls-59" points="953.77 455.29 941.19 500.88 941.19 491.76 950.66 457.07 953.77 455.29"/><polygon class="cls-59" points="936.09 441.63 936.09 453.98 921.19 512.49 920.53 512.87 920.53 495.97 934.12 442.77 936.09 441.63"/><line class="cls-1" x1="208.66" y1="632.16" x2="106.11" y2="572.95"/><polygon class="cls-67" points="208.66 632.16 130.29 630.47 62.84 591.49 94.93 572.95 106.1 572.95 208.66 632.16"/><polygon class="cls-67" points="208.66 632.16 130.29 630.47 62.84 591.49 94.93 572.95 106.1 572.95 208.66 632.16"/><polygon class="cls-9" points="519.32 706.15 519.32 761.51 517.79 760.63 517.79 705.27 519.32 706.15"/><polygon class="cls-51" points="672.74 617.58 671.23 618.45 669.7 619.33 668.17 620.21 665.12 621.98 538.5 695.08 520.85 705.27 519.32 706.15 517.79 705.27 520.85 703.51 536.98 694.2 665.12 620.21 668.17 618.45 668.17 618.45 671.23 616.69 672.74 617.58"/><polygon class="cls-15" points="520.85 703.51 517.79 705.27 514.74 703.51 517.79 701.75 520.85 703.51"/><polygon class="cls-51" points="671.23 618.45 671.23 793.85 668.17 795.6 668.17 620.21 669.7 619.33 671.23 618.45"/><polygon class="cls-9" points="668.17 620.21 668.17 795.6 665.12 793.85 665.12 677.24 665.12 621.98 668.17 620.21"/><polygon class="cls-15" points="671.23 616.69 668.17 618.45 668.17 618.45 665.12 616.69 668.17 614.93 671.23 616.69"/><polygon class="cls-51" points="520.85 705.27 520.85 880.67 517.79 882.42 517.79 760.63 519.32 761.51 519.32 706.15 520.85 705.27"/><polygon class="cls-9" points="517.79 705.27 517.79 882.42 514.75 880.67 514.75 814.23 514.74 769.93 514.74 703.51 517.79 705.27"/><polygon class="cls-14" points="672.75 617.58 672.75 672.83 671.23 673.72 668.17 675.48 665.12 677.24 586.41 722.74 520.85 760.63 519.32 761.51 519.32 706.15 520.85 705.27 538.5 695.08 665.12 621.98 668.17 620.21 669.7 619.33 671.23 618.45 672.74 617.58 672.75 617.58"/><polygon class="cls-68" points="521.79 707.58 670.27 621.85 670.28 671.4 521.79 757.22 521.79 707.58"/><ellipse cx="596.03" cy="689.54" rx="24.38" ry="14.07" transform="translate(-300.06 856.09) rotate(-59.69)"/><path class="cls-12" d="M591.88,683.27l3.3-1.91V698.7l-2.24,1.3V687.56l-1.64,13.38-2.25,1.3L587.28,691v12.26l-2.07,1.2V687.12l3.3-1.91,1.75,11.3Z"/><path class="cls-12" d="M603.56,676.52l3.3-1.9V692l-2.24,1.29V680.82L603,694.2l-2.25,1.3L599,684.26v12.26l-2.07,1.2V680.37l3.3-1.9,1.75,11.3Z"/><path class="cls-12" d="M593.17,679.24l.41-.24v2.18l-.28.17v-1.57l-.21,1.68-.28.17-.22-1.42v1.55l-.26.15v-2.18l.41-.24.22,1.42Z"/><path class="cls-12" d="M594.51,679.39v.31l-.41.23v.64l.51-.29v.31l-.81.47v-2.18l.81-.47v.31l-.51.3v.6Z"/><path class="cls-12" d="M595.4,680s0-.08,0-.16v-.34c0-.1,0-.17,0-.19s-.08,0-.15,0l-.1.06v.89l-.3.17V678.3l.45-.26c.15-.09.26-.11.33-.07s.11.15.11.32v.17a.75.75,0,0,1-.2.55.15.15,0,0,1,.16.08.64.64,0,0,1,0,.27v.34a.66.66,0,0,0,0,.15.14.14,0,0,0,0,.09l-.31.18A.29.29,0,0,1,595.4,680Zm-.3-.92.11-.07a.35.35,0,0,0,.14-.13.4.4,0,0,0,0-.2v-.22c0-.08,0-.13,0-.15s-.06,0-.11,0l-.14.08Z"/><path class="cls-12" d="M596.75,678.83a.93.93,0,0,1-.11.47.87.87,0,0,1-.33.33c-.15.09-.26.1-.33,0s-.12-.16-.12-.34v-1.13a.89.89,0,0,1,.12-.47.83.83,0,0,1,.33-.34c.14-.08.25-.1.33,0s.11.17.11.34v.22l-.28.16v-.23c0-.15-.05-.19-.15-.13a.31.31,0,0,0-.16.3v1.18c0,.14.05.18.16.12a.32.32,0,0,0,.15-.3v-.31l.28-.16Z"/><path class="cls-12" d="M597.6,678.86l-.05-.36-.37.21,0,.42-.27.16.3-2.35.44-.26.3,2Zm-.09-.64-.15-1-.14,1.19Z"/><path class="cls-12" d="M598.77,676v.31l-.31.18v1.87l-.3.17v-1.87l-.31.18v-.31Z"/><path class="cls-12" d="M599,676a.81.81,0,0,1,.33-.33c.15-.09.26-.1.34,0s.12.16.12.33v1.14a.94.94,0,0,1-.12.47.92.92,0,0,1-.34.34c-.14.08-.26.1-.33.05s-.12-.16-.12-.34v-1.13A1,1,0,0,1,599,676Zm.33,1.59a.33.33,0,0,0,.16-.31v-1.18c0-.14,0-.18-.16-.12a.32.32,0,0,0-.15.3v1.18C599.18,677.59,599.23,677.64,599.33,677.58Z"/><path class="cls-12" d="M590.32,702.61l.42-.24v2.18l-.28.16v-1.56l-.21,1.68L590,705l-.22-1.41v1.54l-.27.15v-2.18l.42-.24.22,1.42Z"/><path class="cls-12" d="M591.66,702.75v.31l-.41.24v.64l.52-.3V704l-.81.47v-2.18l.81-.47v.31l-.52.3V703Z"/><path class="cls-12" d="M592.79,701.18v.31l-.31.18v1.87l-.3.18v-1.87l-.31.18v-.31Z"/><path class="cls-12" d="M593.52,702.84v-.51c0-.1,0-.16,0-.18s-.08,0-.15,0l-.1.06v.89l-.3.17v-2.18l.45-.26c.15-.09.27-.11.34-.07s.1.14.1.31v.17a.81.81,0,0,1-.19.56.13.13,0,0,1,.15.08.62.62,0,0,1,.05.27v.48a.29.29,0,0,0,0,.1l-.31.18S593.53,702.87,593.52,702.84Zm-.3-.92.12-.07a.4.4,0,0,0,.13-.13.4.4,0,0,0,0-.2v-.22a.24.24,0,0,0,0-.15s-.06,0-.12,0l-.14.09Z"/><path class="cls-12" d="M594.1,700.54a.83.83,0,0,1,.34-.33c.15-.09.26-.11.34-.06a.42.42,0,0,1,.11.34v1.14a1,1,0,0,1-.11.47.92.92,0,0,1-.34.34c-.15.08-.26.1-.34,0a.42.42,0,0,1-.11-.34V701A1.06,1.06,0,0,1,594.1,700.54Zm.34,1.58a.33.33,0,0,0,.16-.3v-1.18c0-.14-.06-.18-.16-.12a.32.32,0,0,0-.15.3V702Q594.29,702.21,594.44,702.12Z"/><path class="cls-12" d="M595.86,699.55c.07.05.11.16.11.34v.28a1,1,0,0,1-.11.46.81.81,0,0,1-.33.33l-.15.09v.81l-.29.18v-2.18l.44-.26C595.67,699.52,595.79,699.5,595.86,699.55Zm-.48,1.18.15-.08a.38.38,0,0,0,.11-.11.42.42,0,0,0,0-.18V700c0-.08,0-.12,0-.14s-.07,0-.11,0l-.15.08Z"/><path class="cls-12" d="M596.2,699.33a.92.92,0,0,1,.34-.34c.14-.08.26-.1.33,0s.12.17.12.34v1.13a1,1,0,0,1-.12.48.81.81,0,0,1-.33.33c-.15.09-.26.11-.34.06a.4.4,0,0,1-.12-.34V699.8A.94.94,0,0,1,596.2,699.33Zm.34,1.58a.32.32,0,0,0,.15-.3v-1.18q0-.21-.15-.12a.31.31,0,0,0-.16.3v1.18C596.38,700.93,596.43,701,596.54,700.91Z"/><path class="cls-12" d="M597.48,698.47v1.87l.49-.28v.31l-.79.46v-2.18Z"/><path class="cls-12" d="M598.4,697.94v2.18l-.3.18v-2.18Z"/><path class="cls-12" d="M599.46,697.34v.31l-.32.18v1.86l-.3.18V698l-.31.18v-.31Z"/><path class="cls-12" d="M600.15,699.12l0-.37-.37.21-.05.43-.28.15.31-2.35.43-.25.31,2Zm-.09-.64-.15-1-.14,1.18Z"/><path class="cls-12" d="M600.85,698.71l-.27.15v-2.18l.38-.21.31,1.12v-1.3l.26-.15v2.18l-.31.17-.37-1.36Z"/><path class="cls-12" d="M601.84,696.08a.9.9,0,0,1,.33-.34c.15-.08.26-.1.34,0s.12.16.12.34v1.13a.94.94,0,0,1-.12.47.86.86,0,0,1-.34.34c-.14.08-.25.1-.33,0s-.12-.16-.12-.34v-1.13A.94.94,0,0,1,601.84,696.08Zm.33,1.58a.32.32,0,0,0,.16-.31v-1.17c0-.15-.05-.19-.16-.13a.33.33,0,0,0-.15.31v1.17C602,697.68,602.07,697.72,602.17,697.66Z"/><ellipse class="cls-13" cx="596.03" cy="689.54" rx="21.21" ry="12.25" transform="translate(-300.06 856.09) rotate(-59.69)"/></g></g></g></svg>